<svg width="30" height="30" viewBox="0 0 30 30" fill="none" xmlns="http://www.w3.org/2000/svg">
<path d="M11.4945 6.04129C11.8969 6.03327 12.243 6.11347 12.6051 6.26584C12.9753 6.41822 13.3214 6.63475 13.6353 6.89138C14.255 7.40463 14.7217 8.10234 14.931 8.87223C14.9632 8.9845 14.9873 9.08876 15.0034 9.20103C15.1724 8.13442 15.8243 7.15602 16.7418 6.57861C17.3132 6.22575 17.9812 6.02525 18.6492 6.0012C18.9872 5.99318 19.3333 6.02526 19.6632 6.10545C19.8242 6.14555 20.3151 6.30594 20.0254 6.55455C19.8805 6.68287 19.6552 6.63475 19.462 6.60267C18.4641 6.4102 17.3696 6.65881 16.605 7.32444C15.8404 7.99007 15.4461 9.08074 15.6795 10.0672C15.7197 10.2356 15.7841 10.404 15.9209 10.5082C16.0577 10.6125 16.2831 10.6205 16.3796 10.4842C16.5326 10.2757 16.2992 10.003 16.1221 9.81052C15.945 9.61805 15.8163 9.34539 15.9048 9.09678C15.9933 8.84817 16.3957 8.75193 16.5165 8.9845C16.5889 9.12886 16.5245 9.29727 16.5647 9.45766C16.6211 9.69023 16.8706 9.81854 16.9993 10.019C17.1683 10.2917 17.0637 10.6686 16.8384 10.9012C16.613 11.1338 16.3072 11.2621 16.0094 11.3824C17.4661 10.9654 18.9711 10.7087 20.4841 10.6205C20.9187 10.5964 21.3936 10.5884 21.7638 10.821C21.9167 10.9172 22.0615 11.1097 21.973 11.2701C21.9328 11.3423 21.8684 11.3824 21.796 11.4225C21.136 11.8235 20.468 12.2244 19.8081 12.6254C19.293 12.9382 18.7377 13.259 18.1422 13.2028C17.4017 13.1307 16.7579 12.4891 16.0255 12.6254C16.1543 12.874 16.4279 13.0104 16.6855 13.1307C18.1261 13.7722 19.6874 14.1251 21.2648 14.1732C21.4338 14.1812 21.6591 14.2454 21.6431 14.4058C21.635 14.502 21.5384 14.5582 21.4579 14.6063C20.7256 15.0073 19.9691 15.4082 19.1482 15.5927C18.3273 15.7771 17.4178 15.705 16.7257 15.2318C16.5084 15.0794 16.1704 14.911 16.0255 15.1356C15.9209 15.304 16.0738 15.5125 16.2428 15.6087C16.4118 15.705 16.6211 15.7531 16.7418 15.9055C16.9993 16.2503 16.6533 16.8758 17.0074 17.1164C17.0718 17.1645 17.1603 17.1806 17.2166 17.2447C17.3293 17.357 17.2569 17.5735 17.1201 17.6457C16.9832 17.7179 16.7981 17.6778 16.6613 17.5976C16.436 17.4613 16.2911 17.2127 16.2831 16.956C16.275 16.7716 16.3394 16.5871 16.3072 16.4027C16.275 16.2182 16.098 16.0338 15.9209 16.1059C15.768 16.1701 15.7438 16.3626 15.7358 16.531C15.6875 19.1855 16.0658 21.8961 15.4139 24.4704C15.3495 24.7351 15.1724 25.0559 14.9069 24.9917C14.7217 24.9436 14.6493 24.7351 14.601 24.5747C13.8445 21.84 14.424 18.9289 14.1906 16.0979C13.9813 16.0017 13.756 16.2262 13.7157 16.4508C13.6755 16.6753 13.7318 16.9079 13.6836 17.1244C13.6111 17.4452 13.2972 17.6938 12.9753 17.6858C12.8546 17.6858 12.7017 17.6217 12.6856 17.5014C12.6534 17.3169 12.9109 17.2367 13.0478 17.1084C13.3777 16.7876 12.9431 16.138 13.2651 15.8092C13.3938 15.6729 13.595 15.6568 13.764 15.5766C13.933 15.4965 14.0699 15.2719 13.9491 15.1356C13.8365 15.0153 13.6433 15.0874 13.4984 15.1596C11.8164 15.9616 9.65149 15.5847 8.33966 14.2614C10.3195 14.077 12.3878 13.8203 14.0055 12.6816C13.4421 12.4249 12.8627 12.9863 12.2671 13.1547C11.5025 13.3793 10.7138 12.9462 10.0297 12.5292C9.41005 12.1523 8.79035 11.7673 8.17065 11.3904C8.11432 11.3583 8.05798 11.3182 8.02579 11.2701C7.94531 11.1257 8.06603 10.9493 8.2109 10.8531C8.5811 10.6045 9.06398 10.6045 9.51467 10.6205C11.0438 10.6927 12.5649 10.9654 14.0216 11.4305C13.7238 11.222 13.426 11.0135 13.1282 10.805C13.0156 10.7248 12.9029 10.6365 12.8707 10.5082C12.7902 10.1714 13.2972 9.99498 13.4099 9.67419C13.4984 9.42558 13.3616 9.09678 13.5628 8.92836C13.7399 8.77599 14.0457 8.92837 14.1101 9.15292C14.1745 9.37747 14.0618 9.61806 13.925 9.80251C13.7882 9.99498 13.6192 10.1634 13.5306 10.3799C13.6594 10.5644 13.8848 10.6847 14.1101 10.6847C14.5527 9.73033 14.4079 8.52738 13.764 7.70136C13.3858 7.21216 12.8385 6.8593 12.2349 6.6989C11.9291 6.61871 11.6152 6.57861 11.3013 6.59465C10.9553 6.61069 10.6092 6.77108 10.2631 6.69088C10.0941 6.65079 9.84464 6.4503 9.90903 6.25782C9.96537 6.05733 10.2631 6.07337 10.4241 6.08139L11.4945 6.04129ZM8.98351 11.1097C8.96741 11.1578 8.95131 11.1979 8.93522 11.246C9.6354 11.6791 10.3275 12.1122 11.0277 12.5372C11.2128 12.6495 11.4382 12.6575 11.6554 12.6334C12.4039 12.5292 13.088 12.2244 13.8043 11.9838C12.2188 11.5027 10.6494 11.0536 8.98351 11.1097ZM21.0394 11.1739C19.3574 11.0616 17.78 11.5027 16.2026 11.9838C16.8625 12.2244 17.5144 12.441 18.1824 12.6174C18.4399 12.6816 18.7216 12.6735 18.9711 12.5452C19.6954 12.1603 20.3634 11.6791 21.0394 11.1739ZM9.92512 14.6624C10.5207 14.903 11.0599 15.296 11.744 15.1757C12.4442 15.0554 13.0719 14.7987 13.6594 14.3978C14.0457 14.1331 14.1181 13.8524 13.9008 13.4434C12.6132 13.9326 11.3013 14.3737 9.92512 14.6624ZM20.13 14.6945C19.9208 14.51 19.7196 14.5501 19.5425 14.51C18.456 14.2694 17.4098 13.9246 16.3635 13.5397C16.275 13.5076 16.1141 13.3552 16.0577 13.5236C15.9853 13.7562 15.8324 14.0048 16.1382 14.2454C16.774 14.7426 17.4822 15.0634 18.279 15.1837C18.9631 15.2799 19.4942 14.903 20.13 14.6945ZM14.8344 12.8019C14.4884 12.6495 14.4803 12.9061 14.4803 13.1627C14.4723 13.5156 14.5527 13.8444 14.7459 14.1492C14.8988 14.3817 14.8747 14.5662 14.5688 14.6063C14.424 14.6223 14.424 14.6865 14.4481 14.7827C14.5688 15.3681 14.6896 15.9536 14.8022 16.547C14.8264 16.6834 14.9069 16.7074 15.0276 16.7074C15.1644 16.7074 15.2046 16.6433 15.2288 16.523C15.3334 15.9616 15.4541 15.4002 15.5587 14.8388C15.5748 14.7506 15.6392 14.6464 15.4461 14.6143C15.1322 14.5662 15.1563 14.3496 15.2851 14.1331C15.43 13.8845 15.5185 13.6279 15.5426 13.3392C15.5587 13.1708 15.5829 12.9703 15.4783 12.8339C15.3656 12.6816 15.1805 12.8179 15.0356 12.8179C14.9793 12.8179 14.923 12.8099 14.8344 12.8019ZM14.939 23.7086C14.9793 23.7086 15.0115 23.7166 15.0517 23.7166C15.0598 23.6685 15.0759 23.6204 15.0839 23.5722C15.1885 22.2811 15.2207 20.9899 15.261 19.6987C15.269 19.5223 15.2932 19.3619 15.0115 19.3619C14.7298 19.3619 14.7539 19.5223 14.762 19.6987C14.7942 20.5007 14.8103 21.2947 14.8505 22.0966C14.8666 22.6339 14.9069 23.1712 14.939 23.7086ZM15.0034 12.3127C15.2529 12.2806 15.5909 12.2485 15.5909 11.9678C15.5909 11.655 15.2529 11.5989 14.9873 11.5989C14.7298 11.5989 14.4159 11.6631 14.4159 11.9598C14.424 12.2565 14.7459 12.2806 15.0034 12.3127ZM15.4058 10.5243C15.3656 10.3077 15.2771 10.0591 14.9873 10.0832C14.7298 10.0992 14.6171 10.3318 14.6171 10.5724C14.6171 10.829 14.7298 11.0776 15.0115 11.0696C15.2851 11.0696 15.3897 10.829 15.4058 10.5243ZM15.3012 18.6001C15.3334 18.3755 15.2288 18.2953 15.0034 18.2953C14.8103 18.2953 14.6976 18.3354 14.7057 18.56C14.7057 18.7604 14.7298 18.8968 14.9873 18.8888C15.1885 18.8727 15.3334 18.8487 15.3012 18.6001ZM15.2529 17.5495C15.2529 17.365 15.2529 17.1886 14.9873 17.2046C14.7459 17.2127 14.77 17.373 14.7459 17.5334C14.7217 17.7419 14.8103 17.8141 15.0115 17.8061C15.2127 17.7981 15.2771 17.7179 15.2529 17.5495Z" fill="#02E602"/>
<circle cx="15" cy="15" r="14.5" stroke="#02E602"/>
</svg>
