<svg width="32" height="33" viewBox="0 0 32 33" fill="none" xmlns="http://www.w3.org/2000/svg">
<path d="M16 22C18.7614 22 21 19.7614 21 17C21 14.2386 18.7614 12 16 12C13.2386 12 11 14.2386 11 17C11 19.7614 13.2386 22 16 22Z" stroke="#02E602" stroke-width="2" stroke-miterlimit="10" stroke-linecap="round" stroke-linejoin="round"/>
<path d="M30.6649 9.78254L29.4176 7.71746C28.7291 6.57642 27.2037 6.18654 26.0101 6.84469L25.3541 7.20715C22.8596 8.58308 19.7415 6.86258 19.7415 4.10954V3.38462C19.7415 2.06712 18.6252 1 17.247 1H14.7525C13.3743 1 12.258 2.06712 12.258 3.38462V4.10954C12.258 6.86258 9.13986 8.58427 6.64537 7.20715L5.98931 6.84469C4.7957 6.18654 3.27031 6.57642 2.58183 7.71746L1.33459 9.78254C0.646106 10.9236 1.05396 12.3818 2.24757 13.0399L2.90362 13.4024C5.39812 14.7795 5.39812 18.2205 2.90362 19.5976L2.24757 19.9601C1.05396 20.6182 0.646106 22.0764 1.33459 23.2175L2.58183 25.2825C3.27031 26.4236 4.7957 26.8135 5.98931 26.1553L6.64537 25.7928C9.13986 24.4157 12.258 26.1374 12.258 28.8905V29.6154C12.258 30.9329 13.3743 32 14.7525 32H17.247C18.6252 32 19.7415 30.9329 19.7415 29.6154V28.8905C19.7415 26.1374 22.8596 24.4157 25.3541 25.7928L26.0101 26.1553C27.2037 26.8135 28.7291 26.4236 29.4176 25.2825L30.6649 23.2175C31.3533 22.0764 30.9455 20.6182 29.7519 19.9601L29.0958 19.5976C26.6013 18.2205 26.6013 14.7795 29.0958 13.4024L29.7519 13.0399C30.9455 12.3818 31.3546 10.9236 30.6649 9.78254Z" stroke="#02E602" stroke-width="2" stroke-miterlimit="10" stroke-linecap="round" stroke-linejoin="round"/>
</svg>
