<svg width="30" height="31" viewBox="0 0 30 31" fill="none" xmlns="http://www.w3.org/2000/svg">
<path d="M0.241641 31C0.0512583 30.7722 0 30.5141 0 30.218C0.00732242 20.4312 0.00732286 10.6443 0.00732286 0.857521C0.00732286 0.743633 8.93631e-07 0.629745 0.0146457 0.523449C0.0805475 0.05271 0.585793 -0.159882 0.951914 0.136228C1.03978 0.204561 1.11301 0.288079 1.18623 0.364005C10.6761 10.204 20.1659 20.0439 29.6558 29.8839C29.7876 30.0206 29.8828 30.18 29.9999 30.3319C29.9999 30.552 29.9999 30.7798 29.9999 31C20.0781 31 10.1635 31 0.241641 31ZM23.2194 24.9943C23.1754 25.0626 23.1169 25.1613 23.0436 25.2372C22.7215 25.5789 22.3993 25.913 22.0698 26.2471C21.9013 26.4217 21.667 26.5356 21.462 26.4065C21.2936 26.3078 21.1032 26.1028 21.0812 25.9282C21.0593 25.7384 21.1838 25.4802 21.3156 25.3208C21.667 24.9108 22.0698 24.5311 22.4139 24.1743C21.5792 23.2936 20.7591 22.4432 19.917 21.5549C19.7852 21.7067 19.646 21.8813 19.4923 22.0332C19.236 22.3065 18.9797 22.5874 18.7015 22.838C18.4525 23.0658 18.1157 23.043 17.9033 22.8228C17.691 22.6026 17.6763 22.261 17.8813 21.9952C17.9692 21.8889 18.0644 21.7902 18.1669 21.6915C18.4891 21.365 18.8186 21.031 19.1262 20.7197C18.2768 19.8313 17.464 18.9886 16.5926 18.0851C16.5194 18.1913 16.4535 18.3128 16.3583 18.4191C16.0434 18.7532 15.7286 19.0873 15.399 19.3986C15.1354 19.6491 14.8132 19.6263 14.5863 19.3834C14.3666 19.148 14.3593 18.8367 14.5789 18.5634C14.6741 18.4495 14.7766 18.3432 14.8792 18.2369C15.194 17.9104 15.5089 17.5915 15.7945 17.2954C14.9524 16.4147 14.1396 15.5719 13.2902 14.6988C13.1437 14.8658 12.9826 15.048 12.8069 15.2302C12.5506 15.496 12.3017 15.7693 12.0234 16.0047C11.8037 16.1945 11.5548 16.1869 11.3278 16.0047C11.1081 15.8301 11.0568 15.5795 11.1447 15.3289C11.196 15.1923 11.3058 15.0784 11.4083 14.9721C11.7671 14.5925 12.1406 14.2204 12.4701 13.8864C11.6207 13.0056 10.8079 12.1553 9.97313 11.2897C9.64362 11.6314 9.29947 12.0034 8.94799 12.3678C8.55991 12.7703 8.23772 12.8158 7.95947 12.5273C7.68854 12.2464 7.74712 11.8971 8.12056 11.5023C8.47936 11.1303 8.83084 10.7658 9.13838 10.4469C8.2963 9.57378 7.47619 8.73101 6.65608 7.87305C6.62679 7.90342 6.56821 7.95657 6.51695 8.00972C6.16547 8.37416 5.82132 8.7462 5.4552 9.09545C5.20624 9.33842 4.85476 9.31564 4.63509 9.08027C4.42274 8.86008 4.41542 8.51842 4.62777 8.25268C4.74493 8.10842 4.88405 7.97176 5.01586 7.84268C5.30143 7.54657 5.587 7.25046 5.83597 6.99231C4.26165 5.35991 2.72394 3.75788 1.18623 2.17103C1.18623 11.3732 1.18623 20.6058 1.18623 29.8459C10.1049 29.8459 19.0017 29.8459 27.8984 29.8459C26.3534 28.2363 24.8083 26.6343 23.2194 24.9943Z" fill="#02E602"/>
<path d="M30 20.7495C29.8383 21.3553 29.4414 21.7848 29.0225 22.2065C28.6476 22.5823 28.2875 22.9734 27.92 23.3568C27.0821 24.2157 26.0531 24.2157 25.2226 23.3491C19.7983 17.6821 14.3741 12.0228 8.94983 6.36348C8.80283 6.21011 8.68524 6.00306 8.61909 5.80368C8.09724 4.20098 7.5901 2.5906 7.0756 0.987887C6.9874 0.704153 6.93595 0.428088 7.15645 0.182698C7.39165 -0.0703618 7.6636 -0.0166816 7.95024 0.0830084C9.50108 0.619801 11.0519 1.15659 12.5954 1.70872C12.7718 1.77007 12.9482 1.8851 13.0805 2.02313C18.5194 7.68246 23.951 13.3495 29.3826 19.0165C29.6913 19.3385 29.8751 19.7143 30 20.1437C30 20.3431 30 20.5425 30 20.7495ZM10.5227 6.21011C14.4696 10.3357 18.4386 14.4691 22.3928 18.6024C23.2013 17.7588 24.0245 16.9 24.8183 16.0641C20.864 11.9385 16.8951 7.79748 12.9482 3.67952C12.1544 4.51538 11.3386 5.36658 10.5227 6.21011ZM27.3908 18.702C26.5676 19.5609 25.7444 20.4198 24.9139 21.2863C25.3108 21.7081 25.715 22.1452 26.1413 22.567C26.4206 22.843 26.7293 22.843 27.0012 22.5593C27.5525 22.0072 28.089 21.4397 28.6182 20.8722C28.8755 20.5885 28.8902 20.2741 28.6403 19.998C28.236 19.5456 27.8024 19.1161 27.3908 18.702ZM9.66277 5.19788C10.4492 4.38502 11.221 3.5875 12 2.78231C10.8608 2.38355 9.71422 1.98479 8.50149 1.57069C8.91308 2.83599 9.28793 4.03227 9.66277 5.19788ZM24.0245 20.3278C24.8551 19.4612 25.6782 18.6024 26.45 17.7972C26.2148 17.5288 25.9575 17.2374 25.737 16.992C24.9139 17.8508 24.0907 18.7097 23.2748 19.5609C23.5174 19.814 23.782 20.0824 24.0245 20.3278Z" fill="#02E602"/>
<path d="M5.00735 18.4859C5.00735 16.5942 5.00735 14.6952 5.00735 12.8035C5.00735 12.6931 5 12.5827 5.02207 12.4796C5.10298 12.0527 5.58109 11.8613 5.93416 12.1116C6.02979 12.1778 6.1107 12.2662 6.19161 12.3471C10.0165 16.1673 13.8341 19.9948 17.6517 23.8149C17.7326 23.8959 17.8209 23.9769 17.8871 24.0726C18.1371 24.4332 17.9533 24.8969 17.5193 24.9779C17.4016 25 17.2839 25 17.1662 25C13.3928 25 9.61197 25 5.83854 25C5.18389 25 5 24.816 5 24.1609C5.00736 22.2766 5.00735 20.3775 5.00735 18.4859ZM6.19897 23.8002C9.45751 23.8002 12.6866 23.8002 15.8643 23.8002C12.6425 20.5763 9.41337 17.345 6.19897 14.1284C6.19897 17.3155 6.19897 20.5468 6.19897 23.8002Z" fill="#02E602"/>
<path d="M20 12.2847C19.992 12.8434 19.5027 13.143 19.0856 12.9324C19.0374 12.9082 18.9893 12.8839 18.9492 12.8434C18.0267 11.9123 17.0882 10.9973 16.1818 10.05C15.8208 9.66948 16.0294 9.07842 16.5267 9.00555C16.6951 8.98126 16.9358 9.03794 17.0561 9.15129C18.0027 10.0743 18.9251 11.0135 19.8476 11.9608C19.9439 12.058 19.9679 12.2199 20 12.2847Z" fill="#02E602"/>
</svg>
