<svg width="16" height="16" viewBox="0 0 16 16" fill="none" xmlns="http://www.w3.org/2000/svg">
<path d="M13.1671 5.13452L7.99947 9.91646L2.83187 5.13452C2.73954 5.04891 2.6156 5.00098 2.48653 5.00098C2.35747 5.00098 2.23353 5.04891 2.1412 5.13452C2.0965 5.1761 2.06098 5.22573 2.03673 5.28051C2.01249 5.33528 2 5.3941 2 5.45351C2 5.51293 2.01249 5.57174 2.03673 5.62652C2.06098 5.68129 2.0965 5.73092 2.1412 5.7725L7.63863 10.8607C7.73517 10.95 7.86465 11 7.99947 11C8.13429 11 8.26377 10.95 8.36031 10.8607L13.8577 5.77349C13.9028 5.73187 13.9385 5.68212 13.963 5.62716C13.9874 5.57221 14 5.51316 14 5.45351C14 5.39386 13.9874 5.33481 13.963 5.27986C13.9385 5.2249 13.9028 5.17515 13.8577 5.13354C13.7654 5.04793 13.6415 5 13.5124 5C13.3833 5 13.2594 5.04793 13.1671 5.13354V5.13452Z" fill="white"/>
</svg>
