<svg width="40" height="40" viewBox="0 0 40 40" fill="none" xmlns="http://www.w3.org/2000/svg">
<path d="M11.8141 20.873C11.8141 21.1746 11.8141 21.4603 11.8141 21.7619C11.8141 27.3175 11.8141 32.873 11.8141 38.4286C11.8141 38.5714 11.8141 38.6984 11.8141 38.8413C11.8141 39.6032 11.5325 40 11.0164 40C10.5002 40 10.2186 39.6032 10.2186 38.8413C10.2186 33.0635 10.2186 27.3016 10.2186 21.5238C10.2186 21.3175 10.2186 21.0952 10.2186 20.8889C10.1874 20.873 10.1561 20.873 10.1091 20.8571C10.0153 21.0635 9.90581 21.254 9.81196 21.4603C7.10595 27.3333 4.39995 33.1905 1.70958 39.0635C1.61574 39.2857 1.53753 39.5714 1.38111 39.6667C1.1152 39.8254 0.739803 39.9524 0.458253 39.8889C0.0672119 39.7937 -0.0735649 39.3968 0.0359267 38.9683C0.0828516 38.7778 0.192343 38.6032 0.270551 38.4286C3.35196 31.746 6.41772 25.0794 9.49912 18.3968C9.59297 18.2063 9.65554 18.0159 9.78068 17.746C8.52935 17.746 7.35622 17.746 6.1831 17.746C5.33845 17.746 5.10382 17.5079 5.08818 16.6508C5.08818 15.8413 5.08818 15.0317 5.08818 14.1429C4.43123 14.1429 3.83685 14.1429 3.24246 14.1429C1.55317 14.127 0.583383 13.1429 0.567742 11.4444C0.567742 8.52381 0.567742 5.61905 0.567742 2.69841C0.567742 1 1.55317 0 3.22682 0C8.40421 0 13.5816 0 18.7746 0C20.5421 0 21.4963 0.968252 21.5119 2.74603C21.5119 3.03174 21.5119 3.33334 21.5119 3.68254C22.3722 3.68254 23.1699 3.68254 23.9677 3.68254C24.7654 3.68254 25 3.93651 25 4.7619C25 6.30159 25 7.85715 25 9.39683C25 10.1905 24.7341 10.4444 23.9364 10.4603C23.1543 10.4603 22.3722 10.4603 21.5119 10.4603C21.5119 10.873 21.5276 11.2381 21.5119 11.6032C21.4806 13.0952 20.4952 14.0952 19.0405 14.1429C18.3992 14.1587 17.7579 14.1429 17.0071 14.1429C17.0071 14.9524 17.0071 15.7302 17.0071 16.5238C17.0071 17.5238 16.7881 17.746 15.8027 17.746C14.6765 17.746 13.5347 17.746 12.299 17.746C12.4241 18.0317 12.518 18.254 12.6118 18.4762C15.6776 25.1111 18.7277 31.7619 21.7935 38.3968C22.1845 39.2381 22.1219 39.6825 21.5901 39.9206C21.1052 40.1429 20.7298 39.8889 20.3544 39.0794C17.6328 33.1746 14.9111 27.2698 12.1895 21.3651C12.1113 21.1905 12.0174 21.0159 11.9392 20.8413C11.8767 20.8571 11.8454 20.8571 11.8141 20.873ZM11.0007 12.5238C13.5816 12.5238 16.1625 12.5238 18.7433 12.5238C19.6662 12.5238 19.9165 12.2698 19.9321 11.3333C19.9321 8.49206 19.9321 5.66667 19.9321 2.82539C19.9321 1.88889 19.6662 1.60318 18.759 1.60318C13.5972 1.60318 8.4355 1.60318 3.28939 1.60318C2.41346 1.60318 2.13191 1.88889 2.13191 2.77778C2.13191 5.63492 2.13191 8.49206 2.13191 11.3492C2.13191 12.2381 2.41346 12.5238 3.28939 12.5238C5.83898 12.5238 8.41985 12.5238 11.0007 12.5238ZM6.66798 16.127C9.59297 16.127 12.4554 16.127 15.3335 16.127C15.3335 15.4603 15.3335 14.8413 15.3335 14.1905C12.4241 14.1905 9.56169 14.1905 6.66798 14.1905C6.66798 14.8413 6.66798 15.4603 6.66798 16.127ZM23.3889 5.28571C22.8258 5.28571 22.2784 5.26984 21.7465 5.30159C21.6527 5.30159 21.4963 5.46032 21.4963 5.53968C21.4806 6.61905 21.4806 7.69841 21.4806 8.80952C22.1532 8.80952 22.7476 8.80952 23.3733 8.80952C23.3889 7.63492 23.3889 6.49206 23.3889 5.28571Z" fill="#02E602"/>
<path d="M29 19.9921C29 13.7247 29 7.45736 29 1.19C29 0.222134 29.2181 0 30.153 0C33.051 0 35.949 0 38.8626 0C39.7663 0 40 0.238 40 1.17414C40 13.7247 40 26.2753 40 38.8259C40 39.7461 39.7663 39.9841 38.8626 40C35.949 40 33.0198 40 30.1062 40C29.2493 40 29.0156 39.7461 29.0156 38.8576C29 32.5585 29 26.2753 29 19.9921ZM30.5892 35.0972C30.5892 36.2237 30.5892 37.2709 30.5892 38.3499C33.1912 38.3499 35.7776 38.3499 38.3796 38.3499C38.3796 26.1008 38.3796 13.8834 38.3796 1.65014C35.762 1.65014 33.1756 1.65014 30.5892 1.65014C30.5892 2.74494 30.5892 3.79215 30.5892 4.90282C31.2436 4.90282 31.8513 4.90282 32.4745 4.90282C33.1289 4.90282 33.4717 5.20429 33.4561 5.72789C33.4405 6.21976 33.1133 6.50536 32.4901 6.50536C31.8669 6.52122 31.2592 6.50536 30.6048 6.50536C30.6048 7.58429 30.6048 8.59976 30.6048 9.64696C31.0567 9.64696 31.4618 9.6311 31.8669 9.64696C32.4589 9.66283 32.8173 9.98017 32.8017 10.472C32.7861 10.9322 32.4589 11.2336 31.8824 11.2654C31.4618 11.2812 31.0411 11.2654 30.5892 11.2654C30.5892 12.3443 30.5892 13.3598 30.5892 14.407C31.306 14.407 31.9603 14.3911 32.6147 14.407C33.0198 14.4228 33.3938 14.6132 33.3938 15.0416C33.3938 15.3273 33.2068 15.6605 33.0198 15.8826C32.8952 16.0254 32.5836 16.0095 32.3499 16.0095C31.7578 16.0254 31.1657 16.0095 30.5737 16.0095C30.5737 17.1202 30.5737 18.1198 30.5737 19.1511C31.0099 19.1511 31.3994 19.1511 31.789 19.1511C32.4433 19.167 32.8017 19.4685 32.7861 19.9762C32.7705 20.4839 32.4122 20.7695 31.7578 20.7695C31.3683 20.7695 30.9943 20.7695 30.5737 20.7695C30.5737 21.8485 30.5737 22.8639 30.5737 23.9111C31.2592 23.9111 31.898 23.8953 32.5368 23.9111C33.1445 23.927 33.5028 24.3237 33.4093 24.8473C33.3159 25.3391 32.9731 25.5137 32.5212 25.5296C31.8669 25.5296 31.2125 25.5296 30.5737 25.5296C30.5737 26.6244 30.5737 27.624 30.5737 28.6712C31.0255 28.6712 31.4306 28.6553 31.8357 28.6712C32.4433 28.687 32.7861 29.0044 32.7861 29.4804C32.7861 29.9722 32.4278 30.2737 31.8201 30.2737C31.3994 30.2896 30.9788 30.2737 30.5737 30.2737C30.5737 31.3685 30.5737 32.3681 30.5737 33.4153C31.2436 33.4153 31.8669 33.3994 32.4745 33.4153C33.0977 33.4312 33.4249 33.7168 33.4249 34.2245C33.4249 34.7323 33.0822 35.0179 32.4745 35.0179C31.8824 35.0972 31.2592 35.0972 30.5892 35.0972Z" fill="#02E602"/>
<path d="M7 6.48505C7 4.56381 8.56714 3 10.4925 3C12.4328 3 14.0148 4.5787 13.9999 6.51484C13.985 8.43609 12.4328 9.9999 10.5074 9.9999C8.58207 10.0148 7 8.43609 7 6.48505ZM10.5223 8.49566C11.6268 8.49566 12.5074 7.60206 12.5074 6.49995C12.5074 5.41273 11.6119 4.51913 10.5223 4.50423C9.41788 4.48934 8.47759 5.42763 8.50744 6.52974C8.50744 7.63185 9.41788 8.49566 10.5223 8.49566Z" fill="#02E602"/>
</svg>
