<svg width="40" height="40" viewBox="0 0 40 40" fill="none" xmlns="http://www.w3.org/2000/svg">
<path d="M11.3884 0C12.0647 0.19793 12.7411 0.416692 13.4293 0.604205C19.1606 2.14597 24.9037 3.67732 30.6349 5.20867C30.8723 5.27118 31.1333 5.30243 31.3706 5.30243C32.8776 5.31284 34.3965 5.29201 35.9034 5.31285C36.9595 5.32326 37.8494 6.04206 37.98 6.93795C38.1224 7.87551 37.4935 8.78182 36.473 9.03184C36.0696 9.12559 35.6186 9.10476 35.1915 9.13601C35.0609 9.14643 34.9304 9.14643 34.7643 9.15684C34.7643 9.32352 34.7643 9.45895 34.7643 9.60479C34.7643 10.8965 34.7643 12.1779 34.7643 13.4696C34.7643 13.9697 34.5744 14.1468 34.0286 14.2301C33.5065 14.303 33.1743 14.6364 33.2099 15.0531C33.2455 15.4385 33.6133 15.7614 34.0523 15.7823C34.5151 15.8031 34.883 15.5114 34.966 15.0426C35.0491 14.6155 35.322 14.3864 35.7136 14.4176C36.117 14.4593 36.3306 14.7301 36.295 15.1572C36.2357 16.0635 35.4051 16.8136 34.3134 16.9386C33.3167 17.0532 32.2962 16.4698 31.9758 15.5948C31.6435 14.7093 32.0707 13.7196 33.02 13.3029C33.3641 13.1467 33.4353 12.98 33.4234 12.6779C33.4116 11.5216 33.4116 10.3653 33.4116 9.14643C33.2099 9.14643 33.0437 9.14643 32.8657 9.14643C30.362 9.14643 27.8583 9.14643 25.3427 9.14643C25.1647 9.14643 24.9867 9.14643 24.8206 9.09434C24.5002 9.00058 24.346 8.78182 24.3816 8.49014C24.4172 8.19845 24.6189 8.02136 24.963 7.97969C25.1054 7.96927 25.2597 7.96927 25.4021 7.96927C28.7483 7.96927 32.1063 7.96927 35.4525 7.96927C35.6424 7.96927 35.8441 7.95885 36.0221 7.91718C36.4255 7.81301 36.651 7.51091 36.6154 7.1463C36.5798 6.79211 36.2713 6.53167 35.8678 6.49C35.7492 6.47959 35.6305 6.47959 35.5118 6.47959C28.855 6.47959 22.1982 6.47959 15.5296 6.47959C15.3872 6.47959 15.2448 6.47959 15.0431 6.47959C15.138 7.00046 15.2329 7.46924 15.3279 7.96927C15.5177 7.96927 15.672 7.96927 15.8381 7.96927C17.796 7.96927 19.7539 7.96927 21.7117 7.96927C22.2813 7.96927 22.5661 8.17762 22.5661 8.55264C22.5542 8.92766 22.2576 9.13601 21.6999 9.13601C19.8488 9.13601 17.9977 9.13601 16.1347 9.13601C15.9686 9.13601 15.8144 9.13601 15.7432 9.13601C15.6126 9.57354 15.6126 10.0527 15.3397 10.3028C15.0668 10.5632 14.521 10.6049 14.0226 10.7611C14.0226 19.095 14.0226 27.5226 14.0226 36.0232C14.3311 36.0232 14.6515 36.0232 14.9719 36.0232C15.4346 36.0232 15.7313 36.2211 15.8618 36.5961C16.1466 37.3878 16.4195 38.19 16.6806 38.9817C16.8704 39.5651 16.4907 39.9922 15.7906 39.9922C12.6343 40.0026 9.47794 40.0026 6.30972 39.9922C5.57404 39.9922 5.20619 39.5442 5.40791 38.9192C5.6571 38.1691 5.91815 37.4295 6.1792 36.6795C6.35719 36.1794 6.60638 36.0128 7.2234 36.0128C7.49632 36.0128 7.7811 36.0128 8.07775 36.0128C8.07775 27.533 8.07775 19.1054 8.07775 10.7507C7.60311 10.5944 7.06915 10.5528 6.78436 10.2923C6.51145 10.0527 6.51145 9.58395 6.36905 9.14643C5.56217 9.14643 4.60103 9.14643 3.61615 9.14643C3.61615 9.82355 3.61615 10.4798 3.61615 11.2091C3.96026 11.2091 4.31624 11.2091 4.66036 11.2091C5.45538 11.2195 5.85882 11.5633 5.87068 12.2716C5.88255 12.855 5.88255 13.4488 5.87068 14.0322C5.85882 14.7405 5.46724 15.0947 4.66036 15.1051C3.50936 15.1156 2.34649 15.1156 1.1955 15.1051C0.38861 15.0947 0.0207654 14.751 0.00889947 14.0322C0.00889947 13.4384 -0.00296649 12.8342 0.00889947 12.2404C0.0207654 11.5737 0.400478 11.2403 1.1599 11.2195C1.51588 11.2091 1.85999 11.2195 2.2397 11.2195C2.2397 10.5111 2.2397 9.84439 2.2397 9.13601C1.84813 9.13601 1.46841 9.14643 1.0887 9.13601C0.388611 9.12559 0.0207654 8.80266 0.00889947 8.19845C-0.00296649 7.55258 -0.00296649 6.89628 0.00889947 6.25041C0.0207654 5.6462 0.36488 5.29201 1.04124 5.32326C1.69387 5.36493 2.19224 5.15659 2.71434 4.84406C5.38418 3.23979 8.06588 1.65636 10.7357 0.0729227C10.7595 0.0625053 10.7713 0.0312527 10.7832 0.010418C11.0324 6.35669e-07 11.2104 0 11.3884 0ZM14.8532 5.28159C18.6266 5.28159 22.3644 5.28159 26.0903 5.28159C26.1021 5.26076 26.1021 5.23992 26.114 5.21909C21.3439 3.93776 16.5738 2.66684 11.7918 1.38551C11.7918 2.20848 11.7918 2.98978 11.7918 3.80233C12.3851 3.80233 12.9428 3.79191 13.5005 3.80233C14.2599 3.81275 14.604 4.06276 14.7464 4.72947C14.782 4.89615 14.8176 5.07325 14.8532 5.28159ZM14.3074 9.43811C14.0345 8.02136 13.7615 6.63585 13.5005 5.26076C13.4649 5.04199 13.3581 4.95866 13.0971 4.95866C11.7799 4.96907 10.4628 4.96907 9.14569 4.95866C8.84904 4.95866 8.76598 5.06283 8.73038 5.29201C8.65918 5.69829 8.57612 6.11498 8.49306 6.52126C8.3032 7.49007 8.11335 8.45888 7.9235 9.43811C10.0594 9.43811 12.1596 9.43811 14.3074 9.43811ZM6.90302 38.815C9.71525 38.815 12.48 38.815 15.2804 38.815C15.0905 38.2629 14.9007 37.7316 14.7227 37.2003C12.2902 37.2003 9.89325 37.2003 7.46072 37.2003C7.27087 37.7316 7.09288 38.2629 6.90302 38.815ZM1.40908 7.93802C3.26017 7.93802 5.05193 7.93802 6.85556 7.93802C6.95049 7.4484 7.04541 6.97962 7.12848 6.50042C5.19432 6.50042 3.3195 6.50042 1.42095 6.50042C1.40908 6.62543 1.40908 6.7296 1.40908 6.82336C1.40908 7.17755 1.40908 7.54216 1.40908 7.93802ZM7.36579 5.28159C7.40139 5.11492 7.43699 4.96907 7.47259 4.81281C7.61498 4.03151 7.93536 3.79191 8.83717 3.79191C9.34741 3.79191 9.86951 3.79191 10.3797 3.79191C10.3797 3.08353 10.3797 2.41682 10.3797 1.71886C8.38627 2.90644 6.44025 4.06276 4.5061 5.21909C4.51796 5.23992 4.5417 5.26076 4.55356 5.28159C5.47911 5.28159 6.40465 5.28159 7.36579 5.28159ZM1.42095 13.9384C2.2397 13.9384 2.99912 13.9384 3.77041 13.9384C4.58916 13.9384 4.58916 13.9384 4.58916 13.2196C4.58916 12.3862 4.58916 12.3862 3.62802 12.3862C2.89233 12.3862 2.15664 12.3862 1.40908 12.3862C1.42095 12.9279 1.42095 13.4071 1.42095 13.9384ZM12.6817 10.6569C11.8867 10.6569 11.1154 10.6569 10.2848 10.6569C11.0917 11.4382 11.8511 12.1779 12.6817 12.98C12.6817 12.157 12.6817 11.4174 12.6817 10.6569ZM10.3442 32.7938C11.1392 33.5647 11.8749 34.2731 12.6817 35.0544C12.6817 34.2314 12.6817 33.523 12.6817 32.7938C11.9223 32.7938 11.1748 32.7938 10.3442 32.7938ZM10.3442 15.1468C11.1392 15.9073 11.8749 16.6261 12.6817 17.4074C12.6817 16.5844 12.6817 15.876 12.6817 15.1468C11.9223 15.1468 11.1748 15.1468 10.3442 15.1468ZM10.3442 23.9703C11.1392 24.7412 11.8749 25.46 12.6817 26.2309C12.6817 25.4079 12.6817 24.6995 12.6817 23.9703C11.9223 23.9703 11.1866 23.9703 10.3442 23.9703ZM10.3442 28.3768C11.151 29.1581 11.8867 29.8665 12.6699 30.6374C12.6699 29.8249 12.6699 29.1061 12.6699 28.3768C11.9105 28.3768 11.1748 28.3768 10.3442 28.3768ZM12.6699 21.8139C12.6699 21.0014 12.6699 20.2826 12.6699 19.5638C11.8986 19.5638 11.1629 19.5638 10.356 19.5638C11.1392 20.3242 11.8749 21.0326 12.6699 21.8139ZM11.8393 18.3345C11.0442 17.5636 10.3086 16.8553 9.51353 16.074C9.51353 16.8865 9.51353 17.5949 9.51353 18.3345C10.273 18.3345 11.0086 18.3345 11.8393 18.3345ZM11.8393 27.1684C11.0442 26.3975 10.3086 25.6892 9.51353 24.9079C9.51353 25.7204 9.51353 26.4288 9.51353 27.1684C10.273 27.1684 11.0086 27.1684 11.8393 27.1684ZM9.51353 35.9919C10.2848 35.9919 11.0205 35.9919 11.8274 35.9919C11.0442 35.2315 10.3086 34.5231 9.51353 33.7418C9.51353 34.5439 9.51353 35.2523 9.51353 35.9919ZM9.51353 13.9072C10.2848 13.9072 11.0086 13.9072 11.8155 13.9072C11.0324 13.1467 10.3086 12.4383 9.51353 11.6674C9.51353 12.4696 9.51353 13.1779 9.51353 13.9072ZM11.8393 22.7515C11.0324 21.9702 10.3086 21.2618 9.5254 20.5013C9.5254 21.3035 9.5254 22.0223 9.5254 22.7515C10.273 22.7515 10.9968 22.7515 11.8393 22.7515ZM11.8274 31.575C11.0205 30.7937 10.2967 30.0957 9.5254 29.3457C9.5254 30.1478 9.5254 30.8666 9.5254 31.575C10.2848 31.575 10.9968 31.575 11.8274 31.575Z" fill="#02E602"/>
<path d="M36.319 20.8075C36.319 20.536 36.319 20.2957 36.319 20.0659C36.319 19.3765 36.5121 19.105 36.9828 19.0945C37.4655 19.0945 37.6707 19.3765 37.6707 20.045C37.6707 21.7372 37.6707 23.4397 37.6707 25.1318C37.6707 25.3825 37.7069 25.5601 37.9965 25.7063C38.3828 25.9152 38.431 26.2704 38.431 26.6464C38.431 30.532 38.431 34.4281 38.431 38.3137C38.431 38.4704 38.431 38.627 38.431 38.8255C38.7328 38.8255 38.9983 38.815 39.2638 38.8255C39.7224 38.8359 40 39.0762 40 39.4209C39.9879 39.7551 39.7224 39.9745 39.2879 39.9954C39.1672 40.0058 39.0465 39.9954 38.9259 39.9954C32.6379 39.9954 26.35 39.9954 20.0621 39.9954C19.9293 39.9954 19.7845 40.0058 19.6517 39.9954C19.2655 39.964 19 39.7133 19 39.4104C19 39.1075 19.2776 38.8568 19.6638 38.8359C19.9534 38.8255 20.231 38.8359 20.581 38.8359C20.581 38.6584 20.581 38.5017 20.581 38.3555C20.581 36.4335 20.581 34.5221 20.581 32.6002C20.581 32.4539 20.581 32.3077 20.6052 32.1719C20.6776 31.8794 20.919 31.681 21.2448 31.7332C21.4862 31.775 21.7155 31.963 21.8845 32.1301C21.981 32.2346 21.9448 32.433 21.9448 32.5897C21.9448 34.4907 21.9448 36.4022 21.9448 38.3032C21.9448 38.4599 21.9448 38.6166 21.9448 38.8046C23.5017 38.8046 25.0224 38.8046 26.6034 38.8046C26.6034 38.6688 26.6034 38.533 26.6034 38.3868C26.6034 37.1856 26.6034 35.9844 26.6034 34.7832C26.6034 34.1983 26.9293 33.9163 27.6052 33.9163C28.8603 33.9058 30.1034 33.9058 31.3586 33.9163C32.0828 33.9163 32.3845 34.1983 32.3845 34.8354C32.3845 36.0053 32.3845 37.1856 32.3845 38.3555C32.3845 38.5017 32.3845 38.6375 32.3845 38.8046C33.9534 38.8046 35.4741 38.8046 37.0431 38.8046C37.0431 34.7832 37.0431 30.7514 37.0431 26.6777C36.8741 26.6777 36.7172 26.6777 36.5483 26.6777C35.0155 26.6777 33.4707 26.6777 31.9379 26.6777C31.069 26.6777 30.731 26.3853 30.719 25.6332C30.719 25.393 30.719 25.1423 30.719 24.8812C27.7741 24.8812 24.8776 24.8812 21.9328 24.8812C21.9328 25.0587 21.9328 25.205 21.9328 25.3616C21.9328 26.6568 21.9328 27.9416 21.9328 29.2368C21.9328 29.3935 21.9328 29.5502 21.8845 29.7068C21.8 29.9993 21.5345 30.1769 21.2086 30.1038C20.9793 30.0515 20.7741 29.8426 20.6052 29.6651C20.5328 29.5815 20.569 29.4144 20.569 29.2786C20.569 27.8058 20.569 26.333 20.569 24.8498C20.569 24.4007 20.6655 24.0351 21.1362 23.774C21.2448 23.7113 21.281 23.5128 21.281 23.3666C21.2931 20.9015 21.2931 18.4365 21.2931 15.961C21.2931 15.8356 21.2931 15.6998 21.3052 15.5745C21.3414 15.2193 21.6069 15.0104 21.969 15C22.331 15 22.5966 15.2193 22.6448 15.564C22.669 15.7312 22.6448 15.8983 22.6448 16.0967C24.6966 16.0967 26.7121 16.0967 28.7879 16.0967C28.8 15.9505 28.8 15.7938 28.8121 15.6476C28.8362 15.2402 29.0776 15 29.4759 15C29.8741 15 30.1517 15.2402 30.1517 15.6372C30.1638 16.5146 30.1517 17.3815 30.1638 18.2589C30.1638 19.0945 30.1638 19.9197 30.1638 20.7762C32.2276 20.8075 34.2431 20.8075 36.319 20.8075ZM22.681 17.3606C22.681 18.52 22.681 19.6586 22.681 20.818C24.7328 20.818 26.7362 20.818 28.7759 20.818C28.7759 19.6586 28.7759 18.52 28.7759 17.3606C26.7241 17.3606 24.7086 17.3606 22.681 17.3606ZM36.2828 22.0401C34.231 22.0401 32.2155 22.0401 30.1879 22.0401C30.1879 22.6041 30.1879 23.1264 30.1879 23.68C30.7552 23.7635 31.4672 23.5442 31.781 24.056C32.0345 24.4738 32.0586 24.9856 32.1914 25.487C33.5069 25.487 34.8948 25.487 36.2828 25.487C36.2828 24.3171 36.2828 23.1786 36.2828 22.0401ZM30.9965 38.8255C30.9965 37.5721 30.9965 36.3604 30.9965 35.1279C29.9707 35.1279 28.969 35.1279 27.9672 35.1279C27.9672 36.3709 27.9672 37.593 27.9672 38.8255C28.981 38.8255 29.9586 38.8255 30.9965 38.8255ZM28.7759 22.0296C26.7362 22.0296 24.7207 22.0296 22.681 22.0296C22.681 22.5937 22.681 23.1264 22.681 23.68C24.7207 23.68 26.7362 23.68 28.7759 23.68C28.7759 23.1159 28.7759 22.5728 28.7759 22.0296Z" fill="#02E602"/>
<path d="M24.0057 29.9471C24.0057 29.5649 23.9928 29.1724 24.0057 28.7902C24.0316 28.315 24.3417 28.0258 24.9361 28.0155C25.9828 27.9948 27.0294 27.9948 28.0761 28.0155C28.6447 28.0258 28.9677 28.3047 28.9806 28.7695C29.0065 29.5959 29.0065 30.4222 28.9806 31.2485C28.9677 31.7134 28.6059 31.9819 28.0115 31.9923C27.0165 32.0026 26.0086 32.0026 25.0136 31.9923C24.3805 31.9819 24.0316 31.6927 24.0057 31.1866C24.0057 31.1659 24.0057 31.1349 24.0057 31.1143C24.0057 30.7218 24.0057 30.3396 24.0057 29.9471ZM27.4946 30.8147C27.4946 30.2569 27.4946 29.7301 27.4946 29.2034C26.7968 29.2034 26.1378 29.2034 25.4917 29.2034C25.4917 29.7611 25.4917 30.2776 25.4917 30.8147C26.1766 30.8147 26.8098 30.8147 27.4946 30.8147Z" fill="#02E602"/>
<path d="M35.9943 29.9966C35.9943 30.399 36.0072 30.7911 35.9943 31.1936C35.9813 31.6682 35.6321 31.9778 35.0243 31.9881C34.0025 32.0087 32.9937 31.9984 31.972 31.9881C31.39 31.9778 31.0279 31.6992 31.0149 31.2348C30.9891 30.4094 31.002 29.5839 31.0149 28.7584C31.0279 28.3044 31.3383 28.0258 31.9203 28.0155C32.9679 27.9948 34.0155 27.9948 35.0631 28.0155C35.6451 28.0258 35.9684 28.325 35.9813 28.7997C36.0072 29.1918 35.9943 29.5942 35.9943 29.9966ZM32.5023 29.1918C32.5023 29.749 32.5023 30.2649 32.5023 30.8015C33.2007 30.8015 33.8603 30.8015 34.5069 30.8015C34.5069 30.2443 34.5069 29.7283 34.5069 29.1918C33.8344 29.1918 33.2007 29.1918 32.5023 29.1918Z" fill="#02E602"/>
</svg>
