<svg width="40" height="40" viewBox="0 0 40 40" fill="none" xmlns="http://www.w3.org/2000/svg">
<path d="M40 39.5208C39.7917 39.8854 39.4688 40 39.0521 40C26.3442 39.9896 13.6362 39.9896 0.928267 39.9896C0.813687 39.9896 0.688691 39.9896 0.574112 39.9792C0.230372 39.9167 -0.0196205 39.625 0.00121216 39.3021C0.0116285 38.9896 0.261622 38.7188 0.594945 38.6771C0.719942 38.6563 0.855352 38.6667 0.980349 38.6667C2.70946 38.6667 4.43858 38.6667 6.17811 38.6667C6.31352 38.6667 6.45935 38.6667 6.65726 38.6667C6.65726 38.4583 6.65726 38.2813 6.65726 38.1042C6.65726 25.75 6.65726 13.3958 6.65726 1.04167C6.65726 0.614583 6.71976 0.25 7.11558 0C13.0321 0 18.9381 0 24.8546 0C25.2504 0.1875 25.3442 0.510416 25.3442 0.927083C25.3338 5.78125 25.3338 10.6354 25.3338 15.5C25.3338 15.6562 25.3338 15.8021 25.3338 16.0104C25.5213 16.0104 25.6775 16.0104 25.8338 16.0104C28.667 16.0104 31.5107 16.0104 34.3439 16.0104C35.1564 16.0104 35.3335 16.1875 35.3335 16.9896C35.3335 24.0313 35.3335 31.0729 35.3335 38.125C35.3335 38.2917 35.3335 38.4583 35.3335 38.6771C35.6147 38.6771 35.8543 38.6771 36.0939 38.6771C37.0834 38.6771 38.073 38.6875 39.0625 38.6667C39.4792 38.6562 39.8021 38.7708 40 39.1458C40 39.2604 40 39.3958 40 39.5208ZM23.9588 16C23.9588 11.0833 23.9588 6.21875 23.9588 1.34375C18.6361 1.34375 13.3341 1.34375 8.0218 1.34375C8.0218 13.7917 8.0218 26.2083 8.0218 38.6354C8.68845 38.6354 9.33426 38.6354 10.0009 38.6354C10.0009 38.4688 10.0009 38.3229 10.0009 38.1771C10.0009 36.3646 9.99049 34.5625 10.0009 32.75C10.0113 31.5521 10.7821 30.7396 11.98 30.6667C12.355 30.6458 12.73 30.6563 13.1154 30.6563C14.5424 30.6667 15.3341 31.4583 15.3341 32.8854C15.3341 34.6562 15.3341 36.4271 15.3341 38.1979C15.3341 38.3333 15.3341 38.4792 15.3341 38.625C15.8028 38.625 16.2195 38.625 16.6674 38.625C16.6674 38.4271 16.6674 38.2604 16.6674 38.0938C16.6674 31.0521 16.6674 24.0104 16.6674 16.9583C16.6674 16.1875 16.8653 15.9896 17.6361 15.9896C19.6048 15.9896 21.5631 15.9896 23.5318 15.9896C23.6672 16 23.813 16 23.9588 16ZM33.9794 17.3542C28.6358 17.3542 23.3338 17.3542 18.0215 17.3542C18.0215 24.4583 18.0215 31.5417 18.0215 38.6354C23.3443 38.6354 28.6566 38.6354 33.9794 38.6354C33.9794 31.5417 33.9794 24.4583 33.9794 17.3542ZM13.9487 38.6354C13.9695 38.5938 13.9904 38.5729 13.9904 38.5521C13.9904 36.5833 14.0008 34.625 13.9904 32.6562C13.9904 32.25 13.7404 32.0208 13.3237 32C12.9696 31.9792 12.6258 31.9896 12.2717 31.9896C11.5529 31.9896 11.3446 32.2083 11.3446 32.9167C11.3446 34.6979 11.3446 36.4792 11.3446 38.2604C11.3446 38.3854 11.3446 38.5104 11.3446 38.6354C12.2404 38.6354 13.0946 38.6354 13.9487 38.6354Z" fill="#02E602"/>
<path d="M19.4854 14C18.9412 14 18.397 14 17.8431 14C17.2502 14 17.017 13.7757 17.0073 13.1906C16.9976 12.0595 16.9976 10.9283 17.0073 9.79717C17.0073 9.23159 17.2405 9.00731 17.8139 9.00731C18.9412 8.99756 20.0685 8.99756 21.1958 9.00731C21.7595 9.00731 21.983 9.24134 21.9927 9.80692C22.0024 10.9381 22.0024 12.0692 21.9927 13.2004C21.9927 13.766 21.7595 13.9902 21.1861 14C20.6224 14 20.0491 14 19.4854 14ZM18.2804 10.275C18.2804 11.1039 18.2804 11.9035 18.2804 12.7226C19.1064 12.7226 19.913 12.7226 20.7293 12.7226C20.7293 11.8937 20.7293 11.1039 20.7293 10.275C19.9033 10.275 19.1064 10.275 18.2804 10.275Z" fill="#02E602"/>
<path d="M10.0043 11.5158C10.0043 10.9227 9.99458 10.3296 10.0043 9.73651C10.0141 9.25036 10.2289 9.00729 10.717 9.00729C11.9079 8.99757 13.1086 8.99757 14.2996 9.00729C14.7682 9.01702 14.9927 9.25036 14.9927 9.71706C15.0024 10.9033 15.0024 12.0992 14.9927 13.2854C14.9927 13.7229 14.7682 13.9757 14.3191 13.9854C13.0989 14.0049 11.8786 14.0049 10.6681 13.9854C10.2289 13.9757 10.0141 13.7229 10.0043 13.2756C9.99458 12.6825 10.0043 12.0992 10.0043 11.5158ZM13.7334 10.2615C12.8939 10.2615 12.0934 10.2615 11.2734 10.2615C11.2734 11.088 11.2734 11.895 11.2734 12.7117C12.1032 12.7117 12.9134 12.7117 13.7334 12.7117C13.7334 11.8853 13.7334 11.088 13.7334 10.2615Z" fill="#02E602"/>
<path d="M19.4854 7.99025C18.9023 7.99025 18.3192 8 17.7362 7.99025C17.2502 7.9805 17.0073 7.76597 17.0073 7.2784C16.9976 6.09849 16.9976 4.91858 17.0073 3.73866C17.017 3.24135 17.26 3.00731 17.7653 3.00731C18.9218 2.99756 20.0685 2.99756 21.225 3.00731C21.7498 3.00731 21.983 3.24134 21.9927 3.76792C22.0024 4.92833 22.0024 6.07899 21.9927 7.2394C21.9927 7.78547 21.7595 8 21.2055 8C20.6225 7.99025 20.0491 7.99025 19.4854 7.99025ZM20.7196 4.26524C19.8936 4.26524 19.087 4.26524 18.2804 4.26524C18.2804 5.0941 18.2804 5.90346 18.2804 6.71282C19.1064 6.71282 19.9033 6.71282 20.7196 6.71282C20.7196 5.88396 20.7196 5.0746 20.7196 4.26524Z" fill="#02E602"/>
<path d="M12.5293 16.0024C13.1061 16.0024 13.673 16.0024 14.2498 16.0024C14.7678 16.0024 14.9927 16.2271 14.9927 16.7349C15.0024 17.9165 15.0024 19.0981 14.9927 20.2798C14.9927 20.7681 14.7581 20.9927 14.2693 20.9927C13.0865 21.0024 11.9037 21.0024 10.7209 20.9927C10.2419 20.9927 10.0073 20.7485 10.0073 20.2603C9.99756 19.0884 9.99756 17.9165 10.0073 16.7544C10.0073 16.2466 10.2322 16.0122 10.7405 16.0122C11.327 15.9927 11.933 16.0024 12.5293 16.0024ZM13.7121 19.7231C13.7121 18.8833 13.7121 18.0728 13.7121 17.2622C12.8812 17.2622 12.0797 17.2622 11.2586 17.2622C11.2586 18.0923 11.2586 18.9028 11.2586 19.7231C12.0894 19.7231 12.891 19.7231 13.7121 19.7231Z" fill="#02E602"/>
<path d="M12.5 7.99025C11.9135 7.99025 11.327 8 10.7405 7.99025C10.2322 7.9805 10.0073 7.75622 10.0073 7.2394C9.99756 6.06924 9.99756 4.89907 10.0073 3.73866C10.0073 3.26085 10.2419 3.00731 10.7209 3.00731C11.9037 2.99756 13.0865 2.99756 14.2693 3.00731C14.7581 3.00731 14.9927 3.2511 14.9927 3.72891C15.0024 4.90883 15.0024 6.08874 14.9927 7.26865C14.9927 7.77572 14.7678 7.99025 14.24 8C13.673 7.99025 13.0865 7.99025 12.5 7.99025ZM11.2781 4.25548C11.2781 5.08435 11.2781 5.89371 11.2781 6.70307C12.109 6.70307 12.9203 6.70307 13.7219 6.70307C13.7219 5.86446 13.7219 5.06485 13.7219 4.25548C12.891 4.25548 12.0894 4.25548 11.2781 4.25548Z" fill="#02E602"/>
<path d="M14.9805 25.5195C14.9805 26.1037 14.9902 26.6879 14.9805 27.2722C14.9707 27.759 14.7559 27.983 14.2676 27.9927C13.0859 28.0024 11.9043 28.0024 10.7227 27.9927C10.2148 27.9927 10 27.7493 10 27.2429C10 26.0842 10 24.9353 10 23.7765C10 23.2507 10.2344 23.017 10.7617 23.0073C11.9238 22.9976 13.0762 22.9976 14.2383 23.0073C14.7656 23.0073 14.9902 23.241 15 23.7668C14.9902 24.351 14.9805 24.9353 14.9805 25.5195ZM13.7012 26.7171C13.7012 25.909 13.7012 25.091 13.7012 24.2731C12.8711 24.2731 12.0605 24.2731 11.25 24.2731C11.25 25.1008 11.25 25.8992 11.25 26.7171C12.0703 26.7171 12.8711 26.7171 13.7012 26.7171Z" fill="#02E602"/>
<path d="M31.9957 27.5437C31.9957 28.0977 32.0054 28.6613 31.9957 29.2153C31.986 29.7692 31.772 29.9927 31.2178 29.9927C30.0801 30.0024 28.9326 30.0024 27.7949 29.9927C27.2407 29.9927 27.017 29.7595 27.0073 29.2153C26.9976 28.0782 26.9976 26.9315 27.0073 25.7945C27.0073 25.2502 27.2504 25.017 27.7852 25.0073C28.9229 24.9976 30.0703 24.9976 31.208 25.0073C31.7526 25.0073 31.986 25.2405 31.9957 25.7847C32.0054 26.3873 31.9957 26.9704 31.9957 27.5437ZM28.2811 26.2901C28.2811 27.1356 28.2811 27.9227 28.2811 28.7391C29.1077 28.7391 29.9147 28.7391 30.7218 28.7391C30.7218 27.913 30.7218 27.1064 30.7218 26.2901C29.8953 26.2901 29.1077 26.2901 28.2811 26.2901Z" fill="#02E602"/>
<path d="M24.9805 27.5049C24.9805 28.0879 24.9902 28.671 24.9805 29.2541C24.9707 29.7595 24.7559 29.9927 24.248 29.9927C23.0762 30.0024 21.9043 30.0024 20.7422 29.9927C20.2148 29.983 20 29.7498 20 29.2153C20 28.0782 20 26.9315 20 25.7945C20 25.2502 20.2246 25.017 20.7813 25.0073C21.9238 24.9976 23.0762 24.9976 24.2188 25.0073C24.7754 25.0073 24.9902 25.2405 25 25.7847C24.9902 26.3581 24.9805 26.9315 24.9805 27.5049ZM23.7012 28.7294C23.7012 27.913 23.7012 27.1064 23.7012 26.2901C22.8613 26.2901 22.0605 26.2901 21.25 26.2901C21.25 27.1161 21.25 27.913 21.25 28.7294C22.0801 28.7294 22.8809 28.7294 23.7012 28.7294Z" fill="#02E602"/>
<path d="M29.4951 19C30.0805 19 30.6659 19 31.2512 19C31.739 19.0098 31.9829 19.2247 31.9927 19.7035C32.0024 20.8955 32.0024 22.0972 31.9927 23.2892C31.9829 23.768 31.739 23.9829 31.2512 23.9927C30.0805 24.0024 28.9098 24.0024 27.7488 23.9927C27.2512 23.9927 27.0073 23.768 27.0073 23.2501C26.9976 22.0777 26.9976 20.9052 27.0073 19.7425C27.0171 19.2247 27.261 19.0098 27.7878 19C28.3537 19 28.9293 19 29.4951 19ZM30.7244 20.2799C29.8951 20.2799 29.0854 20.2799 28.2756 20.2799C28.2756 21.1104 28.2756 21.9214 28.2756 22.7323C29.1049 22.7323 29.9049 22.7323 30.7244 22.7323C30.7244 21.9018 30.7244 21.0909 30.7244 20.2799Z" fill="#02E602"/>
<path d="M29.5146 32.0098C30.0977 32.0098 30.6808 32 31.2638 32.0098C31.7498 32.0195 31.983 32.234 31.9927 32.7216C32.0024 33.9015 32.0024 35.0814 31.9927 36.2613C31.983 36.7587 31.74 36.9927 31.2347 36.9927C30.0782 37.0024 28.9315 37.0024 27.775 36.9927C27.26 36.9927 27.017 36.7587 27.0073 36.2321C26.9976 35.0717 26.9976 33.921 27.0073 32.7606C27.0073 32.2243 27.2405 32.0098 27.7653 32C28.3484 32.0098 28.9315 32.0098 29.5146 32.0098ZM30.7196 35.7543C30.7196 34.9157 30.7196 34.1063 30.7196 33.2969C29.8936 33.2969 29.087 33.2969 28.2804 33.2969C28.2804 34.1355 28.2804 34.9352 28.2804 35.7543C29.0967 35.7543 29.8839 35.7543 30.7196 35.7543Z" fill="#02E602"/>
<path d="M22.4985 23.9957C21.9116 23.9957 21.3248 24.0054 20.7379 23.9957C20.2293 23.9859 20.0043 23.7614 20.0043 23.2538C19.9946 22.0921 20.0043 20.9402 20.0043 19.7785C20.0043 19.2416 20.2293 19.0171 20.7575 19.0073C21.9312 18.9976 23.1049 18.9976 24.2689 19.0073C24.7579 19.0073 24.9927 19.2318 24.9927 19.7199C25.0024 20.9109 25.0024 22.1116 24.9927 23.3026C24.9927 23.7711 24.7579 23.9859 24.2787 23.9957C23.6918 24.0054 23.0951 23.9957 22.4985 23.9957ZM23.7211 22.7364C23.7211 21.8969 23.7211 21.0866 23.7211 20.2861C22.88 20.2861 22.0681 20.2861 21.2661 20.2861C21.2661 21.1159 21.2661 21.9164 21.2661 22.7364C22.0975 22.7364 22.8995 22.7364 23.7211 22.7364Z" fill="#02E602"/>
<path d="M20 34.5146C20 33.939 20 33.3732 20 32.7976C20 32.2317 20.2145 32.0073 20.7606 32.0073C21.921 31.9976 23.0717 31.9976 24.2321 32.0073C24.7684 32.0073 24.9829 32.2317 24.9927 32.7585C25.0024 33.9195 25.0024 35.0707 24.9927 36.2317C24.9927 36.7585 24.7587 36.9927 24.2418 36.9927C23.0814 37.0024 21.9308 37.0024 20.7704 36.9927C20.2438 36.9927 20.0098 36.7488 20.0098 36.2317C20 35.6561 20 35.0902 20 34.5146ZM21.2677 35.7244C22.0965 35.7244 22.9059 35.7244 23.7153 35.7244C23.7153 34.8854 23.7153 34.0756 23.7153 33.2756C22.8864 33.2756 22.0868 33.2756 21.2677 33.2756C21.2677 34.0951 21.2677 34.8951 21.2677 35.7244Z" fill="#02E602"/>
</svg>
