<svg width="40" height="40" viewBox="0 0 40 40" fill="none" xmlns="http://www.w3.org/2000/svg">
<path d="M12.4871 10.531C13.0294 9.79634 13.3172 9.03909 13.3172 8.1462C13.3283 6.15698 13.8485 4.326 15.0219 2.72107C17.6563 -0.895684 22.3163 -0.906988 24.9729 2.68716C26.1351 4.26949 26.6553 6.06657 26.6996 8.02187C26.7328 9.18602 26.8546 9.5703 27.5409 10.5762C27.6294 10.4293 27.6958 10.3049 27.7733 10.1806C28.7031 8.55308 30.0092 7.45675 31.902 7.26461C33.828 7.07247 35.3113 7.92015 36.4624 9.42336C37.4476 10.7005 37.8903 12.1811 37.9125 13.7974C37.9235 14.4981 38.1007 15.1198 38.4659 15.7075C40.8236 19.6181 40.4251 24.8511 37.5361 28.0949C36.8056 28.9086 35.9754 29.5642 34.9792 29.9937C34.7468 30.0954 34.6693 30.2084 34.6803 30.457C34.6914 31.8811 34.6914 33.3052 34.6803 34.7406C34.6803 35.0345 34.78 35.1588 35.0345 35.2605C36.4735 35.8935 37.8239 36.6846 38.9419 37.8488C39.2297 38.154 39.4843 38.493 39.7389 38.8208C39.927 39.0694 40.0709 39.3746 39.8606 39.6346C39.7057 39.8154 39.4068 39.8832 39.1633 39.9849C39.0969 40.0188 38.9972 39.9849 38.9198 39.9849C26.3011 39.9849 13.6936 39.9849 1.07496 39.9849C0.975338 39.9849 0.864648 40.0188 0.787165 39.9736C0.543648 39.8719 0.266926 39.7928 0.100891 39.6007C-0.109419 39.352 0.0455445 39.0694 0.233717 38.8321C0.9532 37.894 1.83872 37.1593 2.84599 36.5829C3.56548 36.1647 4.31817 35.8031 5.07086 35.4527C5.30331 35.3397 5.41399 35.2379 5.40293 34.9667C5.39186 33.4748 5.40293 31.9716 5.39186 30.4797C5.39186 30.3327 5.30331 30.1067 5.18155 30.0502C2.46965 28.773 0.975337 26.5125 0.333337 23.6304C-0.286525 20.8274 0.123027 18.1601 1.61734 15.6962C1.97154 15.1084 2.14865 14.5094 2.15972 13.82C2.19292 11.7629 2.86813 9.96588 4.38458 8.57569C6.77548 6.39433 10.2069 6.92554 12.0332 9.72853C12.1771 9.98848 12.31 10.2484 12.4871 10.531ZM20.6338 27.1116C22.427 26.9872 24.3309 25.9022 25.5484 24.3651C28.4817 20.6579 28.8359 15.2102 26.3786 11.0848C25.7809 10.0902 25.4931 9.05039 25.471 7.88624C25.4378 6.06656 24.8622 4.41642 23.6446 3.04884C22.4713 1.73776 21.0212 1.07093 19.2613 1.36479C17.778 1.61344 16.6933 2.49502 15.852 3.72698C14.9665 5.03805 14.568 6.49605 14.568 8.07838C14.568 9.15211 14.2692 10.1241 13.7047 11.0396C13.3947 11.5482 13.1623 12.1133 12.9298 12.6671C12.0111 14.905 11.8119 17.222 12.2768 19.5955C12.7195 21.822 13.7268 23.7661 15.3761 25.3145C16.483 26.3543 17.8002 26.9533 19.3166 27.1342C19.3388 27.055 19.3609 27.0098 19.3609 26.9533C19.3609 26.0491 19.372 25.1449 19.3498 24.2408C19.3498 24.0825 19.2391 23.9017 19.1284 23.7661C18.3315 22.828 17.5234 21.9012 16.7154 20.9631C16.4055 20.6127 16.4055 20.2058 16.6933 19.9572C16.9921 19.6972 17.3463 19.7537 17.6673 20.1154C18.0326 20.5336 18.3979 20.9631 18.7742 21.3813C18.9403 21.5734 19.1063 21.7655 19.3498 22.0481C19.3498 20.7031 19.3609 19.5051 19.3388 18.307C19.3388 18.1601 19.217 18.0019 19.1174 17.8775C18.0105 16.5212 16.8925 15.165 15.7856 13.82C15.4425 13.4018 15.4203 13.0514 15.7192 12.7802C16.0181 12.5089 16.3944 12.588 16.7486 13.0175C17.1914 13.56 17.6452 14.0912 18.088 14.6337C18.4754 15.0971 18.8628 15.5718 19.2502 16.0352C19.2834 16.0239 19.3166 16.0126 19.3498 16.0013C19.3498 15.8544 19.3498 15.7075 19.3498 15.5605C19.3498 13.3453 19.3498 11.13 19.3498 8.90345C19.3498 8.73392 19.3498 8.56438 19.383 8.39485C19.4494 8.07838 19.6598 7.90885 19.9697 7.89755C20.2796 7.89755 20.501 8.05578 20.5674 8.37225C20.6006 8.51918 20.6006 8.67741 20.6006 8.83564C20.6006 9.79634 20.6006 10.757 20.6006 11.7177C20.6006 11.8421 20.6117 11.9777 20.6338 12.215C21.1651 11.4352 21.619 10.757 22.0839 10.1015C22.3495 9.72853 22.7037 9.63811 23.0137 9.85285C23.3125 10.0676 23.3568 10.4406 23.1133 10.8249C22.8033 11.2883 22.4823 11.7516 22.1724 12.215C21.6632 12.9836 20.9548 13.6957 20.7002 14.5433C20.4457 15.4136 20.6338 16.4195 20.6228 17.3689C20.6228 17.8436 20.6228 18.307 20.6228 18.906C20.7888 18.7139 20.8663 18.6348 20.9438 18.5331C21.4197 17.934 21.8957 17.3237 22.3827 16.7247C22.4934 16.5891 22.6484 16.3969 22.7812 16.3969C23.0136 16.3969 23.3125 16.4647 23.4675 16.623C23.711 16.8716 23.6114 17.1994 23.4011 17.4593C22.593 18.4765 21.785 19.5051 20.9659 20.511C20.7224 20.8048 20.6117 21.11 20.6117 21.5056C20.6338 22.8732 20.6228 24.2407 20.6228 25.6083C20.6338 26.0943 20.6338 26.5803 20.6338 27.1116ZM8.30299 16.8942C8.42475 16.736 8.49117 16.6569 8.54651 16.5891C8.85644 16.1709 9.21065 16.0691 9.53165 16.3065C9.83051 16.5438 9.85265 16.8942 9.56486 17.3237C9.21065 17.8549 8.8343 18.3861 8.4801 18.9286C8.41368 19.0304 8.31406 19.1434 8.31406 19.2564C8.30299 20.2623 8.30299 21.2682 8.30299 22.3646C8.43582 22.2063 8.5133 22.1272 8.57972 22.0481C8.91179 21.6638 9.24386 21.6073 9.55379 21.8673C9.84158 22.1159 9.85265 22.4663 9.56486 22.8393C9.22172 23.28 8.85644 23.7095 8.53544 24.1616C8.41368 24.3312 8.32513 24.5572 8.32513 24.772C8.30299 26.1282 8.31406 27.4845 8.31406 28.8408C8.31406 28.9651 8.32513 29.0782 8.3362 29.2025C9.266 29.0895 10.074 28.773 10.8156 28.2418C11.6901 27.6089 12.3432 26.7951 12.9188 25.8683C13.273 25.3032 13.284 24.885 12.8855 24.2747C10.4836 20.5901 10.1847 16.623 11.5905 12.4863C11.6569 12.2829 11.7122 12.0342 11.6458 11.8421C11.3802 10.9605 10.9153 10.2032 10.2511 9.5703C8.76789 8.18011 6.70906 8.1462 5.21475 9.51378C4.06358 10.5649 3.47692 11.9325 3.43265 13.4809C3.38837 14.6451 3.11165 15.6736 2.52499 16.6795C0.742891 19.7198 0.964269 23.8904 3.00096 26.6821C4.0193 28.0609 5.30331 29.0103 7.07434 29.2138C7.07434 28.5469 7.09648 27.8914 7.06327 27.2472C7.0522 27.0437 6.96365 26.8064 6.84189 26.6595C6.24417 25.9361 5.62431 25.2354 5.01551 24.5233C4.67237 24.1277 4.6613 23.7547 4.9491 23.4835C5.24796 23.2122 5.60217 23.2801 5.9453 23.6756C6.29951 24.0825 6.64265 24.4894 7.07434 24.9867C7.07434 24.139 7.06327 23.4044 7.08541 22.681C7.09648 22.3194 7.00792 22.0481 6.76441 21.7655C5.87889 20.737 5.01551 19.6859 4.1632 18.6348C3.87541 18.2844 3.89755 17.9001 4.19641 17.6628C4.47313 17.4367 4.83841 17.4932 5.11513 17.8097C5.19262 17.8888 5.25903 17.9792 5.32544 18.0697C5.87889 18.7365 6.44341 19.4146 7.07434 20.1719C7.07434 19.9119 7.07434 19.7763 7.07434 19.6407C7.07434 17.934 7.07434 16.2274 7.07434 14.5094C7.07434 13.9217 7.27358 13.6391 7.68313 13.6391C8.10375 13.6278 8.31406 13.9217 8.31406 14.532C8.30299 15.2667 8.30299 16.0239 8.30299 16.8942ZM32.9979 29.2364C34.6914 29.0103 35.9533 28.1514 36.9384 26.8629C39.119 24.0373 39.3736 19.7763 37.5251 16.6117C36.9716 15.6736 36.6617 14.7242 36.6617 13.6165C36.6617 12.5089 36.3185 11.4804 35.7319 10.5423C34.6914 8.89215 32.9646 8.1349 31.3596 8.66611C29.9318 9.14081 29.0573 10.2145 28.5039 11.5934C28.36 11.9438 28.36 12.2377 28.4817 12.5993C29.8543 16.6908 29.5443 20.6127 27.1645 24.2408C26.7439 24.885 26.7771 25.2919 27.1313 25.8683C28.1939 27.6315 29.5997 28.886 31.736 29.2251C31.736 28.5696 31.7581 27.9366 31.7249 27.3037C31.7139 27.0776 31.6253 26.8064 31.4814 26.6255C30.8726 25.8796 30.2085 25.1675 29.6108 24.4103C29.4669 24.2294 29.3894 23.9017 29.4447 23.6869C29.5665 23.2009 30.1421 23.1444 30.5073 23.54C30.8948 23.9695 31.2711 24.4103 31.6474 24.8511C31.736 24.4329 31.7249 24.0373 31.7471 23.653C31.8135 22.7036 31.7803 21.7881 30.9501 21.1326C30.9169 21.11 30.8948 21.0648 30.8726 21.0309C30.5959 20.5675 30.8616 20.0476 31.3929 20.025C31.4925 20.025 31.6032 20.025 31.7471 20.025C31.7471 19.8328 31.7471 19.6633 31.7471 19.5051C31.7471 17.8775 31.7471 16.2613 31.7471 14.6337C31.7471 14.5094 31.7471 14.3738 31.7471 14.2495C31.7803 13.8313 32.0016 13.5939 32.3559 13.5826C32.7322 13.5713 32.9757 13.82 32.9868 14.2608C33.0089 14.7807 32.9979 15.3006 32.9979 15.8318C32.9979 16.137 32.9979 16.4308 32.9979 16.736C33.3963 16.3178 33.6841 15.8883 33.9941 15.4588C34.2597 15.0858 34.6139 14.9954 34.9128 15.2102C35.2338 15.4362 35.2781 15.7866 35.0235 16.1822C34.6693 16.7247 34.3483 17.2898 33.9277 17.7758C33.1528 18.6687 32.854 19.6746 32.9979 20.8387C33.0532 21.2795 33.0089 21.7429 33.0089 22.1837C33.4849 21.7316 33.8502 21.2682 34.2154 20.8161C34.5254 20.4319 34.8796 20.3527 35.1784 20.5901C35.4994 20.8387 35.5105 21.2117 35.1895 21.6299C34.7136 22.2402 34.2708 22.8732 33.7395 23.427C33.1528 24.0486 32.9314 24.7381 32.9868 25.597C33.0532 26.8177 32.9979 28.0044 32.9979 29.2364ZM38.0232 38.7078C37.0934 37.781 36.1082 37.1367 35.0345 36.6507C31.8799 35.2153 28.5481 34.5598 25.1278 34.2546C22.3274 34.006 19.5159 34.0399 16.7154 34.232C13.4943 34.4581 10.3286 35.0006 7.25144 36.0291C5.58003 36.5942 3.95289 37.2611 2.53606 38.3461C2.41431 38.4365 2.30361 38.5495 2.11544 38.7078C14.1253 38.7078 26.0133 38.7078 38.0232 38.7078ZM9.97441 33.8251C12.4539 33.4861 14.889 33.147 17.3463 32.8079C17.3463 31.2821 17.3463 29.7111 17.3353 28.1514C17.3353 28.0609 17.2467 27.9366 17.1803 27.9027C16.1066 27.4732 15.1547 26.829 14.2913 26.0378C14.247 26.0943 14.2138 26.1169 14.1917 26.1509C13.273 27.914 11.9779 29.2703 10.1626 30.0728C10.074 30.1067 9.97441 30.2536 9.97441 30.344C9.96334 31.5195 9.97441 32.6836 9.97441 33.8251ZM22.7259 32.7288C25.2053 33.0114 27.6183 33.2939 30.0646 33.5765C30.0646 32.5141 30.0756 31.4177 30.0535 30.3214C30.0535 30.2197 29.8986 30.0728 29.7879 30.0163C28.9577 29.6433 28.1829 29.1686 27.5741 28.4791C26.9099 27.7219 26.3233 26.8855 25.6813 26.0604C24.9064 26.8064 23.9545 27.4393 22.8808 27.8914C22.7923 27.9253 22.7259 28.1401 22.7259 28.2644C22.7148 29.3833 22.7148 30.491 22.7148 31.6099C22.7259 32.0055 22.7259 32.4011 22.7259 32.7288ZM21.4419 28.3887C20.4789 28.3887 19.5491 28.3887 18.6193 28.3887C18.6193 29.8354 18.6193 31.3047 18.6193 32.774C19.5712 32.774 20.4899 32.774 21.4419 32.774C21.4419 31.2934 21.4419 29.8241 21.4419 28.3887ZM6.65372 30.5588C6.65372 31.9603 6.65372 33.3844 6.65372 34.8311C7.35106 34.6163 8.02627 34.4129 8.67934 34.2207C8.67934 32.9662 8.67934 31.7455 8.67934 30.5588C8.0152 30.5588 7.3732 30.5588 6.65372 30.5588ZM33.4074 34.5824C33.4074 33.2148 33.4074 31.8811 33.4074 30.5475C32.7101 30.5475 32.0349 30.5475 31.3375 30.5475C31.3375 31.6777 31.3375 32.8079 31.3375 33.9495C32.0127 34.1642 32.699 34.3677 33.4074 34.5824Z" fill="#02E602"/>
</svg>
