<svg width="47" height="40" viewBox="0 0 47 40" fill="none" xmlns="http://www.w3.org/2000/svg">
<path d="M38.6447 28.8216C38.6447 28.037 38.6447 27.3169 38.6447 26.586C38.1281 26.5323 37.6241 26.5108 37.1453 26.4248C33.9828 25.9089 31.6897 23.6196 31.5763 20.879C31.5637 20.6103 31.5637 20.3416 31.5637 20.0729C31.5763 19.6215 31.7527 19.471 32.2693 19.4495C34.7766 19.342 36.8681 20.0621 38.4557 21.7603C38.4935 21.8033 38.5439 21.8355 38.5817 21.8678C38.5943 21.8785 38.6069 21.8678 38.6447 21.857C38.6447 21.1154 38.6447 20.3738 38.6447 19.6215C38.0399 19.5462 37.4477 19.514 36.8807 19.4065C33.819 18.7939 31.6771 16.5476 31.5763 13.8821C31.5637 13.6457 31.5637 13.3985 31.5637 13.162C31.5763 12.6461 31.7527 12.4957 32.3449 12.4742C34.8396 12.3989 36.9059 13.119 38.4683 14.8172C38.4935 14.8494 38.5313 14.8709 38.5691 14.8924C38.5817 14.9032 38.5943 14.8924 38.6573 14.8924C38.6573 14.3873 38.6825 13.8821 38.6447 13.377C38.6321 13.2158 38.4305 13.0653 38.2793 12.9363C37.0823 11.9153 36.3516 10.7008 36.2004 9.2391C36.024 7.5087 36.6414 6.01476 38.0021 4.72502C38.2415 4.49932 38.5061 4.27361 38.7707 4.06941C39.0479 3.8437 39.3251 3.85445 39.6149 4.05866C43.1554 6.68112 42.853 10.6686 40.1692 12.8181C40.0055 12.9471 39.9173 13.1835 39.8921 13.377C39.8543 13.8714 39.8795 14.3658 39.8795 14.9462C40.0307 14.8065 40.1315 14.7312 40.2071 14.6452C41.8072 13.0116 43.8861 12.3667 46.3305 12.4634C46.7715 12.4849 46.9605 12.6999 46.9857 13.0653C47.2628 17.2247 43.4704 19.6 40.1566 19.557C40.0811 19.557 40.0055 19.5677 39.9047 19.5785C39.9047 20.3416 39.9047 21.0832 39.9047 21.8785C40.2196 21.5883 40.4842 21.3196 40.774 21.0832C42.349 19.7827 44.2515 19.3205 46.3935 19.4388C46.7967 19.4602 46.9479 19.6859 46.973 20.0084C47.2376 23.5122 44.4153 26.2743 40.3078 26.5215C40.1819 26.5323 40.0559 26.543 39.9047 26.5538C39.9047 27.2846 39.9047 28.0047 39.9047 28.7786C40.0307 28.6711 40.1188 28.5959 40.1944 28.5099C41.7946 26.8762 43.8609 26.2314 46.3053 26.3281C46.7463 26.3496 46.9479 26.5538 46.973 26.93C47.2502 31.0786 43.4704 33.4646 40.1566 33.4216C40.0811 33.4216 40.0055 33.4324 39.8795 33.4431C39.8795 34.4104 39.8669 35.3562 39.8921 36.302C39.8921 36.388 40.1063 36.5063 40.2448 36.56C42.3238 37.3876 44.4153 38.1937 46.4817 39.032C46.6959 39.118 46.9227 39.3652 46.9353 39.5586C46.9731 39.924 46.5447 40.096 46.1289 39.924C45.4611 39.6554 44.8185 39.3437 44.1507 39.075C39.7031 37.2156 35.0538 35.8829 30.1525 35.2165C26.7002 34.7544 23.2353 34.6469 19.7452 34.9048C13.1808 35.3885 7.08261 37.1189 1.29938 39.7413C1.16078 39.8058 1.02218 39.8703 0.883586 39.924C0.568595 40.053 0.304006 40.0315 0.115011 39.7521C-0.073983 39.4511 0.0394137 39.2254 0.367004 39.0857C1.37498 38.6451 2.37034 38.1937 3.40351 37.7852C4.48708 37.3553 5.59585 36.9792 6.69202 36.5707C6.83061 36.517 7.03221 36.3773 7.03221 36.2698C7.05741 35.3455 7.04481 34.4212 7.04481 33.4969C6.44003 33.4216 5.86044 33.3786 5.30606 33.2712C2.24435 32.6585 0.0646114 30.3155 0.0268125 27.6393C0.0268125 27.4244 0.0268125 27.2094 0.0268125 26.9945C0.0394121 26.5645 0.203207 26.4356 0.719792 26.4141C3.30272 26.3281 5.38166 27.1342 7.00701 28.9613C7.00701 28.123 7.00701 27.3706 7.00701 26.586C6.55342 26.5323 6.07464 26.5108 5.62105 26.4356C2.37034 25.8982 0.0520118 23.5122 0.0268125 20.6962C0.0142129 19.4495 0.0268132 19.4388 1.48837 19.471C3.59251 19.514 5.31866 20.2341 6.67942 21.5991C6.75502 21.685 6.84322 21.7603 6.91881 21.8463C6.93141 21.857 6.94401 21.857 6.99441 21.8678C6.99441 21.1262 6.99441 20.3846 6.99441 19.643C6.44003 19.5785 5.88564 19.5462 5.35646 19.4388C2.20655 18.8154 0.026811 16.4831 0.00161169 13.7317C-0.0109879 12.4957 0.0142128 12.4634 1.47577 12.5064C3.55471 12.5602 5.28086 13.2588 6.64162 14.613C6.74242 14.7097 6.84321 14.8065 7.01961 14.9784C7.01961 14.3658 7.03221 13.8499 7.00701 13.334C7.00701 13.2373 6.88101 13.1298 6.78022 13.0546C3.8949 10.7653 3.7689 7.07879 6.49042 4.66053C6.69202 4.47782 6.90621 4.29511 7.12041 4.12314C7.385 3.89744 7.67479 3.88669 7.96458 4.10165C11.5429 6.73486 11.2027 10.7008 8.54417 12.8611C8.36777 13.0008 8.26698 13.2695 8.24178 13.4845C8.19138 13.9359 8.22918 14.3873 8.22918 14.8387C8.26698 14.8709 8.31737 14.8924 8.35517 14.9247C8.41817 14.8387 8.45597 14.742 8.53157 14.6667C10.1317 13.0546 12.1981 12.4204 14.6172 12.5279C15.0582 12.5494 15.2472 12.7751 15.2598 13.1405C15.5244 17.2892 11.7571 19.6537 8.46857 19.6215C8.40557 19.6215 8.34257 19.6322 8.25437 19.643C8.25437 20.3738 8.25437 21.1047 8.25437 21.9C8.41817 21.7495 8.53157 21.6313 8.64496 21.5131C10.2577 19.9761 12.2863 19.385 14.655 19.514C15.0708 19.5355 15.222 19.7504 15.2472 20.0729C15.5748 23.4477 12.7776 26.2743 8.83396 26.5753C8.64496 26.586 8.45597 26.6075 8.24178 26.6183C8.24178 27.3276 8.24178 28.0155 8.24178 28.7463C8.32997 28.6819 8.40557 28.6389 8.46857 28.5744C10.0687 26.9407 12.1351 26.2958 14.5794 26.3926C14.9952 26.4141 15.222 26.5968 15.2472 26.9407C15.5622 31.0249 11.9083 33.4431 8.58196 33.4754C8.48117 33.4754 8.36777 33.4861 8.24178 33.4969C8.24178 34.3567 8.24178 35.2058 8.24178 36.1086C12.9414 34.7114 17.7671 33.9053 22.7818 33.8515C22.7818 32.3791 22.7818 30.9281 22.7818 29.4879C22.1392 29.402 21.5092 29.3697 20.9044 29.2407C17.8301 28.5744 15.7386 26.2636 15.7008 23.5014C15.6882 22.3514 15.7134 22.3299 17.0615 22.3299C19.3169 22.3299 21.1438 23.1037 22.5676 24.5869C22.6306 24.6514 22.681 24.7052 22.7944 24.8126C22.7944 24.0388 22.7944 23.3402 22.7944 22.6201C22.2652 22.5664 21.736 22.5449 21.2194 22.4481C17.9939 21.857 15.789 19.557 15.7134 16.7196C15.6756 15.5051 15.7134 15.4621 17.1245 15.4836C19.3169 15.5051 21.106 16.2574 22.5172 17.6869C22.5928 17.7621 22.681 17.8373 22.807 17.9556C22.807 17.1495 22.807 16.4079 22.807 15.6448C22.3408 15.6018 21.8998 15.591 21.4714 15.5266C18.1073 14.9999 15.7764 12.6569 15.7134 9.72275C15.6882 8.52974 15.726 8.50824 17.1119 8.51899C19.3295 8.54049 21.1312 9.29284 22.5298 10.7438C22.5928 10.8083 22.6684 10.8835 22.8196 11.0447C22.8196 10.4214 22.8321 9.90546 22.807 9.38956C22.807 9.29283 22.6936 9.17461 22.5928 9.08862C19.8712 6.93907 19.3169 2.96238 22.9455 0.189451C23.2857 -0.0684958 23.5503 -0.057748 23.8905 0.189451C26.9648 2.41424 27.2546 6.41242 24.4953 8.92741C24.1425 9.24984 23.9535 9.55078 24.0039 9.99144C24.0417 10.2924 24.0165 10.6041 24.0165 10.9802C24.1299 10.8835 24.2055 10.8405 24.2685 10.776C25.8687 9.08863 27.9728 8.40077 30.4801 8.51899C30.9337 8.54049 31.1101 8.75544 31.1353 9.11012C31.3873 12.6032 28.5776 15.3546 24.4953 15.6018C24.3567 15.6125 24.2181 15.6233 24.0543 15.634C24.0543 16.3971 24.0543 17.1387 24.0543 17.9448C24.1803 17.8373 24.2559 17.7621 24.3315 17.6869C25.9443 16.021 28.0358 15.3546 30.5179 15.4836C30.9463 15.5051 31.1101 15.7308 31.1353 16.0747C31.4125 19.6322 28.4516 22.4374 24.2685 22.5771C24.2055 22.5771 24.1425 22.5879 24.0543 22.5986C24.0543 23.308 24.0543 24.0173 24.0543 24.7159C24.0921 24.7482 24.1173 24.7804 24.1551 24.8126C24.2055 24.7267 24.2433 24.6192 24.3063 24.544C25.9191 22.8673 28.0232 22.1902 30.5305 22.3192C30.9337 22.3407 31.0975 22.5556 31.1227 22.878C31.4629 26.3281 28.4768 29.2515 24.4323 29.402C24.3063 29.402 24.1803 29.4235 24.0417 29.4235C24.0417 30.8852 24.0417 32.3254 24.0417 33.8193C29.0312 33.8838 33.8568 34.6899 38.5943 36.0871C38.5943 35.195 38.5943 34.3459 38.5943 33.5076C37.9895 33.4324 37.3973 33.4001 36.8177 33.2927C33.7686 32.6908 31.6141 30.4337 31.5259 27.7575C31.5133 27.4888 31.5133 27.2202 31.5259 26.9515C31.5385 26.543 31.7401 26.3818 32.2315 26.3603C34.7514 26.2636 36.8555 26.9837 38.4431 28.7033C38.5061 28.7248 38.5439 28.7463 38.6447 28.8216ZM39.1991 5.11194C36.6288 7.00355 36.8429 10.6041 39.2117 12.2485C41.656 10.3784 41.656 6.88533 39.1991 5.11194ZM7.66219 12.2485C10.0687 10.3461 10.2325 7.0143 7.66219 5.12269C5.33126 6.79934 5.09187 10.2924 7.66219 12.2485ZM39.9425 18.5789C43.168 18.7401 46.0407 16.2682 45.8013 13.549C42.3868 13.3018 39.5771 16.1069 39.9425 18.5789ZM45.8013 27.4029C41.7316 27.2739 39.5141 30.5412 39.9677 32.4436C43.0294 32.6263 46.0281 30.251 45.8013 27.4029ZM45.8139 20.5243C42.8026 20.1266 39.2243 23.2327 39.9677 25.5542C43.1302 25.7155 46.0533 23.2112 45.8139 20.5243ZM30.0013 9.55078C26.8892 9.2391 23.3235 12.3667 24.2055 14.6022C27.6956 14.6775 30.2281 12.055 30.0013 9.55078ZM22.7692 14.5915C23.1723 11.9905 20.098 9.2176 16.9103 9.59377C16.6583 12.227 19.6444 14.7957 22.7692 14.5915ZM8.32997 32.4436C11.5429 32.594 14.403 30.0683 14.1132 27.4244C10.4845 27.1772 7.80079 30.2295 8.32997 32.4436ZM32.8111 20.5243C32.5213 23.3939 35.7594 25.7907 38.6069 25.5113C39.1109 23.2005 36.276 20.2556 32.8111 20.5243ZM22.7566 28.4024C23.1975 25.8444 20.1358 23.0393 16.9229 23.3832C16.6961 25.8444 19.2161 28.4776 22.7566 28.4024ZM30.0013 23.3617C26.1837 23.1252 23.6511 26.3603 24.1929 28.4024C27.3176 28.5636 30.3289 25.9734 30.0013 23.3617ZM16.9355 16.4616C16.6709 19.5247 20.1232 21.7603 22.7818 21.4593C23.1597 19.0088 20.3374 16.2144 16.9355 16.4616ZM30.0013 16.5154C26.1333 16.3004 23.6511 19.5462 24.1803 21.5561C27.5318 21.6635 30.2029 19.1593 30.0013 16.5154ZM38.5943 18.5789C39.1109 16.2789 36.3264 13.3018 32.7985 13.5597C32.5339 16.2574 35.4444 18.7401 38.5943 18.5789ZM32.7985 27.4029C32.3953 29.9716 35.8854 32.9595 38.6069 32.4113C39.0101 29.7781 36.0492 27.2094 32.7985 27.4029ZM14.1384 13.5167C12.1225 13.5167 10.5097 14.1616 9.32534 15.5158C8.54416 16.4186 8.04018 17.4074 8.39297 18.5789C11.4547 18.7616 14.34 16.2467 14.1384 13.5167ZM8.39297 25.565C12.1477 25.5972 14.4534 22.6523 14.1006 20.5135C10.9507 20.2018 7.92678 22.8673 8.39297 25.565ZM23.3991 8.36852C25.6041 6.63813 25.9065 3.22033 23.4369 1.19974C20.8414 3.06986 21.0052 6.69187 23.3991 8.36852ZM6.93141 18.5682C7.49839 16.0962 4.13429 13.1513 1.19858 13.5597C0.959184 16.4831 4.12169 18.7724 6.93141 18.5682ZM6.93141 32.4328C7.54879 30.0038 4.19729 27.0697 1.21118 27.4136C0.807989 29.9501 3.9705 32.723 6.93141 32.4328ZM1.18598 20.5135C0.984386 23.5874 4.31069 25.7692 6.93141 25.522C7.4228 22.9855 4.31069 20.2556 1.18598 20.5135Z" fill="#02E602"/>
</svg>
