<svg width="40" height="40" viewBox="0 0 40 40" fill="none" xmlns="http://www.w3.org/2000/svg">
<path d="M40 39.3339C39.8228 39.8634 39.5415 40 39.1872 40C26.401 39.9829 13.6148 39.9829 0.818125 39.9829C0.703497 39.9829 0.57845 40 0.463822 39.9658C0.172042 39.8634 -0.0363717 39.556 0.00531112 39.0949C0.0365732 38.7533 0.224144 38.4459 0.380454 38.1556C0.432558 38.0531 0.57845 38.036 0.682657 38.0702C1.34958 38.3093 1.68304 37.6944 2.02693 36.8405C4.63211 30.3508 7.26855 23.9123 9.90499 17.4567C11.0408 14.673 12.6561 14.0411 14.4276 15.6977C14.9382 16.1758 15.4488 16.654 15.9803 17.1493C16.0532 16.9273 16.1157 16.7224 16.1783 16.5174C17.6059 11.8551 19.0335 7.17561 20.4507 2.51325C21.1698 0.156457 22.4724 -0.59499 23.9417 0.48094C24.8587 1.14699 25.7653 1.83012 26.6928 2.4791C27.5472 3.07683 28.1412 4.06737 28.5268 5.45071C30.934 14.0069 33.362 22.546 35.79 31.0681C35.8942 31.4438 36.1026 31.8024 36.3111 32.0245C37.6553 33.4249 38.4473 35.4059 38.7078 38.0189C39.1455 38.1555 39.6978 37.814 39.9896 38.685C40 38.907 40 39.1119 40 39.3339ZM28.1725 8.74681C27.8911 9.36163 27.6515 9.89105 27.4014 10.4034C26.797 11.6501 25.8383 11.9575 24.9838 11.1719C24.6711 10.8816 24.3585 10.5571 24.0459 10.2497C23.5353 9.77151 23.2122 9.90813 22.91 10.745C22.5245 11.838 22.1597 12.931 21.7638 14.024C21.1906 15.6123 20.1694 16.0734 19.169 15.2195C18.8355 14.9291 18.5125 14.6217 18.1582 14.3143C18.0748 14.5534 18.0123 14.7584 17.9498 14.9633C17.1891 17.4396 16.4388 19.916 15.6781 22.3923C14.7923 25.2956 13.9065 28.1819 13.0208 31.0852C12.8228 31.717 12.5206 31.922 12.1975 31.6658C11.8849 31.4096 11.7911 30.8802 11.9787 30.2483C12.1246 29.753 12.2809 29.2578 12.4268 28.7625C13.4272 25.4835 14.4276 22.2045 15.4384 18.8913C14.8757 18.3619 14.3234 17.8324 13.7711 17.3201C12.6039 16.2271 11.6348 16.6028 10.8845 18.4473C8.31062 24.7833 5.72628 31.1193 3.15236 37.4553C3.07942 37.6261 3.01689 37.7969 2.93353 38.0189C6.16395 38.0189 9.34227 38.0189 12.4997 38.0189C12.5935 37.4553 12.6561 36.9259 12.7603 36.4306C13.7711 31.6146 17.0953 29.4798 19.8359 31.8878C20.3674 32.3489 20.5862 32.2636 20.9718 31.5121C21.1489 31.1535 21.3365 30.7777 21.5345 30.4533C24.4419 25.603 29.1833 25.5689 32.1324 30.3679C32.2991 30.6411 32.5283 30.9656 32.7368 30.9827C33.2786 31.0339 33.8309 30.9144 34.4041 30.8631C32.3512 23.5024 30.2775 16.1929 28.1725 8.74681ZM37.499 38.036C37.4886 37.8823 37.499 37.7969 37.4886 37.7115C37.0926 34.5691 35.2065 32.4002 33.2786 32.8784C32.5596 33.0492 31.9552 32.7759 31.4342 31.9049C28.631 27.2767 24.3689 27.6866 21.8784 32.7759C21.1906 34.1763 20.3153 34.4837 19.3566 33.6127C18.5333 32.8784 17.6788 32.6393 16.7514 32.9296C15.23 33.3907 13.8649 35.7134 13.7815 38.036C21.67 38.036 29.5689 38.036 37.499 38.036ZM18.7313 12.5211C18.7626 12.5894 18.773 12.6407 18.7939 12.6577C19.0856 12.931 19.3878 13.2042 19.6796 13.4604C20.2006 13.9215 20.5133 13.7849 20.805 12.9481C21.1802 11.8892 21.5345 10.8304 21.9096 9.78858C22.5349 8.01245 23.5874 7.56841 24.6607 8.62726C24.9525 8.91759 25.2338 9.20792 25.5256 9.48118C25.9216 9.83982 26.2134 9.75443 26.4843 9.19084C26.8178 8.50771 27.1408 7.80751 27.443 7.1073C27.5056 6.9536 27.5577 6.69742 27.516 6.54372C27.2972 5.58733 26.9533 4.78466 26.3489 4.3577C25.3693 3.67457 24.4002 2.94021 23.4311 2.22292C22.5661 1.59103 21.9201 1.96675 21.4928 3.35009C20.6071 6.23631 19.7213 9.13961 18.846 12.0429C18.8147 12.1966 18.773 12.3674 18.7313 12.5211Z" fill="#02E602"/>
</svg>
