<svg width="40" height="40" viewBox="0 0 40 40" fill="none" xmlns="http://www.w3.org/2000/svg">
<path d="M40 39.6365C39.7708 39.9358 39.4688 40 39.1042 40C26.3751 39.9893 13.6356 40 0.906514 39.9893C0.281519 39.9893 -0.0101474 39.7862 0.000269234 39.3798C0.0106858 38.9735 0.281518 38.7918 0.896097 38.7918C1.19818 38.7918 1.48984 38.7918 1.82317 38.7918C1.82317 35.5413 1.82317 32.3229 1.82317 29.0724C1.70859 29.0617 1.58359 29.0511 1.45859 29.0511C0.864847 29.0297 0.510684 28.6875 0.489851 28.0781C0.479434 27.629 0.479434 27.1692 0.489851 26.7201C0.510684 26.1 0.833596 25.7364 1.43776 25.7578C1.81276 25.7685 1.85442 25.6188 1.85442 25.2874C1.84401 19.599 1.84401 13.9 1.84401 8.21171C1.84401 7.36701 1.96901 7.2494 2.80233 7.2494C3.36483 7.2494 3.91691 7.2494 4.53149 7.2494C4.53149 7.08901 4.53149 6.93932 4.53149 6.80032C4.53149 4.82224 4.53149 2.84416 4.53149 0.866079C4.53149 0.18177 4.69815 0 5.3544 0C8.86479 0 12.3856 0 15.896 0C16.0106 0 16.1356 -1.30649e-06 16.2502 0.0320757C16.5418 0.0962297 16.7397 0.320771 16.6877 0.598771C16.646 0.801925 16.4585 1.01577 16.271 1.15477C16.1564 1.24031 15.9481 1.20823 15.7814 1.20823C12.6044 1.20823 9.42729 1.20823 6.25023 1.20823C6.08356 1.20823 5.9169 1.20823 5.7294 1.20823C5.7294 3.23977 5.7294 5.21786 5.7294 7.22801C10.646 7.22801 15.5418 7.22801 20.4585 7.22801C20.4585 5.22855 20.4585 3.23977 20.4585 1.20823C19.896 1.20823 19.3543 1.20823 18.8126 1.20823C18.6564 1.20823 18.5001 1.20823 18.3439 1.18685C18.0314 1.1227 17.8751 0.908848 17.8856 0.588078C17.896 0.278001 18.0626 0.0427687 18.3543 0.0427687C19.2918 0.021384 20.2293 0.0106917 21.1668 0.0427687C21.573 0.053461 21.6564 0.395614 21.6564 0.769846C21.6564 2.76931 21.6564 4.77947 21.6564 6.77894C21.6564 6.91794 21.6564 7.06763 21.6564 7.26009C22.2501 7.26009 22.8126 7.26009 23.3647 7.26009C24.2397 7.26009 24.3647 7.3884 24.3647 8.26517C24.3647 12.9377 24.3647 17.621 24.3647 22.2935C24.3647 22.4325 24.3647 22.5715 24.3647 22.7212C24.3855 22.7426 24.4168 22.7747 24.4376 22.796C25.1772 20.9035 26.4584 20.0695 28.4584 20.5827C28.573 19.5028 28.698 18.455 28.8126 17.375C28.6355 17.3536 28.4792 17.3536 28.3334 17.3109C28.0313 17.2253 27.8647 17.0115 27.8959 16.6907C27.9167 16.37 28.1042 16.1668 28.4272 16.1454C28.7709 16.124 29.1251 16.1454 29.5105 16.1454C29.5105 15.397 29.5105 14.6913 29.5105 13.9642C29.0522 13.8252 28.2709 14.1887 28.2813 13.3226C28.2917 12.4993 29.0313 12.8094 29.5105 12.7025C29.5105 12.4673 29.5105 12.232 29.5105 12.0075C29.3542 11.8792 29.1563 11.7829 29.0417 11.6226C28.8334 11.3446 28.9688 10.9596 29.2917 10.7779C29.3855 10.7244 29.5105 10.6496 29.5313 10.5747C29.5938 10.1684 29.7813 9.92248 30.198 9.95456C30.6042 9.99733 30.7188 10.3074 30.7188 10.6816C31.0417 10.7779 31.3126 10.9489 31.3021 11.3339C31.2917 11.6974 31.0521 11.8685 30.7188 11.9433C30.7188 12.1893 30.7188 12.4245 30.7188 12.7239C30.9271 12.7239 31.1355 12.7132 31.3334 12.7239C31.7501 12.7453 32.0209 12.9912 32.0001 13.344C31.9896 13.6862 31.7396 13.9107 31.3334 13.9214C31.1355 13.9321 30.948 13.9214 30.7292 13.9214C30.7292 14.6592 30.7292 15.3542 30.7292 16.0813C31.8542 16.0813 32.9688 16.0813 34.1146 16.0813C34.1146 15.3542 34.1146 14.6699 34.1146 13.9107C33.8855 13.9107 33.6459 13.9214 33.4271 13.9107C33.0938 13.8893 32.8959 13.7076 32.8646 13.3654C32.8334 13.0339 33.0417 12.7666 33.3855 12.7346C33.6146 12.7025 33.8542 12.7346 34.1146 12.7346C34.1146 12.4566 34.1146 12.2106 34.1146 11.9433C33.7813 11.8364 33.4271 11.6012 33.6042 11.2163C33.8125 10.7672 34.1459 10.3395 34.5105 9.99733C34.7813 9.7514 35.2084 10.0187 35.3125 10.4036C35.3438 10.5106 35.3959 10.6709 35.4792 10.7137C35.7604 10.842 35.9792 11.0452 35.9063 11.3446C35.8438 11.5905 35.6146 11.7829 35.4584 12.0075C35.4167 11.9861 35.3854 11.9647 35.3438 11.9326C35.3438 12.1679 35.3438 12.4031 35.3438 12.7132C35.5417 12.7132 35.7292 12.7132 35.9167 12.7132C36.3646 12.7239 36.6354 12.9591 36.6354 13.3333C36.625 13.6862 36.3646 13.9107 35.9375 13.9214C35.7604 13.9214 35.5729 13.9214 35.3646 13.9214C35.3646 14.6485 35.3646 15.3435 35.3646 16.0813C35.6667 16.0813 35.9479 16.0813 36.2292 16.0813C36.7084 16.0813 36.9584 16.2844 36.9792 16.648C37 17.0329 36.7604 17.2467 36.2604 17.2788C36.2084 17.2788 36.1667 17.3002 36.0729 17.3109C36.1459 17.9952 36.2084 18.6688 36.2813 19.3424C36.5834 22.1331 36.8854 24.9131 37.1979 27.7038C37.5208 30.6763 37.8542 33.6488 38.1771 36.6212C38.2396 37.2307 38.3125 37.8401 38.3646 38.4496C38.3854 38.7062 38.4792 38.8131 38.7292 38.7811C38.875 38.7704 39.0208 38.7918 39.1563 38.7811C39.5 38.749 39.7917 38.8559 40 39.1446C40 39.3157 40 39.4761 40 39.6365ZM3.05233 8.44694C3.05233 14.2208 3.05233 19.9519 3.05233 25.683C9.78145 25.683 16.4689 25.683 23.1668 25.683C23.1668 19.9198 23.1668 14.1887 23.1668 8.44694C16.4585 8.44694 9.77104 8.44694 3.05233 8.44694ZM3.04192 29.0618C3.04192 32.3015 3.04192 35.5199 3.04192 38.749C4.60441 38.749 6.14606 38.749 7.71897 38.749C7.71897 37.3162 7.71897 35.9155 7.70855 34.5148C7.70855 34.4293 7.56272 34.3117 7.45855 34.2582C7.18772 34.1299 7.04189 33.9268 7.07314 33.6274C7.10439 33.328 7.28147 33.1462 7.57314 33.1034C7.69814 33.0821 7.83355 33.0821 7.95855 33.0821C11.3856 33.0821 14.8023 33.0821 18.2293 33.0821C18.3543 33.0821 18.4897 33.0821 18.6147 33.0928C18.9064 33.1355 19.0939 33.3173 19.1251 33.6167C19.1668 33.9161 19.021 34.162 18.7397 34.2368C18.4897 34.301 18.4793 34.4293 18.4793 34.6325C18.4793 35.8621 18.4793 37.0917 18.4793 38.3213C18.4793 38.4603 18.4793 38.5993 18.4793 38.7597C20.0626 38.7597 21.5939 38.7597 23.1772 38.7597C23.1772 38.5993 23.1772 38.4496 23.1772 38.3106C23.1772 37.1879 23.1772 36.0652 23.1772 34.9425C23.1772 34.5576 23.3959 34.301 23.7293 34.301C24.0626 34.301 24.2605 34.4828 24.3334 34.8142C24.3543 34.9318 24.3543 35.0494 24.3543 35.1778C24.3543 36.2363 24.3543 37.2841 24.3543 38.3427C24.3543 38.4817 24.3543 38.6207 24.3543 38.7597C25.1043 38.7597 25.7813 38.7597 26.4688 38.7597C26.6043 37.5194 26.7397 36.3111 26.8647 35.1029C27.1355 32.5902 27.4167 30.0882 27.6876 27.5755C27.8855 25.7685 28.073 23.9615 28.2813 22.1652C28.3126 21.8872 28.2188 21.7803 27.9792 21.7054C27.1459 21.4381 26.3022 21.7482 25.8543 22.518C25.7084 22.7747 25.5834 23.042 25.4584 23.2986C25.2397 23.737 24.9584 24.1112 24.5105 24.3144C24.448 24.3464 24.3647 24.4427 24.3543 24.5068C24.3439 24.9024 24.3439 25.298 24.3439 25.715C24.4793 25.7257 24.573 25.7257 24.6564 25.7364C25.3855 25.7578 25.6772 26.0679 25.6876 26.8377C25.6876 27.2334 25.6876 27.6397 25.6876 28.0353C25.6772 28.6768 25.3439 29.0297 24.7293 29.0511C24.6043 29.0511 24.4793 29.0511 24.3439 29.0511C24.3439 29.2756 24.3439 29.436 24.3439 29.5964C24.3439 30.5266 24.3543 31.4675 24.3439 32.3978C24.3439 32.8361 24.1043 33.0821 23.7397 33.0714C23.3855 33.0607 23.1876 32.8254 23.1772 32.3978C23.1668 32.0663 23.1772 31.7348 23.1772 31.3927C23.1772 30.6228 23.1772 29.853 23.1772 29.0618C16.4585 29.0618 9.77104 29.0618 3.04192 29.0618ZM27.6563 38.7811C28.6042 38.7811 29.4792 38.7811 30.3646 38.7811C30.4792 38.7811 30.5938 38.7169 30.698 38.6741C32.3021 37.9257 33.9063 37.1665 35.5209 36.4181C35.6042 36.3753 35.6875 36.3111 35.8125 36.2363C33.25 35.3809 30.7501 34.5469 28.2188 33.7022C28.0313 35.3916 27.8438 37.0596 27.6563 38.7811ZM24.5209 26.9554C16.8856 26.9554 9.29187 26.9554 1.67734 26.9554C1.67734 27.2547 1.67734 27.5221 1.67734 27.8107C9.30229 27.8107 16.9064 27.8107 24.5209 27.8107C24.5209 27.5221 24.5209 27.2547 24.5209 26.9554ZM36.3229 30.4838C34.0938 31.2858 31.9167 32.0663 29.7397 32.8468C29.7397 32.8789 29.7501 32.911 29.7501 32.9324C32.0938 33.7129 34.448 34.5041 36.8542 35.2954C36.6667 33.6701 36.5 32.1091 36.3229 30.4838ZM13.7085 34.2796C13.7085 35.7979 13.7085 37.2735 13.7085 38.749C14.9168 38.749 16.0939 38.749 17.271 38.749C17.2918 38.6848 17.3127 38.6528 17.3127 38.61C17.3127 37.2521 17.3127 35.8835 17.3231 34.5255C17.3231 34.2582 17.1668 34.2689 16.9897 34.2689C16.2397 34.2689 15.4793 34.2689 14.7293 34.2689C14.3856 34.2796 14.0523 34.2796 13.7085 34.2796ZM12.4794 38.7597C12.4794 37.2628 12.4794 35.7872 12.4794 34.3117C11.271 34.3117 10.094 34.3117 8.91688 34.3117C8.91688 35.8086 8.91688 37.2735 8.91688 38.7597C10.1044 38.7597 11.271 38.7597 12.4794 38.7597ZM35.1042 29.6498C33 28.8372 30.9792 28.046 28.9167 27.2441C28.7397 28.8586 28.573 30.4197 28.3959 32.0556C30.6563 31.243 32.8334 30.4624 35.1042 29.6498ZM30.073 26.41C32.1459 27.212 34.1042 27.9711 36.125 28.7624C35.9479 27.1692 35.7813 25.6295 35.6146 24.0577C33.7813 24.8276 31.9792 25.5974 30.073 26.41ZM29.1042 25.5119C30.9688 24.7207 32.7605 23.9615 34.625 23.1703C32.9167 22.379 31.2813 21.6199 29.6147 20.8393C29.448 22.4218 29.2813 23.9294 29.1042 25.5119ZM30.3855 19.877C32.0834 20.6683 33.7084 21.4167 35.3959 22.208C35.3854 21.9941 35.375 21.8551 35.3646 21.7161C35.2188 20.3689 35.0625 19.011 34.9167 17.6637C34.875 17.2574 34.7396 17.1612 34.3959 17.375C33.073 18.1877 31.7605 19.0217 30.3855 19.877ZM33.4896 38.6741C33.4896 38.6955 33.5 38.7276 33.5 38.749C34.7188 38.749 35.9479 38.749 37.2188 38.749C37.1563 38.1716 37.0938 37.6156 37.0313 37.0061C35.8229 37.5835 34.6563 38.1288 33.4896 38.6741ZM30.0001 17.3323C29.948 17.8134 29.8959 18.2732 29.8334 18.8078C30.6251 18.316 31.3542 17.8562 32.0834 17.3964C32.073 17.375 32.0626 17.3536 32.0626 17.3216C31.3855 17.3323 30.7084 17.3323 30.0001 17.3323Z" fill="#02E602"/>
<path d="M14.4947 2.99605C13.5696 2.99605 12.6446 2.99605 11.7195 2.99605C11.2775 2.99605 11 2.8004 11 2.49802C11 2.19565 11.2672 2 11.7195 2C13.5799 2 15.4404 2 17.3008 2C17.7325 2 18.01 2.21344 17.9997 2.51581C17.9894 2.80929 17.7222 2.99605 17.3008 2.99605C16.3654 3.00494 15.4301 2.99605 14.4947 2.99605Z" fill="#02E602"/>
<path d="M14.5256 5.00393C15.4431 5.00393 16.3503 5.00393 17.2678 5.00393C17.7317 5.00393 17.9894 5.18061 17.9997 5.48098C18.01 5.78135 17.742 5.98454 17.2987 5.99337C15.4328 6.00221 13.5669 6.00221 11.7113 5.99337C11.268 5.99337 11 5.79019 11 5.48982C11 5.18945 11.268 5.00393 11.7216 5.00393C12.6494 4.99509 13.5875 5.00393 14.5256 5.00393Z" fill="#02E602"/>
<path d="M8.77697 3.49782C9.01811 3.49782 9.19635 3.48662 9.37459 3.49782C9.9093 3.54265 10.1714 4.03575 9.87785 4.50643C9.41653 5.24608 8.92375 5.97451 8.44146 6.70295C8.22128 7.02795 7.88577 7.08398 7.61317 6.88226C7.33009 6.66933 7.27766 6.31072 7.49784 5.9521C7.73899 5.57107 7.98013 5.20125 8.28419 4.74177C8.0011 4.74177 7.80189 4.75298 7.5922 4.74177C7.09942 4.69695 6.83731 4.22626 7.10991 3.7892C7.43493 3.25128 7.80189 2.73577 8.17934 2.23146C8.38903 1.95129 8.67212 1.94009 8.9552 2.11939C9.21732 2.2987 9.28023 2.65732 9.11247 2.9711C9.01811 3.128 8.92375 3.27369 8.77697 3.49782Z" fill="#02E602"/>
<path d="M8.9954 12.9936C8.9954 13.6787 8.9954 14.3741 8.9954 15.0592C8.98504 15.7035 8.69503 15.9898 8.04251 16C7.34856 16 6.64425 16 5.9503 16C5.30814 16 5.01813 15.7137 5.00777 15.0899C4.99741 13.6992 4.99741 12.3085 5.00777 10.9178C5.00777 10.2838 5.28742 10.0179 5.93994 10.0077C6.66496 9.99744 7.38999 9.99744 8.11501 10.0077C8.70539 10.0179 8.9954 10.294 8.9954 10.8871C9.00575 11.5927 8.9954 12.288 8.9954 12.9936ZM6.20924 11.1836C6.20924 12.4312 6.20924 13.6276 6.20924 14.824C6.76854 14.824 7.28641 14.824 7.81465 14.824C7.81465 13.5969 7.81465 12.4107 7.81465 11.1836C7.27606 11.1836 6.74782 11.1836 6.20924 11.1836Z" fill="#02E602"/>
<path d="M8.98966 21.0154C8.98966 21.6923 8.98966 22.3692 8.98966 23.0564C8.98966 23.7128 8.70007 24 8.03814 24C7.34519 24 6.64189 24 5.94893 24C5.30769 24 5.00776 23.7231 5.00776 23.0974C4.99741 21.6923 4.99741 20.2769 5.00776 18.8718C5.00776 18.2769 5.29735 18 5.89722 18C6.63155 18 7.36587 18 8.11054 18C8.70006 18 8.98966 18.2872 9 18.8718C9 19.5795 8.98966 20.2974 8.98966 21.0154ZM7.80026 22.8308C7.80026 21.5897 7.80026 20.3795 7.80026 19.1692C7.2521 19.1692 6.72463 19.1692 6.19716 19.1692C6.19716 20.4 6.19716 21.6103 6.19716 22.8308C6.73497 22.8308 7.2521 22.8308 7.80026 22.8308Z" fill="#02E602"/>
<path d="M20.9954 21.009C20.9954 21.6953 20.9954 22.3918 20.9954 23.0781C20.9954 23.7029 20.7046 23.9898 20.0608 24C19.3443 24 18.6381 24 17.9216 24C17.2986 24 17.0078 23.7234 17.0078 23.1191C16.9974 21.6953 16.9974 20.2817 17.0078 18.8579C17.0078 18.2842 17.2882 18.0077 17.8697 18.0077C18.6174 17.9974 19.3754 17.9974 20.1231 18.0077C20.6839 18.0077 20.985 18.3047 20.9954 18.8579C21.0058 19.5749 20.9954 20.2919 20.9954 21.009ZM18.1916 22.822C18.7524 22.822 19.2716 22.822 19.8012 22.822C19.8012 21.5928 19.8012 20.3841 19.8012 19.1754C19.2508 19.1754 18.7316 19.1754 18.1916 19.1754C18.1916 20.3944 18.1916 21.5928 18.1916 22.822Z" fill="#02E602"/>
<path d="M14.9954 13C14.9954 13.7047 14.9954 14.3991 14.9954 15.1038C14.9954 15.6962 14.704 15.9821 14.1214 15.9923C13.3827 16.0026 12.6439 16.0026 11.8948 15.9923C11.3017 15.9821 11 15.686 11 15.114C11 13.6945 11 12.2851 11 10.8655C11 10.3038 11.2913 10.0179 11.8636 10.0077C12.6127 9.99745 13.3723 9.99745 14.1214 10.0077C14.7249 10.0179 14.985 10.2936 14.9954 10.8962C15.0058 11.6009 14.9954 12.2953 14.9954 13ZM13.7988 11.1821C13.2474 11.1821 12.7272 11.1821 12.1965 11.1821C12.1965 12.4077 12.1965 13.6128 12.1965 14.8179C12.7376 14.8179 13.2578 14.8179 13.7988 14.8179C13.7988 13.6128 13.7988 12.4179 13.7988 11.1821Z" fill="#02E602"/>
<path d="M17.0104 12.9642C17.0104 12.2583 17 11.5627 17.0104 10.8568C17.0207 10.2839 17.2903 10.0077 17.871 10.0077C18.6176 9.99744 19.3746 9.99744 20.1212 10.0077C20.6915 10.0179 20.9819 10.3043 20.9922 10.8568C21.0026 12.2788 21.0026 13.6905 20.9922 15.1125C20.9922 15.6854 20.6915 15.9923 20.1005 15.9923C19.3642 16.0026 18.628 16.0026 17.8814 15.9923C17.2903 15.9821 17.0104 15.6957 17 15.1125C17 14.3964 17.0104 13.6803 17.0104 12.9642ZM19.7997 14.8261C19.7997 13.5882 19.7997 12.3913 19.7997 11.1739C19.2502 11.1739 18.7317 11.1739 18.2028 11.1739C18.2028 12.4015 18.2028 13.6087 18.2028 14.8261C18.7524 14.8261 19.2605 14.8261 19.7997 14.8261Z" fill="#02E602"/>
<path d="M12.1803 22.8363C12.7302 22.8363 13.249 22.8363 13.799 22.8363C13.799 21.6189 13.799 20.422 13.799 19.1944C13.2698 19.1944 12.751 19.1944 12.1699 19.1944C12.1699 19.4911 12.1803 19.7877 12.1699 20.0844C12.1595 20.4936 11.9313 20.7391 11.5681 20.7289C11.2257 20.7187 11.0078 20.4731 11.0078 20.0844C10.9974 19.665 10.9974 19.2455 11.0078 18.8159C11.0182 18.3043 11.3191 18.0077 11.8379 18.0077C12.6161 17.9974 13.3943 17.9974 14.1725 18.0077C14.7017 18.0179 14.9818 18.2941 14.9922 18.8261C15.0026 20.2685 15.0026 21.711 14.9922 23.1535C14.9922 23.7059 14.6913 23.9923 14.1102 23.9923C13.3735 24.0026 12.6368 24.0026 11.8898 23.9923C11.3087 23.9821 11.0078 23.6854 11.0078 23.1125C11.0078 22.9182 10.9974 22.734 11.0078 22.5396C11.0182 22.1509 11.2361 21.9054 11.5785 21.8951C11.9209 21.8849 12.1492 22.1202 12.1699 22.509C12.1699 22.6215 12.1803 22.7238 12.1803 22.8363Z" fill="#02E602"/>
</svg>
