<svg width="29" height="45" viewBox="0 0 29 45" fill="none" xmlns="http://www.w3.org/2000/svg">
<path d="M16.5678 27.9141L16.8458 27.4985C16.5859 27.3246 16.4316 27.1561 16.3383 26.9848C16.2458 26.8152 16.1941 26.6079 16.1938 26.3252C16.2166 23.6798 16.2151 21.0283 16.2136 18.3784C16.2132 17.716 16.2128 17.0537 16.2128 16.3916V15.8916H16.2037C16.205 15.0558 16.2093 14.2189 16.2136 13.3812C16.2255 11.0311 16.2375 8.67458 16.1842 6.3178C16.1514 4.72943 15.2011 3.4493 13.9199 2.74367C12.6396 2.03861 10.9922 1.88288 9.49374 2.55888L9.49335 2.55906C8.57176 2.9758 7.88068 3.55759 7.42395 4.29642C6.96845 5.03326 6.76737 5.89166 6.76737 6.8291L6.76737 6.82983C6.77212 10.0722 6.77212 13.3169 6.77212 16.562V16.563C6.77212 19.8082 6.77212 23.0538 6.77687 26.2973C6.77683 26.5943 6.72562 26.8121 6.6319 26.9891C6.53836 27.1658 6.38307 27.3386 6.11714 27.5149L6.11637 27.5154C2.67212 29.8074 1.40476 34.0499 3.07939 37.7025L3.07973 37.7033C4.73621 41.301 8.88642 43.4558 12.9963 42.7328C14.9068 42.3994 16.5063 41.6903 17.7547 40.6035C19.0046 39.5154 19.8767 38.0708 20.3651 36.3094L20.3651 36.3093C21.2837 32.9952 19.837 29.495 16.8454 27.4982L16.5678 27.9141ZM16.5678 27.9141C19.3988 29.8037 20.7383 33.0908 19.8833 36.1758L15.7128 16.3916C15.7128 17.0543 15.7132 17.7171 15.7136 18.3797C15.7151 21.0302 15.7166 23.6795 15.6938 26.3232C15.6938 27.0176 15.9503 27.501 16.5678 27.9141ZM0.562799 33.3706L0.562893 33.3698C0.888295 30.6436 2.17414 28.3893 4.44785 26.6045C4.6517 26.4486 4.78638 26.2631 4.85859 26.046C4.9246 25.8475 4.92689 25.6517 4.92689 25.5146V25.478V25.4414V25.4048V25.3682V25.3316V25.295V25.2583V25.2217V25.1851V25.1485V25.1119V25.0753V25.0386V25.002V24.9654V24.9288V24.8922V24.8556V24.819V24.7823V24.7457V24.7091V24.6725V24.6359V24.5993V24.5626V24.526V24.4894V24.4528V24.4162V24.3796V24.343V24.3063V24.2697V24.2331V24.1965V24.1599V24.1233V24.0866V24.05V24.0134V23.9768V23.9402V23.9036V23.867V23.8303V23.7937V23.7571V23.7205V23.6839V23.6473V23.6106V23.574V23.5374V23.5008V23.4642V23.4276V23.391V23.3543V23.3177V23.2811V23.2445V23.2079V23.1713V23.1346V23.098V23.0614V23.0248V22.9882V22.9516V22.915V22.8783V22.8417V22.8051V22.7685V22.7319V22.6953V22.6586V22.622V22.5854V22.5488V22.5122V22.4756V22.439V22.4023V22.3657V22.3291V22.2925V22.2559V22.2193V22.1826V22.146V22.1094V22.0728V22.0362V21.9996V21.963V21.9263V21.8897V21.8531V21.8165V21.7799V21.7433V21.7066V21.67V21.6334V21.5968V21.5602V21.5236V21.487V21.4503V21.4137V21.3771V21.3405V21.3039V21.2673V21.2306V21.194V21.1574V21.1208V21.0842V21.0476V21.011V20.9743V20.9377V20.9011V20.8645V20.8279V20.7913V20.7547V20.718V20.6814V20.6448V20.6082V20.5716V20.535V20.4983V20.4617V20.4251V20.3885V20.3519V20.3153V20.2787V20.242V20.2054V20.1688V20.1322V20.0956V20.059V20.0223V19.9857V19.9491V19.9125V19.8759V19.8393V19.8027V19.766V19.7294V19.6928V19.6562V19.6196V19.583V19.5463V19.5097V19.4731V19.4365V19.3999V19.3633V19.3267V19.29V19.2534V19.2168V19.1802V19.1436V19.107V19.0703V19.0337V18.9971V18.9605V18.9239V18.8873V18.8507V18.814V18.7774V18.7408V18.7042V18.6676V18.631V18.5943V18.5577V18.5211V18.4845V18.4479V18.4113V18.3747V18.338V18.3014V18.2648V18.2282V18.1916V18.155V18.1183V18.0817V18.0451V18.0085V17.9719V17.9353V17.8987V17.862V17.8254V17.7888V17.7522V17.7156V17.679V17.6423V17.6057V17.5691V17.5325V17.4959V17.4593V17.4227V17.386V17.3494V17.3128V17.2762V17.2396V17.203V17.1663V17.1297V17.0931V17.0565V17.0199V16.9833V16.9467V16.91V16.8734V16.8368V16.8002V16.7636V16.727V16.6903V16.6537V16.6171V16.5805V16.5439V16.5073V16.4707V16.434V16.3974V16.3608V16.3242V16.2876V16.251V16.2143V16.1777V16.1411V16.1045V16.0679V16.0313V15.9947V15.958V15.9214V15.8848V15.8482V15.8116V15.775V15.7383V15.7017V15.6651V15.6285V15.5919V15.5553V15.5187V15.482V15.4454V15.4088V15.3722V15.3356V15.299V15.2623V15.2257V15.1891V15.1525V15.1159V15.0793V15.0427V15.006V14.9694V14.9328V14.8962V14.8596V14.823V14.7863V14.7497V14.7131V14.6765V14.6399V14.6033V14.5667V14.53V14.4934V14.4568V14.4202V14.3836V14.347V14.3103V14.2737V14.2371V14.2005V14.1639V14.1273V14.0907V14.054V14.0174V13.9808V13.9442V13.9076V13.871V13.8343V13.7977V13.7611V13.7245V13.6879V13.6513V13.6147V13.578V13.5414V13.5048V13.4682V13.4316V13.395V13.3583V13.3217V13.2851V13.2485V13.2119V13.1753V13.1387V13.102V13.0654V13.0288V12.9922V12.9556V12.919V12.8823V12.8457V12.8091V12.7725V12.7359V12.6993V12.6627V12.626V12.5894V12.5528V12.5162V12.4796V12.443V12.4063V12.3697V12.3331V12.2965V12.2599V12.2233V12.1867V12.15V12.1134V12.0768V12.0402V12.0036V11.967V11.9303V11.8937V11.8571V11.8205V11.7839V11.7473V11.7107V11.674V11.6374V11.6008V11.5642V11.5276V11.491V11.4543V11.4177V11.3811V11.3445V11.3079V11.2713V11.2347V11.198V11.1614V11.1248V11.0882V11.0516V11.015V10.9783V10.9417V10.9051V10.8685V10.8319V10.7953V10.7587V10.722V10.6854V10.6488V10.6122V10.5756V10.539V10.5023V10.4657V10.4291V10.3925V10.3559V10.3193V10.2827V10.246V10.2094V10.1728V10.1362V10.0996V10.063V10.0263V9.98973V9.95312V9.9165V9.87988V9.84327V9.80665V9.77004V9.73342V9.69681V9.66019V9.62358V9.58696V9.55035V9.51373V9.47712V9.4405V9.40388V9.36727V9.33065V9.29404V9.25742V9.22081V9.18419V9.14758V9.11096V9.07435V9.03773V9.00112V8.9645V8.92789V8.89127V8.85465V8.81804V8.78142V8.74481V8.70819V8.67158V8.63496V8.59835V8.56173V8.52512V8.4885V8.45189V8.41527V8.37865V8.34204V8.30542V8.26881V8.23219V8.19558V8.15896V8.12235V8.08573V8.04912V8.0125V7.97589V7.93927V7.90265V7.86604V7.82942V7.79281V7.75619V7.71958V7.68296V7.64635V7.60973V7.57312V7.5365V7.49989V7.46327V7.42665V7.39004V7.35342V7.31681V7.28019V7.24358V7.20696V7.17035V7.13373V7.09712V7.0605V7.02389V6.98727V6.95065V6.91404V6.87742V6.84081V6.80419V6.76758C4.92689 4.45428 5.93055 2.6797 8.04772 1.40397C8.77006 0.969182 9.57619 0.699275 10.4555 0.575215C10.5557 0.56345 10.6405 0.534562 10.6904 0.516619C10.7098 0.509641 10.7243 0.504281 10.7356 0.5H10.7381H10.7413H10.7444H10.7476H10.7508H10.7539H10.7571H10.7603H10.7634H10.7666H10.7698H10.7729H10.7761H10.7793H10.7824H10.7856H10.7888H10.7919H10.7951H10.7983H10.8014H10.8046H10.8077H10.8109H10.8141H10.8172H10.8204H10.8236H10.8267H10.8299H10.833H10.8362H10.8394H10.8425H10.8457H10.8488H10.852H10.8552H10.8583H10.8615H10.8646H10.8678H10.871H10.8741H10.8773H10.8804H10.8836H10.8868H10.8899H10.8931H10.8962H10.8994H10.9026H10.9057H10.9089H10.912H10.9152H10.9183H10.9215H10.9247H10.9278H10.931H10.9341H10.9373H10.9404H10.9436H10.9468H10.9499H10.9531H10.9562H10.9594H10.9625H10.9657H10.9688H10.972H10.9752H10.9783H10.9815H10.9846H10.9878H10.9909H10.9941H10.9972H11.0004H11.0035H11.0067H11.0099H11.013H11.0162H11.0193H11.0225H11.0256H11.0288H11.0319H11.0351H11.0382H11.0414H11.0445H11.0477H11.0508H11.054H11.0571H11.0603H11.0634H11.0666H11.0698H11.0729H11.0761H11.0792H11.0824H11.0855H11.0887H11.0918H11.095H11.0981H11.1013H11.1044H11.1076H11.1107H11.1139H11.117H11.1202H11.1233H11.1265H11.1296H11.1328H11.1359H11.1391H11.1422H11.1454H11.1485H11.1517H11.1548H11.158H11.1611H11.1643H11.1674H11.1705H11.1737H11.1768H11.18H11.1831H11.1863H11.1894H11.1926H11.1957H11.1989H11.202H11.2052H11.2083H11.2115H11.2146H11.2178H11.2209H11.2241H11.2272H11.2304H11.2335H11.2367H11.2398H11.2429H11.2461H11.2492H11.2524H11.2555H11.2587H11.2618H11.265H11.2681H11.2713H11.2744H11.2776H11.2807H11.2839H11.287H11.2901H11.2933H11.2964H11.2996H11.3027H11.3059H11.309H11.3122H11.3153H11.3185H11.3216H11.3247H11.3279H11.331H11.3342H11.3373H11.3405H11.3436H11.3468H11.3499H11.3531H11.3562H11.3594H11.3625H11.3656H11.3688H11.3719H11.3751H11.3782H11.3814H11.3845H11.3877H11.3908H11.3939H11.3971H11.4002H11.4034H11.4065H11.4097H11.4128H11.416H11.4191H11.4223H11.4254H11.4285H11.4317H11.4348H11.438H11.4411H11.4443H11.4474H11.4506H11.4537H11.4569H11.46H11.4631H11.4663H11.4694H11.4726H11.4757H11.4789H11.482H11.4852H11.4883H11.4914H11.4946H11.4977H11.5009H11.504H11.5072H11.5103H11.5135H11.5166H11.5198H11.5229H11.526H11.5292H11.5323H11.5355H11.5386H11.5418H11.5449H11.5481H11.5512H11.5543H11.5575H11.5606H11.5638H11.5669H11.5701H11.5732H11.5764H11.5795H11.5827H11.5858H11.589H11.5921H11.5952H11.5984H11.6015H11.6047H11.6078H11.611H11.6141H11.6173H11.6204H11.6236H11.6267H11.6298H11.633H11.6361H11.6393H11.6424H11.6456H11.6487H11.6519H11.655H11.6582H11.6613H11.6645H11.6676H11.6708H11.6739H11.677H11.6802H11.6833H11.6865H11.6896H11.6928H11.6959H11.6991H11.7022H11.7054H11.7085H11.7117H11.7148H11.718H11.7211H11.7243H11.7274H11.7306H11.7337H11.7369H11.74H11.7432H11.7463H11.7494H11.7526H11.7557H11.7589H11.762H11.7652H11.7683H11.7715H11.7746H11.7778H11.7809H11.7841H11.7872H11.7904H11.7935H11.7967H11.7998H11.803H11.8061H11.8093H11.8124H11.8156H11.8187H11.8219H11.825H11.8282H11.8313H11.8345H11.8376H11.8408H11.8439H11.8471H11.8503H11.8534H11.8566H11.8597H11.8629H11.866H11.8692H11.8723H11.8755H11.8786H11.8818H11.8849H11.8881H11.8912H11.8944H11.8975H11.9007H11.9038H11.907H11.9102H11.9133H11.9165H11.9196H11.9228H11.9259H11.9291H11.9322H11.9354H11.9385H11.9417H11.9449H11.948H11.9512H11.9543H11.9575H11.9606H11.9638H11.9669H11.9701H11.9733H11.9764H11.9796H11.9827H11.9859H11.989H11.9922H11.9954H11.9985H12.0017H12.0048H12.008H12.0111H12.0143H12.0175H12.0206H12.0238H12.0269H12.0301H12.0333H12.0364H12.0396H12.0427H12.0459H12.0491H12.0522H12.0554H12.0585H12.0617H12.0649H12.068H12.0712H12.0743H12.0775H12.0807H12.0838H12.087H12.0901H12.0933H12.0965H12.0996H12.1028H12.106H12.1091H12.1123H12.1154H12.1186H12.1218H12.1249H12.1281H12.1313H12.1344H12.1376H12.1408H12.1439H12.1471H12.1503H12.1534H12.1566H12.1598H12.1629H12.1661H12.1693H12.1724H12.1756H12.1788H12.1819H12.1851H12.1883H12.1914H12.1946H12.1978H12.2009H12.2041H12.2073H12.2104H12.2136H12.2149C12.2267 0.502358 12.2385 0.504713 12.2503 0.507065C12.5772 0.57234 12.8942 0.635624 13.1944 0.712787L13.1969 0.713409C16.1376 1.45316 18.0358 3.79048 18.0533 6.63003V6.63016C18.066 8.60241 18.0618 10.569 18.0575 12.5393C18.0554 13.5262 18.0533 14.514 18.0533 15.5039C18.0533 18.8527 18.0533 22.2094 18.0438 25.5572V25.5586C18.0438 25.7718 18.0807 25.9787 18.1813 26.1764C18.2795 26.3695 18.421 26.5193 18.5763 26.6467C20.3306 28.1169 21.5032 29.7388 22.0803 31.4885C22.6563 33.2349 22.6515 35.1456 21.9909 37.2193C20.6992 41.2635 17.6172 43.6271 13.0547 44.4016L13.0516 44.4021L12.7523 44.4549L12.4961 44.5H12.4957H12.4917H12.4877H12.4837H12.4797H12.4757H12.4716H12.4676H12.4636H12.4596H12.4556H12.4516H12.4476H12.4435H12.4395H12.4355H12.4315H12.4275H12.4234H12.4194H12.4154H12.4114H12.4074H12.4033H12.3993H12.3953H12.3913H12.3872H12.3832H12.3792H12.3752H12.3711H12.3671H12.3631H12.3591H12.355H12.351H12.347H12.343H12.3389H12.3349H12.3309H12.3269H12.3228H12.3188H12.3148H12.3107H12.3067H12.3027H12.2986H12.2946H12.2906H12.2865H12.2825H12.2785H12.2744H12.2704H12.2664H12.2623H12.2583H12.2543H12.2502H12.2462H12.2422H12.2381H12.2341H12.2301H12.226H12.222H12.2179H12.2139H12.2099H12.2058H12.2018H12.1977H12.1937H12.1897H12.1856H12.1816H12.1775H12.1735H12.1695H12.1654H12.1614H12.1573H12.1533H12.1492H12.1452H12.1411H12.1371H12.1331H12.129H12.125H12.1209H12.1169H12.1128H12.1088H12.1047H12.1007H12.0966H12.0926H12.0885H12.0845H12.0804H12.0764H12.0723H12.0683H12.0642H12.0602H12.0561H12.0521H12.048H12.044H12.0399H12.0359H12.0318H12.0278H12.0237H12.0197H12.0156H12.0116H12.0075H12.0035H11.9994H11.9954H11.9913H11.9872H11.9832H11.9791H11.9751H11.971H11.967H11.9629H11.9588H11.9548H11.9507H11.9467H11.9426H11.9386H11.9345H11.9304H11.9264H11.9223H11.9183H11.9142H11.9101H11.9061H11.902H11.898H11.8939H11.8898H11.8858H11.8817H11.8777H11.8736H11.8695H11.8655H11.8614H11.8573H11.8533H11.8492H11.8452H11.8411H11.837H11.833H11.8289H11.8248H11.8208H11.8167H11.8126H11.8086H11.8045H11.8004H11.7964H11.7923H11.7882H11.7842H11.7801H11.776H11.772H11.7679H11.7638H11.7598H11.7557H11.7516H11.7476H11.7435H11.7394H11.7354H11.7313H11.7272H11.7231H11.7191H11.715H11.7109H11.7069H11.7028H11.6987H11.6947H11.6906H11.6865H11.6824H11.6784H11.6743H11.6702H11.6662H11.6621H11.658H11.6539H11.6499H11.6458H11.6417H11.6376H11.6336H11.6295H11.6254H11.6214H11.6173H11.6132H11.6091H11.6051H11.601H11.5969H11.5928H11.5888H11.5847H11.5806H11.5765H11.5725H11.5684H11.5643H11.5602H11.5562H11.5521H11.548H11.5439H11.5399H11.5358H11.5317H11.5276H11.5235H11.5195H11.5154H11.5113H11.5072H11.5032H11.4991H11.495H11.4909H11.4869H11.4828H11.4787H11.4746H11.4705H11.4665H11.4624H11.4583H11.4542H11.4501H11.4461H11.442H11.4379H11.4338H11.4298H11.4257H11.4216H11.4175H11.4134H11.4094H11.4053H11.4012H11.3971H11.393H11.389H11.3849H11.3808H11.3767H11.3726H11.3686H11.3645H11.3604H11.3563H11.3522H11.3482H11.3441H11.34H11.3359H11.3318H11.3278H11.3237H11.3196H11.3155H11.3114H11.3073H11.3033H11.2992H11.2951H11.291H11.2869H11.2829H11.2788H11.2747H11.2706H11.2665H11.2625H11.2584H11.2543H11.2502H11.2461H11.242H11.238H11.2339H11.2298H11.2257H11.2216H11.2176H11.2135H11.2094H11.2053H11.2012H11.1971H11.1931H11.189H11.1849H11.1808H11.1767H11.1727H11.1686H11.1645H11.1604H11.1563H11.1522H11.1482H11.1441H11.14H11.1359H11.1318H11.1277H11.1237H11.1196H11.1155H11.1114H11.1073H11.1033H11.0992H11.0951H11.091H11.0869H11.0828H11.0788H11.0747H11.0706H11.0665H11.0624H11.0584H11.0543H11.0502H11.0461H11.042H11.0379H11.0339H11.0298H11.0257H11.0216H11.0175H11.0135H11.0094H11.0053H11.0012H10.9971H10.9931H10.989H10.9849H10.9808H10.9767H10.9727H10.9686H10.9645H10.9604H10.9563H10.9522H10.9482H10.9441H10.94H10.9359H10.9318H10.9278H10.9237H10.9196H10.9155H10.9114H10.9074H10.9033H10.8992H10.8951H10.8911H10.887H10.8829H10.8788H10.8747H10.8707H10.8666H10.8625H10.8584H10.8543H10.8503H10.8462H10.8421H10.838H10.8339H10.8299H10.8258H10.8217H10.8176H10.8136H10.8095H10.8054H10.8013H10.7972H10.7932H10.7891H10.785H10.7809H10.7769H10.7728H10.7687H10.7646H10.7606H10.7565H10.7524H10.7483H10.7443H10.7402H10.7361H10.732H10.728H10.7239H10.7198H10.7157H10.7117H10.7076H10.7035H10.6994H10.6954H10.6913H10.6872H10.6831H10.6791H10.675H10.6709H10.6668H10.6628H10.6587H10.6546H10.6506H10.6465H10.6424H10.6383H10.6343H10.6302H10.6261H10.6221H10.618H10.6139H10.6098H10.6058H10.6017H10.5976H10.5936H10.5895H10.5854H10.5814H10.5773H10.5732H10.5691H10.5651H10.561H10.5569H10.5529H10.5488H10.5447H10.5407H10.5366H10.5325H10.5285H10.5244H10.5203H10.5163H10.5133C10.2172 44.4358 9.92941 44.3791 9.64751 44.3237C9.02774 44.2017 8.43664 44.0854 7.85029 43.9065C3.11091 42.4589 0.0150677 37.8981 0.562799 33.3706Z" stroke="#02E602"/>
<path d="M27.5012 7.00747L27.4956 7.50744C28.1116 7.51436 28.506 7.93111 28.4999 8.50609C28.4938 9.07714 28.1127 9.47187 27.5081 9.48574L27.5081 9.48573L27.505 9.48582C26.9999 9.5005 26.4975 9.49868 25.9856 9.49683C25.8128 9.4962 25.6389 9.49557 25.4634 9.49557C25.2383 9.49557 25.0169 9.4967 24.7974 9.49782C24.3657 9.50002 23.941 9.50219 23.5082 9.49566C23.1757 9.48789 22.9272 9.37176 22.7646 9.20839C22.6027 9.04568 22.4968 8.80706 22.5001 8.49683C22.5034 8.18367 22.6131 7.94596 22.7769 7.78572C22.9413 7.625 23.1918 7.51136 23.5309 7.50745C24.8531 7.49751 26.1753 7.49752 27.4975 7.50746L27.5012 7.00747ZM27.5012 7.00747C26.1762 6.99751 24.8512 6.99751 23.5262 7.00747L28.9999 8.51148C29.009 7.65489 28.3876 7.01743 27.5012 7.00747Z" stroke="#02E602"/>
<path d="M27.5469 12.01C26.1762 11.9967 24.8055 11.9967 23.4348 12.01C22.6032 12.0166 22.0092 12.4419 22.0001 12.9935C21.991 13.5584 22.5941 13.9838 23.4531 13.997M27.5469 12.01L23.4531 13.997M27.5469 12.01C28.3968 12.0166 29.009 12.4552 28.9999 13.0135L27.5469 12.01ZM23.4531 13.997L23.4608 13.4971C23.4604 13.4971 23.4599 13.4971 23.4595 13.4971C23.459 13.4971 23.4585 13.4971 23.458 13.4971L23.4531 13.997ZM27.5132 13.4971C27.5128 13.4971 27.5123 13.4971 27.5119 13.4971L27.5195 13.997L27.5147 13.4971C27.5142 13.4971 27.5137 13.4971 27.5132 13.4971ZM22.0002 12.9935L22.5 13.0018C22.5 13.0018 22.5 13.0017 22.5 13.0016L22.0002 12.9935Z" stroke="#02E602"/>
<path d="M27.5926 17.0149C26.2036 16.995 24.8238 16.995 23.4348 17.0149C22.5941 17.0249 22.0092 17.6619 22.0001 18.4881M27.5926 17.0149L22.5001 18.4936L22.0001 18.4881M27.5926 17.0149C28.4151 17.0249 29.009 17.6918 28.9999 18.518C28.9908 19.3441 28.3968 19.9712 27.5652 19.9912L27.5926 17.0149ZM22.0001 18.4881L22.5001 18.4935M22.0001 18.4881L22.5001 18.4935M22.5001 18.4935C22.5065 17.9187 22.8916 17.5214 23.4407 17.5149L23.4419 17.5149M22.5001 18.4935L23.4419 17.5149M23.4419 17.5149C24.8262 17.495 26.2012 17.495 27.5855 17.5149L27.5866 17.5149M23.4419 17.5149L27.5866 17.5149M27.5866 17.5149C28.1063 17.5212 28.5063 17.9346 28.4999 18.5124C28.4937 19.0795 28.1055 19.4781 27.5532 19.4913L27.5511 19.4914M27.5866 17.5149L27.5511 19.4914M27.5511 19.4914C27.0903 19.5044 26.6374 19.5001 26.1763 19.4957C25.9415 19.4934 25.7046 19.4912 25.4634 19.4912C25.236 19.4912 25.0103 19.4923 24.7857 19.4934M27.5511 19.4914L24.7857 19.4934M24.7857 19.4934C24.3418 19.4956 23.9023 19.4978 23.4627 19.4912L24.7857 19.4934Z" stroke="#02E602"/>
<path d="M23.4807 24.4901L23.479 24.4901C22.8881 24.4832 22.5001 24.0846 22.5001 23.5174H22.5001L22.5001 23.512C22.4938 22.9324 22.8863 22.5215 23.4607 22.5149L23.4623 22.5149C24.8116 22.495 26.1701 22.495 27.5194 22.5149L27.521 22.5149C28.1145 22.5217 28.4999 22.9238 28.4999 23.4975H28.4999L28.4999 23.5028C28.5032 23.8101 28.3965 24.0484 28.2326 24.2121C28.0683 24.3761 27.8195 24.4915 27.4933 24.5H27.4932H27.493H27.4929H27.4927H27.4925H27.4924H27.4922H27.492H27.4919H27.4917H27.4915H27.4913H27.4912H27.491H27.4908H27.4907H27.4905H27.4903H27.4901H27.49H27.4898H27.4896H27.4895H27.4893H27.4891H27.4889H27.4888H27.4886H27.4884H27.4883H27.4881H27.4879H27.4877H27.4876H27.4874H27.4872H27.487H27.4869H27.4867H27.4865H27.4863H27.4862H27.486H27.4858H27.4856H27.4855H27.4853H27.4851H27.4849H27.4848H27.4846H27.4844H27.4842H27.4841H27.4839H27.4837H27.4835H27.4834H27.4832H27.483H27.4828H27.4826H27.4825H27.4823H27.4821H27.4819H27.4818H27.4816H27.4814H27.4812H27.481H27.4809H27.4807H27.4805H27.4803H27.4802H27.48H27.4798H27.4796H27.4794H27.4793H27.4791H27.4789H27.4787H27.4785H27.4784H27.4782H27.478H27.4778H27.4776H27.4775H27.4773H27.4771H27.4769H27.4767H27.4765H27.4764H27.4762H27.476H27.4758H27.4756H27.4755H27.4753H27.4751H27.4749H27.4747H27.4745H27.4744H27.4742H27.474H27.4738H27.4736H27.4734H27.4733H27.4731H27.4729H27.4727H27.4725H27.4723H27.4722H27.472H27.4718H27.4716H27.4714H27.4712H27.4711H27.4709H27.4707H27.4705H27.4703H27.4701H27.47H27.4698H27.4696H27.4694H27.4692H27.469H27.4688H27.4687H27.4685H27.4683H27.4681H27.4679H27.4677H27.4676H27.4674H27.4672H27.467H27.4668H27.4666H27.4664H27.4663H27.4661H27.4659H27.4657H27.4655H27.4653H27.4651H27.465H27.4648H27.4646H27.4644H27.4642H27.464H27.4638H27.4636H27.4635H27.4633H27.4631H27.4629H27.4627H27.4625H27.4623H27.4622H27.462H27.4618H27.4616H27.4614H27.4612H27.461H27.4608H27.4607H27.4605H27.4603H27.4601H27.4599H27.4597H27.4595H27.4594H27.4592H27.459H27.4588H27.4586H27.4584H27.4582H27.458H27.4579H27.4577H27.4575H27.4573H27.4571H27.4569H27.4567H27.4565H27.4564H27.4562H27.456H27.4558H27.4556H27.4554H27.4552H27.455H27.4549H27.4547H27.4545H27.4543H27.4541H27.4539H27.4537H27.4535H27.4534H27.4532H27.453H27.4528H27.4526H27.4524H27.4522H27.452H27.4518H27.4517H27.4515H27.4513H27.4511H27.4509H27.4507H27.4505H27.4503H27.4502H27.45H27.4498H27.4496H27.4494H27.4492H27.449H27.4488H27.4487H27.4485H27.4483H27.4481H27.4479H27.4477H27.4475H27.4474H27.4472H27.447H27.4468H27.4466H27.4464H27.4462H27.446H27.4459H27.4457H27.4455H27.4453H27.4451H27.4449H27.4447H27.4445H27.4444H27.4442H27.444H27.4438H27.4436H27.4434H27.4432H27.4431H27.4429H27.4427H27.4425H27.4423H27.4421H27.4419H27.4418H27.4416H27.4414H27.4412H27.441H27.4408H27.4406H27.4404H27.4403H27.4401H27.4399H27.4397H27.4395H27.4393H27.4392H27.439H27.4388H27.4386H27.4384H27.4382H27.438H27.4379H27.4377H27.4375H27.4373H27.4371H27.4369H27.4367H27.4366H27.4364H27.4362H27.436H27.4358H27.4356H27.4355H27.4353H27.4351H27.4349H27.4347H27.4345H27.4344H27.4342H27.434H27.4338H27.4336H27.4334H27.4333H27.4331H27.4329H27.4327H27.4325H27.4323H27.4322H27.432H27.4318H27.4316H27.4314H27.4313H27.4311H27.4309H27.4307H27.4305H27.4303H27.4302H27.43H27.4298H27.4296H27.4294H27.4293H27.4291H27.4289H27.4287H27.4285H27.4284H27.4282H27.428H27.4278H27.4276H27.4275H27.4273H27.4271H27.4269H27.4267H27.4266H27.4264H27.4262H27.426H27.4259H27.4257H27.4255H27.4253H27.4251H27.425H27.4248H27.4246H27.4244H27.4242H27.4241H27.4239H27.4237H27.4235H27.4234H27.4232H27.423H27.4228H27.4227H27.4225H27.4223H27.4221H27.422H27.4218H27.4216H27.4214H27.4213H27.4211H27.4209H27.4207H27.4206H27.4204H27.4202H27.42H27.4199H27.4197H27.4195H27.4193H27.4192H27.419H27.4188H27.4186H27.4185H27.4183H27.4181H27.418H27.4178H27.4176H27.4174H27.4173H27.4171H27.4169H27.4168H27.4166H27.4164H27.4162H27.4161H27.4159H27.4157H27.4156H27.4154H27.4152H27.4151H27.4149H27.4147H27.4145H27.4144H27.4142H27.414H27.4139H27.4137H27.4135H27.4134H27.4132H27.413H27.4129H27.4127H27.4125H27.4124H27.4122H27.412H27.4119H27.4117H27.4117C26.7687 24.4901 26.1264 24.4901 25.4886 24.4901H25.4863C25.2586 24.4901 25.0326 24.4912 24.8077 24.4923C24.3625 24.4945 23.9216 24.4967 23.4807 24.4901Z" stroke="#02E602"/>
<path d="M11.2775 29.084L10.8991 29.1789L11.2775 29.084ZM11.2775 29.084V28.6939M11.2775 29.084V28.6939M11.2775 28.6939V28.693V28.6921V28.6912V28.6903V28.6894V28.6885V28.6876V28.6867V28.6859V28.685V28.6841V28.6832V28.6823V28.6814V28.6805V28.6796V28.6788V28.6779V28.677V28.6761V28.6752V28.6743V28.6735V28.6726V28.6717V28.6708V28.6699V28.669V28.6682V28.6673V28.6664V28.6655V28.6646V28.6638V28.6629V28.662V28.6611V28.6602V28.6594V28.6585V28.6576V28.6567V28.6558V28.655V28.6541V28.6532V28.6523V28.6515V28.6506V28.6497V28.6488V28.648V28.6471V28.6462V28.6453V28.6445V28.6436V28.6427V28.6418V28.641V28.6401V28.6392V28.6383V28.6375V28.6366V28.6357V28.6349V28.634V28.6331V28.6322V28.6314V28.6305V28.6296V28.6288V28.6279V28.627V28.6262V28.6253V28.6244V28.6236V28.6227V28.6218V28.621V28.6201V28.6192V28.6184V28.6175V28.6166V28.6158V28.6149V28.614V28.6132V28.6123V28.6114V28.6106V28.6097V28.6089V28.608V28.6071V28.6063V28.6054V28.6045V28.6037V28.6028V28.602V28.6011V28.6002V28.5994V28.5985V28.5977V28.5968V28.5959V28.5951V28.5942V28.5934V28.5925V28.5916V28.5908V28.5899V28.5891V28.5882V28.5874V28.5865V28.5856V28.5848V28.5839V28.5831V28.5822V28.5814V28.5805V28.5797V28.5788V28.5779V28.5771V28.5762V28.5754V28.5745V28.5737V28.5728V28.572V28.5711V28.5703V28.5694V28.5686V28.5677V28.5669V28.566V28.5652V28.5643V28.5635V28.5626V28.5618V28.5609V28.5601V28.5592V28.5584V28.5575V28.5567V28.5558V28.555V28.5541V28.5533V28.5524V28.5516V28.5507V28.5499V28.549V28.5482V28.5473V28.5465V28.5457V28.5448V28.544V28.5431V28.5423V28.5414V28.5406V28.5397V28.5389V28.5381V28.5372V28.5364V28.5355V28.5347V28.5338V28.533V28.5321V28.5313V28.5305V28.5296V28.5288V28.5279V28.5271V28.5263V28.5254V28.5246V28.5237V28.5229V28.5221V28.5212V28.5204V28.5195V28.5187V28.5179V28.517V28.5162V28.5153V28.5145V28.5137V28.5128V28.512V28.5112V28.5103V28.5095V28.5086V28.5078V28.507V28.5061V28.5053V28.5045V28.5036V28.5028V28.5019V28.5011V28.5003V28.4994V28.4986V28.4978V28.4969V28.4961V28.4953V28.4944V28.4936V28.4928V28.4919V28.4911V28.4903V28.4894V28.4886V28.4878V28.4869V28.4861V28.4853V28.4844V28.4836V28.4828V28.4819V28.4811V28.4803V28.4795V28.4786V28.4778V28.477V28.4761V28.4753V28.4745V28.4736V28.4728V28.472V28.4712V28.4703V28.4695V28.4687V28.4678V28.467V28.4662V28.4653V28.4645V28.4637V28.4629V28.462V28.4612V28.4604V28.4596V28.4587V28.4579V28.4571V28.4562V28.4554V28.4546V28.4538V28.4529V28.4521V28.4513V28.4505V28.4496V28.4488V28.448V28.4472V28.4463V28.4455V28.4447V28.4439V28.443V28.4422V28.4414V28.4406V28.4397V28.4389V28.4381V28.4373V28.4364V28.4356V28.4348V28.434V28.4332V28.4323V28.4315V28.4307V28.4299V28.429V28.4282V28.4274V28.4266V28.4258V28.4249V28.4241V28.4233V28.4225V28.4216V28.4208V28.42V28.4192V28.4184V28.4175V28.4167V28.4159V28.4151V28.4143V28.4134V28.4126V28.4118V28.411V28.4102V28.4093V28.4085V28.4077V28.4069V28.4061V28.4052V28.4044V28.4036V28.4028V28.402V28.4012V28.4003V28.3995V28.3987V28.3979V28.3971V28.3962V28.3954V28.3946V28.3938V28.393V28.3922V28.3913V28.3905V28.3897V28.3889V28.3881V28.3873V28.3864V28.3856V28.3848V28.384V28.3832V28.3824V28.3815V28.3807V28.3799V28.3791V28.3783V28.3775V28.3766V28.3758V28.375V28.3742V28.3734V28.3726V28.3718V28.3709V28.3701V28.3693V28.3685V28.3677V28.3669V28.366V28.3652V28.3644V28.3636V28.3628V28.362V28.3612V28.3603V28.3595V28.3587V28.3579V28.3571V28.3563V28.3555V28.3547V28.3538V28.353V28.3522V28.3514V28.3506V28.3498V28.349V28.3481V28.3473V28.3465V28.3457V28.3449V28.3441V28.3433V28.3425V28.3416V28.3408V28.34V28.3392V28.3384V28.3376V28.3368V28.336V28.3351V28.3343V28.3335V28.3327V28.3319V28.3311V28.3303V28.3295V28.3287V28.3278V28.327V28.3262V28.3254V28.3246V28.3238V28.323V28.3222V28.3214V28.3205V28.3197V28.3189V28.3181V28.3173V28.3165V28.3157V28.3149V28.3141V28.3132V28.3124V28.3116V28.3108V28.31V28.3092V28.3084V28.3076V28.3068V28.3059V28.3051V28.3043V28.3035V28.3027V28.3019V28.3011V28.3003V28.2995V28.2987V28.2978V28.297V28.2962V28.2954V28.2946V28.2938V28.293V28.2922V28.2914V28.2905V28.2897V28.2889V28.2881V28.2873V28.2865V28.2857V28.2849V28.2841V28.2833V28.2824V28.2816V28.2808V28.28V28.2792V28.2784V28.2776V28.2768V28.276V28.2752V28.2744V28.2735V28.2727V28.2719V28.2711V28.2703V28.2695V28.2687V28.2679V28.2671V28.2663V28.2654V28.2401V28.2147V28.1893V28.1639V28.1385V28.1131V28.0877V28.0624V28.037V28.0116V27.9862V27.9608V27.9354V27.9101V27.8847V27.8593V27.8339V27.8085V27.7831V27.7578V27.7324V27.707V27.6816V27.6562V27.6308V27.6055V27.5801V27.5547V27.5293V27.5039V27.4786V27.4532V27.4278V27.4024V27.377V27.3517V27.3263V27.3009V27.2755V27.2501V27.2247V27.1994V27.174V27.1486V27.1232V27.0979V27.0725V27.0471V27.0217V26.9963V26.971V26.9456V26.9202V26.8948V26.8694V26.8441V26.8187V26.7933V26.7679V26.7426V26.7172V26.6918V26.6664V26.641V26.6157V26.5903V26.5649V26.5395V26.5142V26.4888V26.4634V26.438V26.4127V26.3873V26.3619V26.3365V26.3112V26.2858V26.2604V26.235V26.2097V26.1843V26.1589V26.1335V26.1082V26.0828V26.0574V26.032V26.0067V25.9813V25.9559V25.9305V25.9052V25.8798V25.8544V25.829V25.8037V25.7783V25.7529V25.7275V25.7022V25.6768V25.6514V25.6261V25.6007V25.5753V25.5499V25.5246V25.4992V25.4738V25.4484V25.4231V25.3977V25.3723V25.347V25.3216V25.2962V25.2708V25.2455V25.2201V25.1947V25.1694V25.144V25.1186V25.0932V25.0679V25.0425V25.0171V24.9918V24.9664V24.941V24.9157V24.8903V24.8649V24.8395V24.8142V24.7888V24.7634V24.7381V24.7127V24.6873V24.662V24.6366V24.6112V24.5858V24.5605V24.5351V24.5097V24.4844V24.459V24.4336V24.4083V24.3829V24.3575V24.3322V24.3068V24.2814V24.256V24.2307V24.2053V24.1799V24.1546V24.1292V24.1038V24.0785V24.0531V24.0277V24.0024V23.977V23.9516V23.9263V23.9009V23.8755V23.8502V23.8248V23.7994V23.7741V23.7487V23.7233V23.698V23.6726V23.6472V23.6218V23.5965V23.5711V23.5457V23.5204V23.495V23.4696V23.4443V23.4189V23.3935V23.3682V23.3428V23.3174V23.2921V23.2667V23.2413V23.216V23.1906V23.1652V23.1399V23.1145V23.0891V23.0638V23.0384V23.013V22.9877V22.9623V22.9369V22.9116V22.8862V22.8608V22.8355V22.8101V22.7847V22.7594V22.734V22.7087V22.6833V22.6579V22.6326V22.6072V22.5818V22.5565V22.5311V22.5057V22.4804V22.455V22.4296V22.4043V22.3789V22.3535V22.3282V22.3028V22.2774V22.2521V22.2267V22.2013V22.176V22.1506V22.1252V22.0999V22.0745V22.0491V22.0238V21.9984V21.973V21.9477V21.9223V21.8969V21.8716V21.8462V21.8209V21.7955V21.7701V21.7448V21.7194V21.694V21.6687V21.6433V21.6179V21.5926V21.5672V21.5418V21.5165V21.4911V21.4657V21.4404V21.415V21.3896V21.3643V21.3389V21.3135V21.2882V21.2628V21.2374V21.2121V21.1867V21.1613V21.136V21.1106V21.0852V21.0599V21.0345V21.0091V20.9838V20.9584V20.9331V20.9077V20.8823V20.857V20.8316V20.8062V20.7809V20.7555V20.7301V20.7048V20.6794V20.654V20.6287V20.6033V20.5779V20.5526V20.5272V20.5018V20.4765V20.4511V20.4257V20.4004V20.375V20.3496V20.3243V20.2989V20.2735V20.2482V20.2228V20.1974V20.1721V20.1467V20.1213V20.096V20.0706V20.0452V20.0199V19.9945V19.9691V19.9438V19.9184V19.893V19.8677V19.8423V19.8169V19.7916V19.7662V19.7408V19.7154V19.6901V19.6647V19.6393V19.614V19.5886V19.5632V19.5379V19.5125V19.4871V19.4618V19.4364V19.411V19.3857V19.3603V19.3349V19.3096V19.2842V19.2588V19.2335V19.2081V19.1827V19.1573V19.132V19.1066V19.0812V19.0559V19.0305V19.0051V18.9798V18.9544V18.929V18.9037V18.8783V18.8529V18.8275V18.8022V18.7768V18.7514V18.7261V18.7007V18.6753V18.65V18.6246V18.5992V18.5738V18.5485V18.5231V18.4977V18.4724V18.447V18.4216V18.3963V18.3709V18.3455V18.3201V18.2948V18.2694V18.244V18.2187V18.1933V18.1679V18.1425V18.1172V18.0918V18.0664V18.041V18.0157V17.9903V17.9649V17.9396V17.9142V17.8888V17.8634V17.8381V17.8127V17.7873V17.7619V17.7366V17.7112V17.6858V17.6605V17.6351V17.6097V17.5843V17.559V17.5336V17.5082V17.4828V17.4575V17.4321V17.4067V17.3813V17.356V17.3306V17.3052V17.2798V17.2545V17.2291V17.2037V17.1783V17.153V17.1276V17.1022V17.0768V17.0515V17.0261V17.0007V16.9753V16.9499V16.9246V16.8992V16.8738V16.8484V16.8231V16.7977V16.7723V16.7469V16.7216V16.6962V16.6708V16.6454V16.62V16.5947V16.5693V16.5439V16.5185V16.4931V16.4678V16.4424V16.417V16.3916V16.3662V16.3409V16.3155V16.2901V16.2647V16.2393V16.214V16.1886V16.1632V16.1378V16.1124V16.0871V16.0617V16.0363V16.0109V15.9855V15.9602V15.9348V15.9094V15.884V15.8586V15.8332V15.8079V15.7825V15.7571V15.7317V15.7063V15.6809V15.6556V15.6302V15.6048V15.5794V15.554V15.5286V15.5033V15.4779V15.4525V15.4271V15.4017V15.3763V15.351V15.3256V15.3002V15.2748C11.2775 15.2572 11.2775 15.2406 11.2775 15.225C11.2774 15.0621 11.2773 15.0042 11.2942 14.952L11.297 14.9434M11.2775 28.6939L11.297 14.9434M11.297 14.9434L11.2995 14.9347M11.297 14.9434L11.2995 14.9347M11.2995 14.9347C11.3615 14.7163 11.6742 14.475 12.0513 14.5019C12.4854 14.5372 12.7111 14.8057 12.7313 15.018L12.7322 15.0271M11.2995 14.9347L12.7322 15.0271M12.7322 15.0271L12.7333 15.0361M12.7322 15.0271L12.7333 15.0361M12.7333 15.0361C12.7406 15.091 12.7398 15.1388 12.7386 15.2162C12.738 15.253 12.7373 15.2966 12.7373 15.3508V15.376V15.4013V15.4265V15.4517V15.4769V15.5021V15.5274V15.5526V15.5778V15.603V15.6283V15.6535V15.6787V15.7039V15.7292V15.7544V15.7796V15.8048V15.8301V15.8553V15.8805V15.9057V15.931V15.9562V15.9814V16.0066V16.0319V16.0571V16.0823V16.1075V16.1327V16.158V16.1832V16.2084V16.2336V16.2589V16.2841V16.3093V16.3345V16.3598V16.385V16.4102V16.4354V16.4607V16.4859V16.5111V16.5363V16.5616V16.5868V16.612V16.6372V16.6625V16.6877V16.7129V16.7381V16.7634V16.7886V16.8138V16.839V16.8642V16.8895V16.9147V16.9399V16.9651V16.9904V17.0156V17.0408V17.066V17.0913V17.1165V17.1417V17.1669V17.1922V17.2174V17.2426V17.2678V17.2931V17.3183V17.3435V17.3687V17.394V17.4192V17.4444V17.4696V17.4949V17.5201V17.5453V17.5705V17.5958V17.621V17.6462V17.6714V17.6967V17.7219V17.7471V17.7723V17.7976V17.8228V17.848V17.8732V17.8985V17.9237V17.9489V17.9741V17.9994V18.0246V18.0498V18.0751V18.1003V18.1255V18.1507V18.176V18.2012V18.2264V18.2516V18.2769V18.3021V18.3273V18.3525V18.3778V18.403V18.4282V18.4534V18.4787V18.5039V18.5291V18.5543V18.5796V18.6048V18.63V18.6553V18.6805V18.7057V18.7309V18.7562V18.7814V18.8066V18.8318V18.8571V18.8823V18.9075V18.9327V18.958V18.9832V19.0084V19.0337V19.0589V19.0841V19.1093V19.1346V19.1598V19.185V19.2102V19.2355V19.2607V19.2859V19.3112V19.3364V19.3616V19.3868V19.4121V19.4373V19.4625V19.4878V19.513V19.5382V19.5634V19.5887V19.6139V19.6391V19.6644V19.6896V19.7148V19.74V19.7653V19.7905V19.8157V19.841V19.8662V19.8914V19.9166V19.9419V19.9671V19.9923V20.0176V20.0428V20.068V20.0932V20.1185V20.1437V20.1689V20.1942V20.2194V20.2446V20.2698V20.2951V20.3203V20.3455V20.3708V20.396V20.4212V20.4465V20.4717V20.4969V20.5221V20.5474V20.5726V20.5978V20.6231V20.6483V20.6735V20.6988V20.724V20.7492V20.7745V20.7997V20.8249V20.8502V20.8754V20.9006V20.9258V20.9511V20.9763V21.0015V21.0268V21.052V21.0772V21.1025V21.1277V21.1529V21.1782V21.2034V21.2286V21.2539V21.2791V21.3043V21.3296V21.3548V21.38V21.4053V21.4305V21.4557V21.481V21.5062V21.5314V21.5567V21.5819V21.6071V21.6324V21.6576V21.6828V21.7081V21.7333V21.7585V21.7838V21.809V21.8342V21.8595V21.8847V21.9099V21.9352V21.9604V21.9856V22.0109V22.0361V22.0613V22.0866V22.1118V22.137V22.1623V22.1875V22.2127V22.238V22.2632V22.2885V22.3137V22.3389V22.3642V22.3894V22.4146V22.4399V22.4651V22.4903V22.5156V22.5408V22.566V22.5913V22.6165V22.6418V22.667V22.6922V22.7175V22.7427V22.7679V22.7932V22.8184V22.8437V22.8689V22.8941V22.9194V22.9446V22.9698V22.9951V23.0203V23.0456V23.0708V23.096V23.1213V23.1465V23.1718V23.197V23.2222V23.2475V23.2727V23.2979V23.3232V23.3484V23.3737V23.3989V23.4241V23.4494V23.4746V23.4999V23.5251V23.5503V23.5756V23.6008V23.6261V23.6513V23.6765V23.7018V23.727V23.7523V23.7775V23.8027V23.828V23.8532V23.8785V23.9037V23.929V23.9542V23.9794V24.0047V24.0299V24.0552V24.0804V24.1057V24.1309V24.1561V24.1814V24.2066V24.2319V24.2571V24.2824V24.3076V24.3328V24.3581V24.3833V24.4086V24.4338V24.4591V24.4843V24.5095V24.5348V24.56V24.5853V24.6105V24.6358V24.661V24.6863V24.7115V24.7367V24.762V24.7872V24.8125V24.8377V24.863V24.8882V24.9135V24.9387V24.964V24.9892V25.0145V25.0397V25.0649V25.0902V25.1154V25.1407V25.1659V25.1912V25.2164V25.2417V25.2669V25.2922V25.3174V25.3427V25.3679V25.3932V25.4184V25.4437V25.4689V25.4942V25.5194V25.5447V25.5699V25.5952V25.6204V25.6457V25.6709V25.6962V25.7214V25.7467V25.7719V25.7972V25.8224V25.8477V25.8729V25.8982V25.9234V25.9487V25.9739V25.9992V26.0244V26.0497V26.0749V26.1002V26.1254V26.1507V26.1759V26.2012V26.2264V26.2517V26.2769V26.3022V26.3274V26.3527V26.3779V26.4032V26.4285V26.4537V26.479V26.5042V26.5295V26.5547V26.58V26.6052V26.6305V26.6557V26.681V26.7063V26.7315V26.7568V26.782V26.8073V26.8325V26.8578V26.883V26.9083V26.9336V26.9588V26.9841V27.0093V27.0346V27.0598V27.0851V27.1104V27.1356V27.1609V27.1861V27.2114V27.2366V27.2619V27.2872V27.3124V27.3377V27.3629V27.3882V27.4135V27.4387V27.464V27.4892V27.5145V27.5398V27.565V27.5903V27.6155V27.6408V27.6661V27.6913V27.7166V27.7418V27.7671V27.7924V27.8176V27.8429V27.8681V27.8934V27.9187V27.9439V27.9692V27.9945V28.0197V28.045V28.0702V28.0955V28.1208V28.146V28.1713V28.1966V28.2218V28.2471V28.2724V28.2732V28.274V28.2748V28.2756V28.2764V28.2772V28.278V28.2788V28.2796V28.2805V28.2813V28.2821V28.2829V28.2837V28.2845V28.2853V28.2861V28.2869V28.2877V28.2886V28.2894V28.2902V28.291V28.2918V28.2926V28.2934V28.2942V28.295V28.2958V28.2966V28.2975V28.2983V28.2991V28.2999V28.3007V28.3015V28.3023V28.3031V28.3039V28.3047V28.3056V28.3064V28.3072V28.308V28.3088V28.3096V28.3104V28.3112V28.312V28.3128V28.3136V28.3145V28.3153V28.3161V28.3169V28.3177V28.3185V28.3193V28.3201V28.3209V28.3217V28.3225V28.3234V28.3242V28.325V28.3258V28.3266V28.3274V28.3282V28.329V28.3298V28.3306V28.3314V28.3323V28.3331V28.3339V28.3347V28.3355V28.3363V28.3371V28.3379V28.3387V28.3395V28.3403V28.3412V28.342V28.3428V28.3436V28.3444V28.3452V28.346V28.3468V28.3476V28.3484V28.3492V28.35V28.3509V28.3517V28.3525V28.3533V28.3541V28.3549V28.3557V28.3565V28.3573V28.3581V28.3589V28.3597V28.3606V28.3614V28.3622V28.363V28.3638V28.3646V28.3654V28.3662V28.367V28.3678V28.3686V28.3694V28.3702V28.3711V28.3719V28.3727V28.3735V28.3743V28.3751V28.3759V28.3767V28.3775V28.3783V28.3791V28.3799V28.3807V28.3815V28.3824V28.3832V28.384V28.3848V28.3856V28.3864V28.3872V28.388V28.3888V28.3896V28.3904V28.3912V28.392V28.3928V28.3936V28.3945V28.3953V28.3961V28.3969V28.3977V28.3985V28.3993V28.4001V28.4009V28.4017V28.4025V28.4033V28.4041V28.4049V28.4057V28.4065V28.4073V28.4082V28.409V28.4098V28.4106V28.4114V28.4122V28.413V28.4138V28.4146V28.4154V28.4162V28.417V28.4178V28.4186V28.4194V28.4202V28.421V28.4218V28.4226V28.4234V28.4242V28.4251V28.4259V28.4267V28.4275V28.4283V28.4291V28.4299V28.4307V28.4315V28.4323V28.4331V28.4339V28.4347V28.4355V28.4363V28.4371V28.4379V28.4387V28.4395V28.4403V28.4411V28.4419V28.4427V28.4435V28.4443V28.4451V28.4459V28.4467V28.4475V28.4483V28.4492V28.45V28.4508V28.4516V28.4524V28.4532V28.454V28.4548V28.4556V28.4564V28.4572V28.458V28.4588V28.4596V28.4604V28.4612V28.462V28.4628V28.4636V28.4644V28.4652V28.466V28.4668V28.4676V28.4684V28.4692V28.47V28.4708V28.4716V28.4724V28.4732V28.474V28.4748V28.4756V28.4764V28.4772V28.478V28.4788V28.4796V28.4804V28.4812V28.482V28.4828V28.4836V28.4844V28.4852V28.486V28.4868V28.4876V28.4884V28.4892V28.49V28.4908V28.4916V28.4924V28.4932V28.494V28.4948V28.4956V28.4964V28.4972V28.498V28.4988V28.4996V28.5003V28.5011V28.5019V28.5027V28.5035V28.5043V28.5051V28.5059V28.5067V28.5075V28.5083V28.5091V28.5099V28.5107V28.5115V28.5123V28.5131V28.5139V28.5147V28.5155V28.5163V28.5171V28.5179V28.5187V28.5195V28.5203V28.5211V28.5218V28.5226V28.5234V28.5242V28.525V28.5258V28.5266V28.5274V28.5282V28.529V28.5298V28.5306V28.5314V28.5322V28.533V28.5338V28.5346V28.5353V28.5361V28.5369V28.5377V28.5385V28.5393V28.5401V28.5409V28.5417V28.5425V28.5433V28.5441V28.5449V28.5456V28.5464V28.5472V28.548V28.5488V28.5496V28.5504V28.5512V28.552V28.5528V28.5536V28.5544V28.5551V28.5559V28.5567V28.5575V28.5583V28.5591V28.5599V28.5607V28.5615V28.5623V28.563V28.5638V28.5646V28.5654V28.5662V28.567V28.5678V28.5686V28.5694V28.5701V28.5709V28.5717V28.5725V28.5733V28.5741V28.5749V28.5757V28.5764V28.5772V28.578V28.5788V28.5796V28.5804V28.5812V28.582V28.5827V28.5835V28.5843V28.5851V28.5859V28.5867V28.5875V28.5882V28.589V28.5898V28.5906V28.5914V28.5922V28.593V28.5937V28.5945V28.5953V28.5961V28.5969V28.5977V28.5985V28.5992V28.6V28.6008V28.6016V28.6024V28.6032V28.6039V28.6047V28.6055V28.6063V28.6071V28.6079V28.6086V28.6094V28.6102V28.611V28.6118V28.6125V28.6133V28.6141V28.6149V28.6157V28.6165V28.6172V28.618V28.6188V28.6196V28.6204V28.6211V28.6219V28.6227V28.6235V28.6243V28.625V28.6258V28.6266V28.6274V28.6282V28.6289V28.6297V28.6305V28.6313V28.6321V28.6328V28.6336V28.6344V28.6352V28.6359V28.6367V28.6375V28.6383V28.6391V28.6398V28.6406V28.6414V28.6422V28.6429V28.6437V28.6445V28.6453V28.646V28.6468V28.6476V28.6484V28.6491V28.6499V28.6507V28.6515V28.6522V28.653V28.6538V28.6546V28.6553V28.6561V28.6569V28.6577V28.6584V28.6592V28.66V28.6608V28.6615V28.6623V28.6631V28.6638V28.6646V28.6654V28.6662V28.6669V28.6677V28.6685V28.6693V28.67V28.6708V28.6716V28.6723V28.6731V28.6739V28.6747V28.6754V28.6762V28.677V28.6777V28.6785V28.6793V28.68V29.0701M12.7333 15.0361L12.7373 29.0701M12.7373 29.0701L13.1157 29.165M12.7373 29.0701L13.1157 29.165M13.1157 29.165L13.2373 28.68M13.1157 29.165L13.2373 28.68M13.2373 28.68C16.2135 29.4263 17.3614 31.7619 16.9022 33.6206M13.2373 28.68L12.0976 36.9996M16.9022 33.6206L16.4168 33.5007L16.4167 33.5013L16.9022 33.6206ZM16.9022 33.6206C16.4267 35.5554 14.4097 36.9719 12.0976 36.9996M12.0976 36.9996C9.71985 37.0272 7.66188 35.6729 7.12894 33.7105L12.0976 36.9996ZM8.96569 32.8087L8.96569 32.8088L9.46568 32.8053L8.96569 32.8087ZM12.0156 35.4266L12.0181 35.4266L12.0156 34.9266V35.4266Z" stroke="#02E602"/>
</svg>
