<svg width="100" height="100" viewBox="0 0 100 100" fill="none" xmlns="http://www.w3.org/2000/svg">
<g clip-path="url(#clip0_5_10)">
<rect width="100" height="100" rx="50" fill="#1E1D1D"/>
<rect x="32" y="15" width="36" height="71" rx="6" stroke="#02E502" stroke-width="4"/>
<rect x="3" y="3" width="94" height="94" rx="47" stroke="white" stroke-width="6"/>
<path d="M48 23C48 21.8954 48.8954 21 50 21V21C51.1046 21 52 21.8954 52 23V23C52 24.1046 51.1046 25 50 25V25C48.8954 25 48 24.1046 48 23V23Z" fill="#02E502"/>
<path d="M32 79H68V79C68 81.7614 65.7614 84 63 84H37C34.2386 84 32 81.7614 32 79V79Z" fill="#02E502"/>
</g>
<defs>
<clipPath id="clip0_5_10">
<rect width="100" height="100" rx="50" fill="white"/>
</clipPath>
</defs>
</svg>
