<svg width="38" height="38" viewBox="0 0 38 38" fill="none" xmlns="http://www.w3.org/2000/svg">
<path d="M18.5 2C9.30714 2 2 9.30714 2 18.5C2 27.6929 9.30714 35 18.5 35C27.6929 35 35 27.6929 35 18.5C35 9.30714 27.6929 2 18.5 2ZM18.5 32.6429C10.7214 32.6429 4.35714 26.2786 4.35714 18.5C4.35714 10.7214 10.7214 4.35714 18.5 4.35714C26.2786 4.35714 32.6429 10.7214 32.6429 18.5C32.6429 26.2786 26.2786 32.6429 18.5 32.6429Z" fill="#02E602"/>
<path d="M25.0571 27L18.5 20.4429L11.9429 27L10 25.0571L16.5571 18.5L10 11.9429L11.9429 10L18.5 16.5571L25.0571 10L27 11.9429L20.4429 18.5L27 25.0571L25.0571 27Z" fill="#02E602"/>
</svg>
