<svg width="16" height="21" viewBox="0 0 16 21" fill="none" xmlns="http://www.w3.org/2000/svg">
<path d="M0.900488 6.35388C0.719475 6.35388 0.583715 6.36137 0.440413 6.35388C0.168893 6.33892 0.0180479 6.20421 0.0105057 5.93478C0.00296349 5.29865 -0.0121205 4.66251 0.0180484 4.02637C0.0633017 3.19565 0.719475 2.60442 1.57174 2.59693C2.40893 2.58945 3.24612 2.59693 4.09084 2.59693C4.18889 2.59693 4.29448 2.59693 4.43779 2.59693C4.43779 2.31254 4.43779 2.05809 4.43779 1.79615C4.44533 0.688525 5.14675 0 6.27054 0C7.41696 0 8.57092 0 9.71733 0C10.7883 0 11.4898 0.688524 11.5124 1.74376C11.5199 2.01319 11.5124 2.28261 11.5124 2.59693C11.6331 2.59693 11.7311 2.59693 11.8367 2.59693C12.6739 2.59693 13.5111 2.59693 14.3558 2.59693C15.3589 2.59693 15.9925 3.23307 16 4.23592C16 4.73735 16 5.24626 16 5.74768C16 6.24911 15.9019 6.3464 15.3891 6.35388C15.3212 6.35388 15.2609 6.35389 15.193 6.36137C15.1779 6.36137 15.1628 6.37634 15.11 6.39879C15.11 6.49608 15.11 6.60085 15.11 6.71311C15.11 10.6796 15.11 14.6461 15.11 18.6126C15.11 20.1019 14.2049 21 12.6965 21C9.55895 21 6.42139 21 3.28383 21C1.82064 21 0.908029 20.0944 0.908029 18.6351C0.908029 14.6686 0.908029 10.7021 0.908029 6.73557C0.900486 6.62331 0.900488 6.51105 0.900488 6.35388ZM1.69242 6.36885C1.69242 6.49608 1.69242 6.58589 1.69242 6.67569C1.69242 10.6721 1.69242 14.6611 1.69242 18.6575C1.69242 19.6379 2.26563 20.2067 3.25366 20.2067C6.42139 20.2067 9.58912 20.2067 12.7568 20.2067C13.7449 20.2067 14.3181 19.6379 14.3181 18.6575C14.3181 14.6611 14.3181 10.6721 14.3181 6.67569C14.3181 6.5784 14.3181 6.48111 14.3181 6.36885C10.0944 6.36885 5.90852 6.36885 1.69242 6.36885ZM15.2081 5.5531C15.2081 5.14897 15.2081 4.7598 15.2081 4.37063C15.2081 3.62972 14.9592 3.38275 14.2049 3.38275C10.0643 3.38275 5.93114 3.38275 1.79047 3.38275C1.66225 3.38275 1.52649 3.38275 1.39827 3.4052C1.10413 3.46508 0.870318 3.64469 0.847692 3.93656C0.809981 4.46792 0.840149 5.00677 0.840149 5.5531C5.61437 5.5531 10.3961 5.5531 15.2081 5.5531ZM5.23726 2.57448C7.07756 2.57448 8.88769 2.57448 10.7205 2.57448C10.7205 2.32751 10.7205 2.10299 10.7205 1.88596C10.7205 1.78118 10.7205 1.67641 10.7054 1.57911C10.645 1.13756 10.3056 0.800782 9.8531 0.793298C8.60109 0.785814 7.34908 0.785814 6.09707 0.793298C5.65208 0.793298 5.28251 1.13008 5.2448 1.57911C5.22217 1.90092 5.23726 2.23022 5.23726 2.57448Z" fill="white"/>
<path d="M11.9977 12.5004C11.9977 13.7995 11.9977 15.106 11.9977 16.4051C11.9977 16.5079 11.9977 16.6106 11.9697 16.7061C11.9137 16.8969 11.7363 17.007 11.4843 16.9997C11.223 16.9923 11.055 16.8749 11.0177 16.6547C11.0083 16.5886 11.0083 16.5299 11.0083 16.4639C11.0083 13.8142 11.0083 11.1646 11.0083 8.51491C11.0083 8.44151 10.9803 8.34609 11.027 8.30205C11.1483 8.18462 11.2883 8.0158 11.447 8.00112C11.6057 7.98644 11.811 8.11856 11.9323 8.22132C12.007 8.28737 11.9883 8.42683 11.9883 8.53692C12.007 9.85808 11.9977 11.1792 11.9977 12.5004Z" fill="white"/>
<path d="M4.99763 12.5122C4.99763 13.8079 4.99763 15.111 4.99763 16.4067C4.99763 16.4872 5.00711 16.5751 4.98814 16.6556C4.95968 16.8679 4.77943 16.9924 4.52329 16.9997C4.25766 17.007 4.07741 16.8899 4.02049 16.6849C4.00152 16.6044 4.00152 16.5238 4.00152 16.436C4.00152 13.8079 4.00152 11.1872 4.00152 8.55913C4.00152 8.47128 3.99203 8.37612 4.02049 8.28827C4.09638 8.09062 4.27663 7.98081 4.55175 8.00277C4.80789 8.02473 4.95968 8.14186 4.98814 8.33952C5.00711 8.51521 4.99763 8.68358 4.99763 8.85927C4.99763 10.0745 4.99763 11.2897 4.99763 12.5122Z" fill="white"/>
<path d="M8.99761 12.489C8.99761 13.7851 8.99761 15.0885 8.99761 16.3846C8.99761 16.4725 8.99761 16.5677 8.98804 16.6555C8.95933 16.8679 8.78708 16.9924 8.51914 16.9997C8.23206 17.007 8.05024 16.8825 8.01196 16.6555C7.99282 16.575 8.00239 16.4944 8.00239 16.4066C8.00239 13.7997 8.00239 11.1929 8.00239 8.58611C8.00239 8.50556 8.00239 8.41769 8.01196 8.33714C8.05024 8.11747 8.22249 7.99298 8.51914 8.00031C8.79665 8.00763 8.95933 8.13211 8.98804 8.33714C9.00718 8.42501 8.99761 8.52021 8.99761 8.60808C8.99761 9.91149 8.99761 11.2002 8.99761 12.489Z" fill="white"/>
</svg>
