<svg width="596" height="118" viewBox="0 0 596 118" fill="none" xmlns="http://www.w3.org/2000/svg">
<g clip-path="url(#clip0_121_748)">
<path d="M525.999 15.0002C524.896 15.0002 523.999 15.8976 523.999 17.0002C523.999 18.1029 524.896 19.0002 525.999 19.0002C527.102 19.0002 527.999 18.1029 527.999 17.0002C527.999 15.8976 527.102 15.0002 525.999 15.0002ZM525.999 17.6669C525.631 17.6669 525.332 17.3676 525.332 17.0002C525.332 16.6329 525.631 16.3336 525.999 16.3336C526.367 16.3336 526.666 16.6329 526.666 17.0002C526.666 17.3676 526.367 17.6669 525.999 17.6669Z" fill="#464646"/>
<path d="M583.999 19.0002C585.102 19.0002 585.999 18.1029 585.999 17.0002C585.999 15.8976 585.102 15.0002 583.999 15.0002C582.896 15.0002 581.999 15.8976 581.999 17.0002C581.999 18.1029 582.896 19.0002 583.999 19.0002ZM583.999 16.3336C584.367 16.3336 584.666 16.6329 584.666 17.0002C584.666 17.3676 584.367 17.6669 583.999 17.6669C583.631 17.6669 583.332 17.3676 583.332 17.0002C583.332 16.6329 583.631 16.3336 583.999 16.3336Z" fill="#464646"/>
<path d="M527.999 67.0002C527.999 65.8976 527.102 65.0002 525.999 65.0002C524.896 65.0002 523.999 65.8976 523.999 67.0002C523.999 68.1029 524.896 69.0002 525.999 69.0002C527.102 69.0002 527.999 68.1029 527.999 67.0002ZM525.332 67.0002C525.332 66.6329 525.631 66.3336 525.999 66.3336C526.367 66.3336 526.666 66.6329 526.666 67.0002C526.666 67.3676 526.367 67.6669 525.999 67.6669C525.631 67.6669 525.332 67.3676 525.332 67.0002Z" fill="#464646"/>
<path d="M583.999 65.0002C582.896 65.0002 581.999 65.8976 581.999 67.0002C581.999 68.1029 582.896 69.0002 583.999 69.0002C585.102 69.0002 585.999 68.1029 585.999 67.0002C585.999 65.8976 585.102 65.0002 583.999 65.0002ZM583.999 67.6669C583.631 67.6669 583.332 67.3676 583.332 67.0002C583.332 66.6329 583.631 66.3336 583.999 66.3336C584.367 66.3336 584.666 66.6329 584.666 67.0002C584.666 67.3676 584.367 67.6669 583.999 67.6669Z" fill="#464646"/>
<path d="M568.349 33.736L582.702 20.8711C583.196 21.0546 583.726 21.16 584.283 21.16C584.296 21.16 584.308 21.1581 584.32 21.1581L592.28 31.3849C592.8 31.9537 593.488 32.255 594.139 32.255C594.539 32.255 594.925 32.1411 595.25 31.9055C595.62 31.6368 596.717 30.5618 595.277 28.0194L592.675 23.4643C591.969 22.0522 591.23 20.6629 590.616 20.0733L588.594 18.0515C588.745 17.5986 588.831 17.1157 588.831 16.6121C588.831 14.1048 586.791 12.0648 584.283 12.0648C584.057 12.0648 583.836 12.0869 583.619 12.1188L575.643 1.87107C574.803 0.953545 573.525 0.729693 572.672 1.34984C572.302 1.61859 571.205 2.6936 572.645 5.236L575.245 9.78721C575.917 11.1329 576.689 12.5899 577.306 13.1821L579.826 15.7017C579.766 15.9965 579.735 16.3017 579.735 16.6134C579.735 16.6706 579.741 16.7259 579.743 16.7819L568.29 23.7206C567.301 20.2431 564.437 17.5472 560.857 16.8177V16.6212C560.857 16.5782 560.853 16.5359 560.844 16.4936C560.553 15.036 559.219 14.0183 557.603 14.0183H552.395C550.778 14.0183 549.445 15.036 549.154 16.4936C549.145 16.5359 549.141 16.5782 549.141 16.6212V16.8177C545.566 17.5465 542.704 20.2379 541.712 23.7233L530.867 17.1522C530.886 16.9804 530.899 16.8066 530.899 16.629C530.899 16.1318 530.816 15.6542 530.667 15.2058L532.683 13.1912C533.309 12.5899 534.081 11.1329 534.75 9.79046L537.355 5.2334C538.794 2.6936 537.697 1.61859 537.326 1.34984C536.472 0.728392 535.195 0.953545 534.322 1.91077L526.407 12.0849C526.388 12.0849 526.37 12.0823 526.35 12.0823C523.842 12.0823 521.802 14.1224 521.802 16.6296C521.802 16.9485 521.836 17.2589 521.899 17.5595L519.392 20.0655C518.768 20.6642 518.029 22.0541 517.325 23.4662L514.72 28.0233C513.281 30.5631 514.378 31.6381 514.748 31.9068C515.07 32.1404 515.452 32.2543 515.849 32.2543C516.507 32.2543 517.208 31.9426 517.752 31.3459L525.704 21.1255C525.916 21.1555 526.13 21.1763 526.35 21.1763C526.738 21.1763 527.113 21.1223 527.473 21.0305L541.649 33.736L542.341 49.6431L527.473 62.9688C527.113 62.877 526.738 62.823 526.35 62.823C526.13 62.823 525.915 62.8439 525.703 62.8744L517.719 52.6144C516.879 51.6962 515.602 51.4736 514.748 52.0931C514.378 52.3619 513.281 53.4369 514.721 55.9793L517.323 60.5331C518.028 61.9452 518.767 63.3352 519.382 63.9254L521.899 66.4411C521.836 66.7411 521.802 67.0521 521.802 67.371C521.802 69.8783 523.843 71.9183 526.35 71.9183C526.369 71.9183 526.388 71.9157 526.407 71.9157L534.356 82.1296C534.876 82.6983 535.564 83.0002 536.216 83.0002C536.616 83.0002 537.002 82.8864 537.326 82.6508C537.697 82.3814 538.794 81.307 537.354 78.7646L534.753 74.2134C534.081 72.8677 533.309 71.4107 532.692 70.8186L530.667 68.7941C530.816 68.3458 530.899 67.8681 530.899 67.371C530.899 67.194 530.886 67.0202 530.867 66.8478L543.354 59.2811C544.435 61.381 546.62 62.823 549.141 62.823H560.857C563.38 62.823 565.568 61.3771 566.648 59.2831L579.117 66.838C579.097 67.0131 579.083 67.1894 579.083 67.3697C579.083 67.8714 579.168 68.3529 579.319 68.8045L577.315 70.8075C576.688 71.4088 575.917 72.8658 575.248 74.2082L572.643 78.7653C571.204 81.3051 572.301 82.3801 572.671 82.6488C572.993 82.8825 573.375 82.9963 573.772 82.9963C574.43 82.9963 575.131 82.6846 575.675 82.0879L583.591 71.9144C583.604 71.9144 583.617 71.9163 583.631 71.9163C586.14 71.9163 588.18 69.8763 588.18 67.369C588.18 66.8706 588.096 66.3916 587.947 65.9426L589.948 63.9423C590.572 63.3436 591.311 61.9537 592.016 60.5416L594.62 55.9845C596.059 53.4447 594.962 52.3697 594.592 52.101C593.738 51.4795 592.461 51.7047 591.588 52.6619L583.681 62.825C583.664 62.825 583.648 62.8224 583.632 62.8224C583.248 62.8224 582.877 62.8751 582.521 62.9649L567.657 49.6438L568.349 33.736ZM589.705 21.0038C590.253 21.5296 591.166 23.3582 591.51 24.0467C591.515 24.0577 591.536 24.1007 591.543 24.1111L594.145 28.6642C594.82 29.8564 594.803 30.6229 594.484 30.854C594.213 31.0505 593.649 30.9561 593.272 30.5475L585.771 20.9056C586.662 20.5958 587.425 20.0186 587.967 19.2684L589.705 21.0038ZM587.529 16.6134C587.529 18.4029 586.073 19.8592 584.283 19.8592C582.493 19.8592 581.036 18.4035 581.036 16.6134C581.036 14.8232 582.492 13.3675 584.282 13.3675C586.073 13.3675 587.529 14.8232 587.529 16.6134ZM578.217 12.2522C577.668 11.7257 576.754 9.89523 576.41 9.20611C576.404 9.19504 576.385 9.156 576.378 9.14559L573.776 4.59243C573.101 3.40029 573.119 2.63373 573.437 2.40272C573.704 2.2062 574.27 2.29926 574.648 2.70922L582.29 12.5313C581.468 12.9341 580.784 13.5751 580.332 14.367L578.217 12.2522ZM580.005 18.1445C580.3 18.9651 580.823 19.6757 581.499 20.2015L568.427 31.9166L568.668 26.3821C568.668 25.937 568.628 25.5023 568.57 25.0729L580.005 18.1445ZM552.395 15.3197H557.603C558.41 15.3197 559.305 15.7349 559.542 16.6537C559.331 16.6394 559.12 16.6212 558.904 16.6212H551.093C550.878 16.6212 550.667 16.6394 550.455 16.6537C550.693 15.7349 551.587 15.3197 552.395 15.3197ZM535.316 2.74891C535.727 2.29991 536.292 2.20685 536.561 2.40272C536.878 2.63308 536.897 3.40029 536.223 4.58983L533.619 9.14494C533.613 9.15535 533.593 9.19439 533.587 9.20546C533.244 9.89458 532.329 11.7257 531.771 12.2613L530.045 13.987C529.505 13.2348 528.743 12.655 527.854 12.3426L535.316 2.74891ZM516.758 30.5071C516.346 30.9561 515.781 31.0492 515.513 30.8533C515.196 30.6229 515.177 29.8557 515.851 28.6662L518.455 24.1111C518.461 24.1007 518.483 24.0577 518.488 24.0467C518.832 23.3582 519.746 21.5296 520.303 20.9947L522.409 18.889C522.864 19.679 523.549 20.318 524.372 20.7175L516.758 30.5071ZM523.104 16.629C523.104 14.8395 524.56 13.3831 526.35 13.3831C528.141 13.3831 529.597 14.8388 529.597 16.629C529.597 18.4191 528.141 19.8748 526.35 19.8748C524.56 19.8748 523.104 18.4191 523.104 16.629ZM528.789 20.4611C529.543 19.9796 530.147 19.2846 530.511 18.4588L541.431 25.0755C541.371 25.5134 541.329 25.9566 541.33 26.4108L541.57 31.9166L528.789 20.4611ZM520.293 62.9955C519.745 62.469 518.832 60.6398 518.487 59.9514C518.482 59.9403 518.461 59.8987 518.455 59.8882L515.852 55.3351C515.177 54.1429 515.196 53.3764 515.513 53.1454C515.781 52.9502 516.346 53.0426 516.725 53.4525L524.372 63.2818C523.548 63.682 522.863 64.3204 522.408 65.1104L520.293 62.9955ZM523.104 67.3703C523.104 65.5808 524.56 64.1245 526.35 64.1245C528.141 64.1245 529.597 65.5802 529.597 67.3703C529.597 69.1605 528.141 70.6162 526.35 70.6162C524.56 70.6162 523.104 69.1598 523.104 67.3703ZM531.781 71.7471C532.33 72.2736 533.244 74.1041 533.587 74.7932C533.593 74.8043 533.613 74.8433 533.619 74.8537L536.222 79.4069C536.897 80.599 536.878 81.3656 536.561 81.5966C536.292 81.7912 535.728 81.6994 535.349 81.2901L527.855 71.6567C528.744 71.3437 529.506 70.7645 530.046 70.0123L531.781 71.7471ZM530.511 65.5405C530.147 64.7147 529.543 64.0197 528.789 63.5382L542.414 51.3259L542.631 56.3157C542.631 56.917 542.72 57.4975 542.873 58.0506L530.511 65.5405ZM549.934 61.5216L550.422 59.0768C550.634 58.2308 551.464 57.6172 552.395 57.6172H557.603C558.534 57.6172 559.363 58.2308 559.568 59.0462L560.063 61.5216H549.934ZM561.385 61.4949L560.837 58.7605C560.484 57.3439 559.122 56.3157 557.603 56.3157H552.395C550.875 56.3157 549.514 57.3439 549.154 58.7911L548.613 61.4949C545.989 61.2294 543.933 59.0065 543.933 56.2878L542.937 33.3996C542.937 33.399 542.937 33.3977 542.937 33.397L542.631 26.3821C542.631 25.8537 542.686 25.3377 542.78 24.836C542.78 24.8353 542.78 24.8353 542.78 24.8347C543.51 20.9075 546.957 17.9226 551.093 17.9226H558.904C563.042 17.9226 566.489 20.9088 567.219 24.8171C567.22 24.8295 567.222 24.8406 567.224 24.8529C567.313 25.341 567.366 25.8414 567.366 26.3542L566.065 56.3157C566.065 59.0078 564.01 61.2294 561.385 61.4949ZM574.682 81.2504C574.27 81.6994 573.704 81.7918 573.437 81.5966C573.119 81.3662 573.1 80.599 573.775 79.4095L576.378 74.8544C576.385 74.844 576.404 74.8049 576.41 74.7939C576.754 74.1048 577.669 72.2736 578.226 71.738L579.944 70.0214C580.486 70.773 581.249 71.3509 582.14 71.6613L574.682 81.2504ZM583.631 70.6162C581.841 70.6162 580.385 69.1605 580.385 67.3703C580.385 65.5802 581.841 64.1245 583.631 64.1245C585.422 64.1245 586.878 65.5802 586.878 67.3703C586.878 69.1605 585.422 70.6162 583.631 70.6162ZM592.581 53.5013C592.993 53.0517 593.558 52.9593 593.826 53.1551C594.144 53.3855 594.163 54.1527 593.489 55.3422L590.885 59.8974C590.878 59.9078 590.857 59.9507 590.852 59.9618C590.508 60.6502 589.594 62.4788 589.037 63.0137L587.324 64.7258C586.783 63.9729 586.02 63.3937 585.129 63.0814L592.581 53.5013ZM581.202 63.5323C580.446 64.0126 579.841 64.7076 579.474 65.5333L567.127 58.0525C567.279 57.5066 567.366 56.9359 567.366 56.3444L567.584 51.3266L581.202 63.5323Z" fill="#464646"/>
<path d="M560.785 22.0002H549.213C547.441 22.0002 545.999 23.4956 545.999 25.3336V30.6669C545.999 32.5049 547.441 34.0002 549.213 34.0002H560.785C562.557 34.0002 563.999 32.5049 563.999 30.6669V25.3336C563.999 23.4956 562.557 22.0002 560.785 22.0002ZM562.713 30.6669C562.713 31.7696 561.848 32.6669 560.785 32.6669H549.213C548.15 32.6669 547.285 31.7696 547.285 30.6669V25.3336C547.285 24.2309 548.15 23.3336 549.213 23.3336H560.785C561.848 23.3336 562.713 24.2309 562.713 25.3336V30.6669Z" fill="#464646"/>
</g>
<path d="M480 39.3008C433.959 28.6993 386.458 24.0753 339.293 25.4287C303.359 26.4437 243.505 24.8648 214.757 50.5789C199.822 63.9999 191.624 90.729 212.736 102.909C243.505 120.616 266.75 76.1803 234.184 58.4736C224.639 53.2857 213.522 51.8195 202.742 50.8045C150.636 45.8421 100.103 51.9323 48.1101 55.3157C-30.7215 60.5037 -108.992 61.5187 -187.374 50.3534C-245.207 42.0075 -301.916 37.2707 -352 4.00024" stroke="#464646" stroke-width="2" stroke-miterlimit="10" stroke-dasharray="12 12"/>
<defs>
<clipPath id="clip0_121_748">
<rect width="83" height="83" fill="white" transform="translate(512.999 0.000244141)"/>
</clipPath>
</defs>
</svg>
