<svg width="50" height="52" viewBox="0 0 50 52" fill="none" xmlns="http://www.w3.org/2000/svg">
<path d="M32 10.4883C32 6.86322 29.1137 3.97705 25.4885 4.00014C21.8864 4.02323 18.977 6.95558 19.0001 10.5344C19.0232 14.044 21.9788 16.9995 25.4885 16.9995C29.0675 17.0456 32 14.1133 32 10.4883ZM21.0321 10.5113C21.009 8.06387 23.0179 6.00891 25.4654 5.96274C27.9361 5.93965 30.0604 8.04078 30.0373 10.5113C30.0142 12.9357 27.9823 14.9676 25.5116 14.9676C23.064 14.9907 21.0552 13.005 21.0321 10.5113Z" fill="#02E602"/>
<path d="M50 23.0966C50 22.6334 49.9295 22.1007 49.5303 21.8923C49.272 21.7302 48.9432 21.7765 48.6379 21.8228C42.79 22.6334 37.1301 24.8104 31.2118 24.8798C32.7853 20.5259 36.1437 16.7972 36.7074 12.2117C37.2006 8.22825 35.2513 4.05957 31.8929 1.81311C28.5815 -0.387028 23.861 -0.618617 20.3147 1.30361C16.745 3.22584 14.4434 7.20924 14.5608 11.2158C14.6783 14.9676 16.698 18.3721 18.6707 21.5912C12.8464 22.4713 7.04556 23.6292 1.33866 25.042C0.939411 25.1346 0.493189 25.2735 0.234852 25.6209C0.0469704 25.8988 0.0234866 26.2694 0.0234866 26.6168C0.0234866 33.7962 0 40.9756 0 48.155C0 48.9656 1.42782e-06 49.7993 0.140913 50.5867C0.211368 50.911 0.281825 51.5363 0.516677 51.791C0.7985 52.0921 1.05683 51.9994 1.50305 51.93C3.3349 51.6984 5.14326 51.2815 6.92814 50.8415C10.4509 49.9614 13.9972 48.9193 17.6609 49.035C21.6299 49.1508 25.411 50.6099 29.286 51.4436C30.4838 51.6984 31.6815 51.9068 32.9028 51.8605C34.0301 51.8142 35.1573 51.5826 36.2612 51.351C40.3241 50.4709 44.387 49.614 48.45 48.734C48.8727 48.6413 49.3189 48.5255 49.6242 48.2245C49.953 47.8539 49.9765 47.2981 49.9765 46.8118C49.9765 38.9376 49.9765 31.0634 49.9765 23.1892C50 23.1197 50 23.0966 50 23.0966ZM15.9465 46.7886C11.3434 47.7613 6.78723 48.7108 2.13716 49.7067C2.13716 47.4139 2.13716 33.9583 2.13716 33.7267C2.13716 32.4066 2.13716 31.1097 2.13716 29.7896C2.13716 28.7938 2.13716 27.7979 2.13716 26.8252C6.81071 25.8294 11.3434 24.8798 15.9465 23.9071C15.9465 31.6192 15.9465 39.1923 15.9465 46.7886ZM17.5435 15.0371C15.829 11.5864 16.1578 8.27457 18.5768 5.28702C20.8783 2.43841 23.9784 1.34992 27.5716 2.13734C31.3527 2.94792 33.7248 5.3565 34.6172 9.062C35.0634 10.9611 34.899 12.837 34.0301 14.5971C31.3527 19.9469 28.6285 25.2735 25.9277 30.6234C25.8807 30.716 25.8102 30.7855 25.6928 30.9476C25.5049 30.6465 25.3405 30.3918 25.1996 30.137C22.6397 25.1114 20.0799 20.0858 17.5435 15.0371ZM31.9164 49.7067C27.2898 48.734 22.7572 47.7613 18.1541 46.8118C18.1541 39.1923 18.1541 31.6192 18.1541 24.0229C19.3753 23.9535 20.0799 24.4398 20.5965 25.5515C21.8412 28.2148 23.2034 30.8086 24.5655 33.4025C24.7769 33.7962 25.2936 34.3289 25.5989 34.3057C26.0216 34.2594 26.5383 33.7962 26.7496 33.3793C27.7595 31.5497 28.7224 29.697 29.5679 27.7979C30.0845 26.6399 30.6717 26.2231 31.8929 26.941C31.9164 34.4215 31.9164 41.9714 31.9164 49.7067ZM47.9333 46.7886C43.2597 47.7613 38.7036 48.734 34.124 49.7067C34.124 41.9946 34.124 34.4446 34.124 26.8252C38.7271 25.8525 43.2832 24.903 47.9333 23.9071C47.9333 26.2231 47.9333 44.7274 47.9333 46.7886Z" fill="#02E602"/>
</svg>
